<?xml version="1.0" encoding="utf-8"?>
<!-- Generator: Adobe Illustrator 19.2.0, SVG Export Plug-In . SVG Version: 6.00 Build 0)  -->
<svg version="1.1" id="Слой_1" xmlns="http://www.w3.org/2000/svg" xmlns:xlink="http://www.w3.org/1999/xlink" x="0px" y="0px"
	 viewBox="0 0 1 3635" style="enable-background:new 0 0 1 3635;" xml:space="preserve">
<style type="text/css">
	.st0{fill:none;}
	.st1{fill:#D5EE39;}
	.st2{fill:#8C948F;}
	.st3{fill:#EAE39C;}
	.st4{fill:#E57834;}
	.st5{fill:#B2C9E0;}
	.st6{fill:#F3BFA2;}
	.st7{fill:#45AAAF;}
	.st8{fill:#B6BDD7;}
	.st9{fill:#77D6DA;}
</style>
<g>
	<g>
		<g>
			<rect y="1840.3" class="st0" width="1" height="51.1"/>
			<rect y="3088.4" class="st0" width="1" height="65.3"/>
			<rect y="2469.7" class="st0" width="1" height="22.9"/>
			<rect y="1787.7" class="st0" width="1" height="29.2"/>
			<rect y="2085.6" class="st0" width="1" height="26.3"/>
			<rect y="2209.8" class="st0" width="1" height="21.9"/>
			<rect y="2631.8" class="st0" width="1" height="28.8"/>
			<rect y="2133.8" class="st0" width="1" height="21.9"/>
			<rect y="2851.1" class="st0" width="1" height="49.9"/>
			<rect y="2176.2" class="st0" width="1" height="14.6"/>
			<rect y="1602.3" class="st0" width="1" height="65.7"/>
			<rect y="3170.3" class="st0" width="1" height="28.5"/>
			<rect y="3602.9" class="st0" width="1" height="32.1"/>
			<rect y="1668" class="st1" width="1" height="119.7"/>
			<rect y="2559.2" class="st1" width="1" height="72.5"/>
			<rect y="3033.7" class="st1" width="1" height="54.6"/>
			<rect y="3379.4" class="st1" width="1" height="81.8"/>
			<rect y="1816.9" class="st2" width="1" height="23.4"/>
			<rect y="1967.3" class="st3" width="1" height="19"/>
			<rect y="1891.4" class="st3" width="1" height="19"/>
			<rect y="1910.4" class="st4" width="1" height="57"/>
			<rect y="1986.3" class="st5" width="1" height="40.9"/>
			<rect y="2027.2" class="st6" width="1" height="17.5"/>
			<rect y="2044.7" class="st7" width="1" height="40.9"/>
			<rect y="2111.9" class="st2" width="1" height="21.9"/>
			<rect y="3016.2" class="st2" width="1" height="17.6"/>
			<rect y="2956.9" class="st8" width="1" height="15.1"/>
			<rect y="3226.5" class="st8" width="1" height="28.6"/>
			<rect y="3461.2" class="st8" width="1" height="89.1"/>
			<rect y="3326.8" class="st7" width="1" height="52.6"/>
			<rect y="3550.3" class="st7" width="1" height="52.6"/>
			<rect y="2155.7" class="st9" width="1" height="20.4"/>
			<rect y="2190.8" class="st3" width="1" height="19"/>
			<rect y="2231.7" class="st4" width="1" height="16.1"/>
			<rect y="2247.7" class="st3" width="1" height="27.7"/>
			<rect y="2545.4" class="st3" width="1" height="13.9"/>
			<rect y="2807" class="st3" width="1" height="44.1"/>
			<rect y="2660.6" class="st3" width="1" height="36.9"/>
			<rect y="2972.1" class="st3" width="1" height="44.1"/>
			<rect y="2275.5" class="st5" width="1" height="49.7"/>
			<rect y="2325.1" class="st6" width="1" height="17.5"/>
			<rect y="2342.6" class="st9" width="1" height="81.8"/>
			<rect y="2697.5" class="st9" width="1" height="81.8"/>
			<rect y="3153.7" class="st9" width="1" height="16.6"/>
			<rect y="2424.4" class="st6" width="1" height="26.3"/>
			<rect y="2901" class="st6" width="1" height="56"/>
			<rect y="2450.7" class="st4" width="1" height="19"/>
			<rect y="2492.6" class="st4" width="1" height="52.8"/>
			<rect y="2779.3" class="st4" width="1" height="27.7"/>
			<rect y="3198.8" class="st4" width="1" height="27.7"/>
			<rect y="3255.2" class="st4" width="1" height="71.7"/>
		</g>
		<g>
			<rect y="238" class="st0" width="1" height="51.1"/>
			<rect y="1486.1" class="st0" width="1" height="65.3"/>
			<rect y="867.4" class="st0" width="1" height="22.9"/>
			<rect y="185.5" class="st0" width="1" height="29.2"/>
			<rect y="483.4" class="st0" width="1" height="26.3"/>
			<rect y="607.5" class="st0" width="1" height="21.9"/>
			<rect y="1029.5" class="st0" width="1" height="28.8"/>
			<rect y="531.5" class="st0" width="1" height="21.9"/>
			<rect y="1248.8" class="st0" width="1" height="49.9"/>
			<rect y="573.9" class="st0" width="1" height="14.6"/>
			<rect class="st0" width="1" height="65.7"/>
			<rect y="1568" class="st0" width="1" height="28.5"/>
			<rect y="2000.7" class="st0" width="1" height="32.1"/>
			<rect y="65.7" class="st1" width="1" height="119.7"/>
			<rect y="957" class="st1" width="1" height="72.5"/>
			<rect y="1431.5" class="st1" width="1" height="54.6"/>
			<rect y="1777.2" class="st1" width="1" height="81.8"/>
			<rect y="214.7" class="st2" width="1" height="23.4"/>
			<rect y="365.1" class="st3" width="1" height="19"/>
			<rect y="289.1" class="st3" width="1" height="19"/>
			<rect y="308.1" class="st4" width="1" height="57"/>
			<rect y="384.1" class="st5" width="1" height="40.9"/>
			<rect y="424.9" class="st6" width="1" height="17.5"/>
			<rect y="442.5" class="st7" width="1" height="40.9"/>
			<rect y="509.6" class="st2" width="1" height="21.9"/>
			<rect y="1413.9" class="st2" width="1" height="17.6"/>
			<rect y="1354.7" class="st8" width="1" height="15.1"/>
			<rect y="1624.3" class="st8" width="1" height="28.6"/>
			<rect y="1859" class="st8" width="1" height="89.1"/>
			<rect y="1724.6" class="st7" width="1" height="52.6"/>
			<rect y="1948" class="st7" width="1" height="52.6"/>
			<rect y="553.5" class="st9" width="1" height="20.4"/>
			<rect y="588.5" class="st3" width="1" height="19"/>
			<rect y="629.4" class="st4" width="1" height="16.1"/>
			<rect y="645.5" class="st3" width="1" height="27.7"/>
			<rect y="943.1" class="st3" width="1" height="13.9"/>
			<rect y="1204.7" class="st3" width="1" height="44.1"/>
			<rect y="1058.4" class="st3" width="1" height="36.9"/>
			<rect y="1369.8" class="st3" width="1" height="44.1"/>
			<rect y="673.2" class="st5" width="1" height="49.7"/>
			<rect y="722.8" class="st6" width="1" height="17.5"/>
			<rect y="740.4" class="st9" width="1" height="81.8"/>
			<rect y="1095.2" class="st9" width="1" height="81.8"/>
			<rect y="1551.4" class="st9" width="1" height="16.6"/>
			<rect y="822.1" class="st6" width="1" height="26.3"/>
			<rect y="1298.7" class="st6" width="1" height="56"/>
			<rect y="848.4" class="st4" width="1" height="19"/>
			<rect y="890.3" class="st4" width="1" height="52.8"/>
			<rect y="1177" class="st4" width="1" height="27.7"/>
			<rect y="1596.5" class="st4" width="1" height="27.7"/>
			<rect y="1652.9" class="st4" width="1" height="71.7"/>
		</g>
	</g>
</g>
</svg>
