<?xml version="1.0" encoding="utf-8"?>
<!-- Generator: Adobe Illustrator 19.2.0, SVG Export Plug-In . SVG Version: 6.00 Build 0)  -->
<svg version="1.1" id="Слой_1" xmlns="http://www.w3.org/2000/svg" xmlns:xlink="http://www.w3.org/1999/xlink" x="0px" y="0px"
	 viewBox="0 0 1 2340" style="enable-background:new 0 0 1 2340;" xml:space="preserve">
<style type="text/css">
	.st0{clip-path:url(#SVGID_2_);}
	.st1{fill:none;}
	.st2{fill:#D5EE39;}
	.st3{fill:#8C948F;}
	.st4{fill:#EAE39C;}
	.st5{fill:#E57834;}
	.st6{fill:#B2C9E0;}
	.st7{fill:#F3BFA2;}
	.st8{fill:#45AAAF;}
	.st9{fill:#B6BDD7;}
	.st10{fill:#77D6DA;}
</style>
<g>
	<defs>
		<rect id="SVGID_1_" y="7.9" width="1683.3" height="2383.9"/>
	</defs>
	<clipPath id="SVGID_2_">
		<use xlink:href="#SVGID_1_"  style="overflow:visible;"/>
	</clipPath>
	<g class="st0">
		<g>
			<rect x="-2675.9" y="663.4" class="st1" width="7035.2" height="51.1"/>
			<rect x="-2675.9" y="1911.6" class="st1" width="7035.2" height="65.4"/>
			<rect x="-2675.9" y="1292.8" class="st1" width="7035.2" height="22.9"/>
			<rect x="-2675.9" y="610.8" class="st1" width="7035.2" height="29.2"/>
			<rect x="-2675.9" y="908.7" class="st1" width="7035.2" height="26.3"/>
			<rect x="-2675.9" y="1032.9" class="st1" width="7035.2" height="21.9"/>
			<rect x="-2675.9" y="1454.9" class="st1" width="7035.2" height="28.8"/>
			<rect x="-2675.9" y="956.9" class="st1" width="7035.2" height="21.9"/>
			<rect x="-2675.9" y="1674.3" class="st1" width="7035.2" height="49.9"/>
			<rect x="-2675.9" y="999.3" class="st1" width="7035.2" height="14.6"/>
			<rect x="-2675.9" y="425.3" class="st1" width="7035.2" height="65.7"/>
			<rect x="-2675.9" y="1993.5" class="st1" width="7035.2" height="28.5"/>
			<rect x="-2675.9" y="491" class="st2" width="7035.2" height="119.8"/>
			<rect x="-2675.9" y="1382.4" class="st2" width="7035.2" height="72.5"/>
			<rect x="-2675.9" y="1856.9" class="st2" width="7035.2" height="54.7"/>
			<rect x="-2675.9" y="2202.7" class="st2" width="7035.2" height="81.8"/>
			<rect x="-2675.9" y="640" class="st3" width="7035.2" height="23.4"/>
			<rect x="-2675.9" y="790.4" class="st4" width="7035.2" height="19"/>
			<rect x="-2675.9" y="714.5" class="st4" width="7035.2" height="19"/>
			<rect x="-2675.9" y="733.5" class="st5" width="7035.2" height="57"/>
			<rect x="-2675.9" y="809.4" class="st6" width="7035.2" height="40.9"/>
			<rect x="-2675.9" y="850.3" class="st7" width="7035.2" height="17.5"/>
			<rect x="-2675.9" y="867.8" class="st8" width="7035.2" height="40.9"/>
			<rect x="-2675.9" y="935" class="st3" width="7035.2" height="21.9"/>
			<rect x="-2675.9" y="1839.3" class="st3" width="7035.2" height="17.6"/>
			<rect x="-2675.9" y="1780.1" class="st9" width="7035.2" height="15.1"/>
			<rect x="-2675.9" y="2049.7" class="st9" width="7035.2" height="28.6"/>
			<rect x="-2675.9" y="2284.4" class="st9" width="7035.2" height="89.1"/>
			<rect x="-2675.9" y="2150" class="st8" width="7035.2" height="52.6"/>
			<rect x="-2675.9" y="978.8" class="st10" width="7035.2" height="20.4"/>
			<rect x="-2675.9" y="1013.9" class="st4" width="7035.2" height="19"/>
			<rect x="-2675.9" y="1054.8" class="st5" width="7035.2" height="16.1"/>
			<rect x="-2675.9" y="1070.8" class="st4" width="7035.2" height="27.7"/>
			<rect x="-2675.9" y="1368.5" class="st4" width="7035.2" height="13.9"/>
			<rect x="-2675.9" y="1630.2" class="st4" width="7035.2" height="44.1"/>
			<rect x="-2675.9" y="1483.8" class="st4" width="7035.2" height="36.9"/>
			<rect x="-2675.9" y="1795.2" class="st4" width="7035.2" height="44.1"/>
			<rect x="-2675.9" y="1098.6" class="st6" width="7035.2" height="49.7"/>
			<rect x="-2675.9" y="1148.2" class="st7" width="7035.2" height="17.5"/>
			<rect x="-2675.9" y="1165.8" class="st10" width="7035.2" height="81.8"/>
			<rect x="-2675.9" y="1520.6" class="st10" width="7035.2" height="81.8"/>
			<rect x="-2675.9" y="1976.9" class="st10" width="7035.2" height="16.6"/>
			<rect x="-2675.9" y="1247.5" class="st7" width="7035.2" height="26.3"/>
			<rect x="-2675.9" y="1724.1" class="st7" width="7035.2" height="56"/>
			<rect x="-2675.9" y="1273.8" class="st5" width="7035.2" height="19"/>
			<rect x="-2675.9" y="1315.7" class="st5" width="7035.2" height="52.8"/>
			<rect x="-2675.9" y="1602.4" class="st5" width="7035.2" height="27.7"/>
			<rect x="-2675.9" y="2022" class="st5" width="7035.2" height="27.7"/>
			<rect x="-2675.9" y="2078.4" class="st5" width="7035.2" height="71.7"/>
		</g>
		<g>
			<rect x="-2675.9" y="309.1" class="st1" width="7035.2" height="65.4"/>
			<rect x="-2675.9" y="71.8" class="st1" width="7035.2" height="49.9"/>
			<rect x="-2675.9" y="391" class="st1" width="7035.2" height="28.5"/>
			<rect x="-2675.9" y="823.7" class="st1" width="7035.2" height="32.1"/>
			<rect x="-2675.9" y="254.5" class="st2" width="7035.2" height="54.7"/>
			<rect x="-2675.9" y="600.2" class="st2" width="7035.2" height="81.8"/>
			<rect x="-2675.9" y="236.9" class="st3" width="7035.2" height="17.6"/>
			<rect x="-2675.9" y="177.7" class="st9" width="7035.2" height="15.1"/>
			<rect x="-2675.9" y="447.3" class="st9" width="7035.2" height="28.6"/>
			<rect x="-2675.9" y="682" class="st9" width="7035.2" height="89.1"/>
			<rect x="-2675.9" y="547.6" class="st8" width="7035.2" height="52.6"/>
			<rect x="-2675.9" y="771.1" class="st8" width="7035.2" height="52.6"/>
			<rect x="-2675.9" y="27.7" class="st4" width="7035.2" height="44.1"/>
			<rect x="-2675.9" y="192.8" class="st4" width="7035.2" height="44.1"/>
			<rect x="-2675.9" y="374.5" class="st10" width="7035.2" height="16.6"/>
			<rect x="-2675.9" y="121.7" class="st7" width="7035.2" height="56"/>
			<rect x="-2675.9" class="st5" width="7035.2" height="27.7"/>
			<rect x="-2675.9" y="419.6" class="st5" width="7035.2" height="27.7"/>
			<rect x="-2675.9" y="475.9" class="st5" width="7035.2" height="71.7"/>
		</g>
	</g>
</g>
</svg>
