<?xml version="1.0" encoding="utf-8"?>
<!-- Generator: Adobe Illustrator 19.2.0, SVG Export Plug-In . SVG Version: 6.00 Build 0)  -->
<svg version="1.1" id="Слой_1" xmlns="http://www.w3.org/2000/svg" xmlns:xlink="http://www.w3.org/1999/xlink" x="0px" y="0px"
	 viewBox="0 0 500 820" style="enable-background:new 0 0 500 820;" xml:space="preserve">
<style type="text/css">
	.st0{fill:#FF5252;}
	.st1{fill:#727272;}
	.st2{fill:none;stroke:#A7C5EE;stroke-width:3;stroke-miterlimit:10;}
	.st3{fill:none;stroke:#A7C5EE;stroke-width:3;stroke-miterlimit:10;stroke-dasharray:10.2918,10.2918;}
	.st4{fill:none;stroke:#A7C5EE;stroke-width:3;stroke-miterlimit:10;stroke-dasharray:6.78,6.78;}
	.st5{fill:none;stroke:#A7C5EE;stroke-width:3;stroke-miterlimit:10;stroke-dasharray:11.1452,11.1452;}
	.st6{fill:none;stroke:#A7C5EE;stroke-width:3;stroke-miterlimit:10;stroke-dasharray:11.3534,11.3534;}
	.st7{fill:none;stroke:#A7C5EE;stroke-width:3;stroke-miterlimit:10;stroke-dasharray:11.6992,11.6992;}
	.st8{fill:none;stroke:#A7C5EE;stroke-width:3;stroke-miterlimit:10;stroke-dasharray:12;}
	.st9{fill:none;stroke:#A7C5EE;stroke-width:3;stroke-miterlimit:10;stroke-dasharray:11.8972,11.8972;}
	.st10{fill:none;stroke:#A7C5EE;stroke-width:3;stroke-miterlimit:10;stroke-dasharray:13.4398,13.4398;}
	.st11{fill:#C3C6C8;}
	.st12{fill:#7D868C;}
	.st13{fill:#A9ACAD;}
	.st14{fill:#1E252B;}
	.st15{fill:#FFFFFF;}
	.st16{fill:none;stroke:#A9ACAD;stroke-width:3;stroke-miterlimit:10;stroke-dasharray:12.3466,12.3466;}
	.st17{fill:#F5E200;}
	.st18{fill:none;stroke:#A9ACAD;stroke-width:3;stroke-miterlimit:10;}
	.st19{fill:none;stroke:#A9ACAD;stroke-width:3;stroke-miterlimit:10;stroke-dasharray:11.7519,11.7519;}
	.st20{fill:none;stroke:#1E252B;stroke-width:2;stroke-miterlimit:10;}
	.st21{fill:none;stroke:#A9ACAD;stroke-width:2;stroke-miterlimit:10;}
	.st22{fill:none;stroke:#A9ACAD;stroke-width:3;stroke-miterlimit:10;stroke-dasharray:13.5281,13.5281;}
	.st23{fill:none;stroke:#A9ACAD;stroke-width:3;stroke-miterlimit:10;stroke-dasharray:11.7136,11.7136;}
	.st24{fill:#5C6670;}
	.st25{font-family:'OpenSans-Bold';}
	.st26{font-size:11.217px;}
	.st27{fill:none;stroke:#5C6670;stroke-width:3;stroke-miterlimit:10;}
	.st28{fill:none;stroke:#1E252B;stroke-width:2;stroke-miterlimit:10;stroke-dasharray:9.6393,9.6393;}
	.st29{fill:#69C9BA;}
	.st30{fill:none;stroke:#1E252B;stroke-width:2;stroke-miterlimit:10;stroke-dasharray:8.4316,8.4316;}
	.st31{fill:#CCCCCC;}
	.st32{fill:#333E48;}
	.st33{fill:#003764;}
	.st34{opacity:0.4;fill:#FFFFFF;}
	.st35{opacity:0.5;fill:#CCCCCC;}
	.st36{opacity:0.6;fill:#FFFFFF;}
	.st37{font-size:14.1859px;}
	.st38{font-size:16.2723px;}
	.st39{opacity:0.7;fill:#A4A9AD;}
	.st40{fill:#A4A9AD;}
	.st41{fill:#FFA400;}
	.st42{fill:none;stroke:#333E48;stroke-width:2;stroke-miterlimit:10;}
	.st43{fill:#A66B00;}
	.st44{opacity:0.5;fill:#A4A9AD;}
	.st45{opacity:0.6;fill:#A4A9AD;}
	.st46{fill:#FF5959;}
	.st47{fill:#D1D3D3;}
	.st48{fill:none;stroke:#7D868C;stroke-width:3;stroke-miterlimit:10;}
	.st49{fill:none;stroke:#1E252B;stroke-width:3;stroke-miterlimit:10;}
	.st50{fill:none;stroke:#FFFFFF;stroke-width:2;stroke-miterlimit:10;}
	.st51{fill:none;stroke:#FFFFFF;stroke-width:2;stroke-miterlimit:10;stroke-dasharray:3.5999,3.5999;}
	.st52{fill:none;stroke:#FFFFFF;stroke-width:2;stroke-miterlimit:10;stroke-dasharray:6.3071,6.3071;}
	.st53{fill:none;stroke:#FFFFFF;stroke-width:5;stroke-miterlimit:10;}
	.st54{fill:none;stroke:#FFFFFF;stroke-width:3;stroke-miterlimit:10;}
	.st55{opacity:0.4;fill:#A4A9AD;}
	.st56{fill:none;stroke:#69C9BA;stroke-miterlimit:10;}
	.st57{fill:none;stroke:#A7C5EE;stroke-width:3;stroke-miterlimit:10;stroke-dasharray:12.4887,12.4887;}
	.st58{font-size:23.4315px;}
	.st59{fill:#455A64;}
	.st60{fill:#FF5252;stroke:#FFFFFF;stroke-width:6;stroke-miterlimit:10;}
</style>
<path class="st0" d="M469,168.3H31c-0.5,0-1-0.4-1-1v-2c0-0.5,0.4-1,1-1h438c0.5,0,1,0.4,1,1v2C470,167.9,469.6,168.3,469,168.3z"/>
<g>
	<path class="st1" d="M61.1,81h-4.9l-0.5-5.7H41.1L40.6,81h-4.9V70.3h2.5c1.2-3.5,1.9-6.9,2.4-10.4c0.5-3.3,2.3-5,5.9-5h11.2v15.4
		h3.4V81z M50.8,59.7h-1.8c-1,0-1.7,0.5-1.8,1.6c-0.6,3.8-1.3,6.6-2.3,9h6V59.7z"/>
	<path class="st1" d="M78.4,75.4v-9.1c0-1.2,0.1-2.3,0.3-3.6h-0.2c-0.4,1.1-1.1,2.5-1.6,3.4l-6.4,9.3H64V54.9h6.6v9.6
		c0,1.1-0.1,2-0.3,3.2h0.2c0.4-1.1,0.9-2.1,1.6-3l6.5-9.8H85v20.4H78.4z"/>
	<path class="st1" d="M88.7,55.4c2.8-0.9,5.8-1,7.6-1c7.5,0,10.5,0.7,10.5,5.6c0,3.2-1.3,4.5-4.4,4.8v0.2c3.8,0.3,5.2,2,5.2,5.3
		c0,5-3.3,5.6-9.8,5.6c-3.2,0-6.4-0.2-9.7-0.9l0.5-4.9c3.2,0.3,6.3,0.5,8.7,0.5c2.1,0,2.7-0.1,2.7-1.6c0-1.3-0.5-1.5-2.7-1.6
		l-6.4-0.1v-4.4l6.4-0.1c1.8,0,2.3-0.2,2.3-1.4c0-1.2-0.5-1.4-2.7-1.4c-2.7,0-5.4,0.2-7.6,0.5L88.7,55.4z"/>
	<path class="st1" d="M111.1,55.4c3-0.6,8.2-1,11.2-1c5.5,0,8.5,1.9,8.5,8v13h-5.9l-0.7-3c-1.4,1.7-3.7,3.5-7.3,3.5
		c-3.8,0-6.8-2-6.8-5.8v-2c0-3.2,2.5-5.2,6.5-5.2h6.8v-0.5c0-1.7-0.7-2.3-2.8-2.3c-2,0-5.3,0.1-8.7,0.3L111.1,55.4z M117.3,69
		c0,1.1,0.7,1.6,2,1.6c1.2,0,2.6-0.5,4-1.4v-2.5h-4.3c-1.2,0-1.7,0.7-1.7,1.6V69z"/>
	<path class="st1" d="M149.4,75.4v-9.1c0-1.2,0.1-2.3,0.3-3.6h-0.2c-0.4,1.1-1.1,2.5-1.6,3.4l-6.4,9.3H135V54.9h6.6v9.6
		c0,1.1-0.1,2-0.3,3.2h0.2c0.4-1.1,0.9-2.1,1.6-3l6.5-9.8h6.5v20.4H149.4z M152.6,45.9c0.5,3.5-2.3,6.8-7.1,6.8
		c-4.8,0-7.6-3.3-7.1-6.8h4.7c-0.2,2.5,0.7,3.3,2.4,3.3c1.7,0,2.6-0.8,2.4-3.3H152.6z"/>
	<path class="st1" d="M181.3,75.3H174v-8.2h-6.2v8.2h-7.3V54.9h7.3v7.2h6.2v-7.2h7.3V75.3z"/>
	<path class="st1" d="M208.8,75.4v-9.1c0-1.2,0.1-2.3,0.3-3.6h-0.2c-0.4,1.1-1.1,2.5-1.6,3.4l-6.4,9.3h-6.5V54.9h6.6v9.6
		c0,1.1-0.1,2-0.3,3.2h0.2c0.4-1.1,0.9-2.1,1.6-3l6.5-9.8h6.5v20.4H208.8z"/>
	<path class="st1" d="M235.2,57.8c1.4-1.9,4.6-3.4,7.8-3.4c5.2,0,7.2,4,7.2,10.9c0,8.2-2.7,10.5-7.7,10.5c-2.5,0-4.8-0.5-6.5-1.8
		c0.1,1.4,0.2,3,0.1,4.4v4.5h-7.4v-28h6L235.2,57.8z M236,70.1c1.1,0.3,2.1,0.7,3.6,0.7c2.1,0,2.9-0.7,2.9-5.4
		c0-4.6-0.8-5.4-2.7-5.4c-1.6,0-2.5,0.5-3.8,1.3V70.1z"/>
	<path class="st1" d="M253.8,55.4c3-0.6,8.2-1,11.2-1c5.5,0,8.5,1.9,8.5,8v13h-5.9l-0.7-3c-1.4,1.7-3.7,3.5-7.3,3.5
		c-3.8,0-6.8-2-6.8-5.8v-2c0-3.2,2.5-5.2,6.5-5.2h6.8v-0.5c0-1.7-0.7-2.3-2.8-2.3c-2.1,0-5.3,0.1-8.7,0.3L253.8,55.4z M260.1,69
		c0,1.1,0.7,1.6,2,1.6c1.2,0,2.6-0.5,4-1.4v-2.5h-4.3c-1.2,0-1.7,0.7-1.7,1.6V69z"/>
	<path class="st1" d="M277,55.4c2.8-0.9,5.8-1,7.6-1c7.5,0,10.5,0.7,10.5,5.6c0,3.2-1.3,4.5-4.4,4.8v0.2c3.8,0.3,5.2,2,5.2,5.3
		c0,5-3.3,5.6-9.8,5.6c-3.2,0-6.4-0.2-9.7-0.9L277,70c3.2,0.3,6.3,0.5,8.7,0.5c2.1,0,2.7-0.1,2.7-1.6c0-1.3-0.5-1.5-2.7-1.6
		l-6.4-0.1v-4.4l6.4-0.1c1.8,0,2.3-0.2,2.3-1.4c0-1.2-0.5-1.4-2.7-1.4c-2.7,0-5.4,0.2-7.6,0.5L277,55.4z"/>
	<path class="st1" d="M305.9,57.8c1.4-1.9,4.6-3.4,7.8-3.4c5.2,0,7.2,4,7.2,10.9c0,8.2-2.7,10.5-7.7,10.5c-2.5,0-4.8-0.5-6.5-1.8
		c0.1,1.4,0.2,3,0.1,4.4v4.5h-7.4v-28h6L305.9,57.8z M306.8,70.1c1.1,0.3,2.1,0.7,3.6,0.7c2.1,0,2.9-0.7,2.9-5.4
		c0-4.6-0.8-5.4-2.7-5.4c-1.6,0-2.5,0.5-3.8,1.3V70.1z"/>
	<path class="st1" d="M324.6,55.4c3-0.6,8.2-1,11.2-1c5.5,0,8.5,1.9,8.5,8v13h-5.9l-0.7-3c-1.4,1.7-3.7,3.5-7.3,3.5
		c-3.8,0-6.8-2-6.8-5.8v-2c0-3.2,2.5-5.2,6.5-5.2h6.8v-0.5c0-1.7-0.7-2.3-2.8-2.3c-2.1,0-5.3,0.1-8.7,0.3L324.6,55.4z M330.8,69
		c0,1.1,0.7,1.6,2,1.6c1.2,0,2.6-0.5,4-1.4v-2.5h-4.3c-1.2,0-1.7,0.7-1.7,1.6V69z"/>
	<path class="st1" d="M368.6,50.6c-3.9,2.1-7.1,1-10.5,1.9c-2.2,0.6-3.2,1.7-3.7,2.8c-0.6,1-0.7,2-0.9,3h0.2
		c1.6-1.8,3.5-2.8,7.1-2.8c6.7,0,8.9,2.8,8.9,9.6c0,7.1-2.6,10.5-10.5,10.5c-10.7,0-11.2-5.8-11.2-13.2c0-7.8,1.2-13.2,7.5-15.4
		c4.2-1.4,8-0.5,11.9-2.2L368.6,50.6z M355.7,65.2c0,4.3,0.7,5.3,3.1,5.3s3.1-1,3.1-5.3c0-4.1-0.6-5-3-5
		C356.2,60.2,355.7,61.3,355.7,65.2z"/>
	<path class="st1" d="M394.3,65.1c0,7.8-3,10.7-10.9,10.7c-8,0-11-2.8-11-10.7c0-7.9,3-10.8,11-10.8
		C391.4,54.4,394.3,57.3,394.3,65.1z M380.2,65.1c0,4.5,0.7,5.5,3.2,5.5c2.5,0,3.2-1,3.2-5.5c0-4.5-0.7-5.5-3.2-5.5
		C380.9,59.6,380.2,60.6,380.2,65.1z"/>
	<path class="st1" d="M410.2,60.6v14.8h-7.4V60.6h-6.5v-5.6h20.3v5.6H410.2z"/>
	<path class="st1" d="M432.7,64.8c4.8,0.7,4.9,0.9,7.7,10.5h-7.7c-2.1-7.5-2.3-8-4.5-8.1h-1.6c0.2,0.6,0.2,1.1,0.2,1.6v6.4h-7.4
		V54.9h7.4v4.8c0,0.8-0.1,1.7-0.3,2.6h0.9c2.9,0,3-0.6,4.8-7.4h7.5c-2.6,8.6-2.3,9-7.1,9.7V64.8z"/>
	<path class="st1" d="M443.3,55.4c3-0.6,8.2-1,11.2-1c5.5,0,8.5,1.9,8.5,8v13H457l-0.7-3c-1.4,1.7-3.7,3.5-7.3,3.5
		c-3.8,0-6.8-2-6.8-5.8v-2c0-3.2,2.5-5.2,6.5-5.2h6.8v-0.5c0-1.7-0.7-2.3-2.8-2.3c-2.1,0-5.3,0.1-8.7,0.3L443.3,55.4z M449.5,69
		c0,1.1,0.7,1.6,2,1.6c1.2,0,2.6-0.5,4-1.4v-2.5h-4.3c-1.2,0-1.7,0.7-1.7,1.6V69z"/>
	<path class="st1" d="M96,124.6v-9.1c0-1.2,0.1-2.3,0.3-3.6h-0.2c-0.4,1.1-1.1,2.5-1.6,3.4l-6.4,9.3h-6.5v-20.4h6.6v9.6
		c0,1.1-0.1,2-0.3,3.2h0.2c0.4-1.1,0.9-2.1,1.6-3l6.5-9.8h6.5v20.4H96z"/>
	<path class="st1" d="M127.9,124.5h-7.3v-8.2h-6.2v8.2h-7.3v-20.4h7.3v7.2h6.2v-7.2h7.3V124.5z"/>
	<path class="st1" d="M144.7,109.8v14.8h-7.4v-14.8h-6.5v-5.6h20.3v5.6H144.7z"/>
	<path class="st1" d="M160.9,116.3c0.4,2.3,1.4,3,4.1,3c1.7,0,4.8-0.1,8-0.5l0.7,4.6c-2.7,1.4-6.1,1.7-9.5,1.7
		c-8.2,0-11.2-3.4-11.2-10.6c0-8,3.1-10.9,11-10.9c7.3,0,10.2,2.5,10.2,7.2c0,3.7-1.8,5.5-7.1,5.5H160.9z M165,112.4
		c1.8,0,2-0.5,2-1.8c0-1.6-0.7-2-2.7-2c-2.5,0-3.3,0.5-3.4,3.8H165z"/>
	<path class="st1" d="M184.2,107c1.4-1.9,4.6-3.4,7.8-3.4c5.2,0,7.2,4,7.2,10.9c0,8.2-2.7,10.5-7.7,10.5c-2.5,0-4.8-0.5-6.5-1.8
		c0.1,1.4,0.2,3,0.1,4.4v4.5h-7.4v-28h6L184.2,107z M185,119.3c1.1,0.3,2.1,0.7,3.6,0.7c2.1,0,2.9-0.7,2.9-5.4
		c0-4.6-0.8-5.4-2.7-5.4c-1.6,0-2.5,0.5-3.8,1.3V119.3z"/>
	<path class="st1" d="M223.6,124.5h-7.3v-8.2h-6.2v8.2h-7.3v-20.4h7.3v7.2h6.2v-7.2h7.3V124.5z"/>
	<path class="st1" d="M235.1,116.3c0.4,2.3,1.4,3,4.1,3c1.7,0,4.8-0.1,8-0.5l0.7,4.6c-2.7,1.4-6.1,1.7-9.5,1.7
		c-8.2,0-11.2-3.4-11.2-10.6c0-8,3.1-10.9,11-10.9c7.3,0,10.2,2.5,10.2,7.2c0,3.7-1.8,5.5-7.1,5.5H235.1z M239.2,112.4
		c1.8,0,2-0.5,2-1.8c0-1.6-0.7-2-2.7-2c-2.5,0-3.3,0.5-3.4,3.8H239.2z"/>
	<path class="st1" d="M264.1,109.8v14.8h-7.4v-14.8h-6.5v-5.6h20.3v5.6H264.1z"/>
	<path class="st1" d="M300.2,123.4c-2.3,1.1-5.5,1.6-8.4,1.6c-7.7,0-10.5-2.8-10.5-10.7s2.8-10.7,10.6-10.7c2.3,0,5.7,0.3,8.1,1.4
		l-0.8,4.6l-6,0c-3.1,0-4.1,1-4.1,4.8s1,4.8,4.1,4.8c1.4,0,4,0,6.4-0.3L300.2,123.4z"/>
	<path class="st1" d="M303.4,104.6c3-0.6,8.2-1,11.2-1c5.5,0,8.5,1.9,8.5,8v13h-5.9l-0.7-3c-1.4,1.7-3.7,3.5-7.3,3.5
		c-3.8,0-6.8-2-6.8-5.8v-2c0-3.2,2.5-5.2,6.5-5.2h6.8v-0.5c0-1.7-0.7-2.3-2.8-2.3c-2.1,0-5.3,0.1-8.7,0.3L303.4,104.6z M309.6,118.2
		c0,1.1,0.7,1.6,2,1.6c1.2,0,2.6-0.5,4-1.4v-2.5h-4.3c-1.2,0-1.7,0.7-1.7,1.6V118.2z"/>
	<path class="st1" d="M341.6,124.6v-9.1c0-1.2,0.1-2.3,0.3-3.6h-0.2c-0.4,1.1-1.1,2.5-1.6,3.4l-6.4,9.3h-6.5v-20.4h6.6v9.6
		c0,1.1-0.1,2-0.3,3.2h0.2c0.4-1.1,0.9-2.1,1.6-3l6.5-9.8h6.5v20.4H341.6z M344.8,95.1c0.5,3.5-2.3,6.8-7.1,6.8s-7.6-3.3-7.1-6.8
		h4.7c-0.2,2.5,0.7,3.3,2.4,3.3s2.6-0.8,2.4-3.3H344.8z"/>
	<path class="st1" d="M365,109.8v14.8h-7.4v-14.8h-6.5v-5.6h20.3v5.6H365z"/>
	<path class="st1" d="M395.3,114.3c0,7.8-3,10.7-10.9,10.7c-8,0-11-2.8-11-10.7c0-7.9,3-10.8,11-10.8
		C392.3,103.6,395.3,106.5,395.3,114.3z M381.2,114.3c0,4.5,0.7,5.5,3.2,5.5c2.5,0,3.2-1,3.2-5.5c0-4.5-0.7-5.5-3.2-5.5
		C381.8,108.8,381.2,109.8,381.2,114.3z"/>
	<path class="st1" d="M414.1,114.1c3.9,0.3,5.3,2.1,5.3,5.4c0,4.3-2.7,5.4-8.8,5.4c-5.2,0-8.3,0-11.8-0.2l0-20.5
		c3.1-0.2,5.9-0.2,10.5-0.2c6.8,0,9.2,1.1,9.2,5.4c0,2.9-1.3,4.4-4.5,4.6V114.1z M409.2,112.1c1.9,0,2.4-0.4,2.4-1.8
		s-0.6-1.7-2.6-1.7l-3.2,0v3.5H409.2z M409.3,120c2,0,2.7-0.4,2.7-2c0-1.6-0.7-2-2.7-2h-3.4v4.1H409.3z"/>
</g>
<g>
	<path class="st1" d="M112.2,232.8h-4l-0.4-4.6H96.1l-0.4,4.6h-4v-8.6h2c1-2.8,1.6-5.5,1.9-8.4c0.4-2.6,1.8-4,4.8-4h9v12.4h2.7
		V232.8z M103.9,215.6h-1.5c-0.8,0-1.4,0.4-1.5,1.3c-0.5,3.1-1.1,5.3-1.9,7.2h4.8V215.6z"/>
	<path class="st1" d="M126.1,228.2v-7.4c0-1,0.1-1.8,0.2-2.9h-0.1c-0.3,0.9-0.9,2-1.3,2.7l-5.1,7.5h-5.2v-16.4h5.3v7.7
		c0,0.9-0.1,1.6-0.2,2.5h0.1c0.3-0.9,0.8-1.7,1.3-2.4l5.2-7.9h5.2v16.4H126.1z"/>
	<path class="st1" d="M134.5,212.2c2.2-0.7,4.7-0.8,6.1-0.8c6,0,8.4,0.6,8.4,4.5c0,2.6-1,3.6-3.6,3.8v0.1c3,0.2,4.2,1.6,4.2,4.3
		c0,4-2.7,4.5-7.9,4.5c-2.6,0-5.1-0.1-7.8-0.7l0.4-4c2.5,0.3,5,0.4,7,0.4c1.7,0,2.1-0.1,2.1-1.3c0-1-0.4-1.2-2.2-1.3l-5.1-0.1v-3.5
		l5.1-0.1c1.5,0,1.8-0.2,1.8-1.2c0-1-0.4-1.1-2.2-1.1c-2.1,0-4.3,0.2-6.1,0.4L134.5,212.2z"/>
	<path class="st1" d="M152.5,212.2c2.4-0.5,6.6-0.8,9-0.8c4.4,0,6.9,1.5,6.9,6.4v10.5h-4.8l-0.6-2.4c-1.1,1.4-3,2.8-5.8,2.8
		c-3,0-5.5-1.6-5.5-4.7v-1.6c0-2.6,2-4.2,5.2-4.2h5.4v-0.4c0-1.4-0.6-1.9-2.3-1.9c-1.7,0-4.3,0.1-7,0.2L152.5,212.2z M157.5,223.1
		c0,0.9,0.5,1.3,1.6,1.3c1,0,2.1-0.4,3.2-1.1v-2h-3.4c-1,0-1.4,0.5-1.4,1.3V223.1z"/>
	<path class="st1" d="M183.3,228.2v-7.4c0-1,0.1-1.8,0.2-2.9h-0.1c-0.3,0.9-0.9,2-1.3,2.7l-5.1,7.5h-5.2v-16.4h5.3v7.7
		c0,0.9-0.1,1.6-0.2,2.5h0.1c0.3-0.9,0.8-1.7,1.3-2.4l5.2-7.9h5.2v16.4H183.3z M185.8,204.5c0.4,2.8-1.8,5.4-5.7,5.4
		c-3.9,0-6.1-2.6-5.7-5.4h3.8c-0.2,2,0.5,2.6,1.9,2.6s2.1-0.6,1.9-2.6H185.8z"/>
	<path class="st1" d="M209,228.2h-5.9v-6.6h-5v6.6h-5.9v-16.4h5.9v5.8h5v-5.8h5.9V228.2z"/>
	<path class="st1" d="M224.8,214.1c1.2-1.5,3.7-2.7,6.3-2.7c4.2,0,5.8,3.2,5.8,8.8c0,6.6-2.1,8.4-6.2,8.4c-2,0-3.8-0.4-5.2-1.5
		c0.1,1.2,0.1,2.4,0.1,3.6v3.6h-6v-22.5h4.8L224.8,214.1z M225.5,224c0.9,0.3,1.7,0.6,2.9,0.6c1.7,0,2.3-0.6,2.3-4.3
		c0-3.7-0.6-4.4-2.1-4.4c-1.3,0-2,0.4-3.1,1V224z"/>
	<path class="st1" d="M245.5,221.6c0.3,1.8,1.2,2.4,3.3,2.4c1.4,0,3.9-0.1,6.4-0.4l0.6,3.7c-2.1,1.1-5,1.4-7.7,1.4
		c-6.6,0-9-2.7-9-8.5c0-6.5,2.5-8.7,8.9-8.7c5.9,0,8.2,2,8.2,5.8c0,3-1.5,4.4-5.7,4.4H245.5z M248.8,218.5c1.4,0,1.6-0.4,1.6-1.5
		c0-1.3-0.6-1.6-2.2-1.6c-2,0-2.7,0.4-2.8,3.1H248.8z"/>
	<path class="st1" d="M269.6,219.8c3.9,0.6,4,0.7,6.2,8.4h-6.2c-1.7-6-1.8-6.5-3.6-6.5h-1.3c0.1,0.5,0.2,0.9,0.2,1.3v5.2h-6v-16.4h6
		v3.9c0,0.7-0.1,1.4-0.2,2.1h0.7c2.3,0,2.4-0.5,3.9-5.9h6c-2.1,6.9-1.8,7.2-5.7,7.8V219.8z"/>
	<path class="st1" d="M294.5,228.2h-6v-12.4h-1.4c-1,0-1.5,0.4-1.6,1.4c-0.3,2.5-0.7,5.3-1,6.9c-0.7,4.1-3.9,4.9-7.5,4.3l-0.6-4.4
		c1.5-0.2,2.4-0.2,2.8-1.5c0.3-1.2,0.6-3.4,0.9-6.4c0.2-2.8,1.7-4.2,4.5-4.2h9.9V228.2z"/>
	<path class="st1" d="M298.1,212.2c2.4-0.5,6.6-0.8,9-0.8c4.4,0,6.9,1.5,6.9,6.4v10.5h-4.8l-0.6-2.4c-1.1,1.4-3,2.8-5.8,2.8
		c-3,0-5.5-1.6-5.5-4.7v-1.6c0-2.6,2-4.2,5.2-4.2h5.4v-0.4c0-1.4-0.6-1.9-2.3-1.9c-1.7,0-4.3,0.1-7,0.2L298.1,212.2z M303.1,223.1
		c0,0.9,0.5,1.3,1.6,1.3c1,0,2.1-0.4,3.2-1.1v-2h-3.4c-1,0-1.4,0.5-1.4,1.3V223.1z"/>
	<path class="st1" d="M338.1,211.8c1.4,0,2,0.7,2,2l0.4,14.4h-5.4l-0.4-12h-0.4l-1.9,8c-0.2,1.2-1,1.8-2.2,1.8h-2.7
		c-1.3,0-2-0.6-2.3-1.8l-1.9-8h-0.4l-0.3,12h-5.4l0.4-14.4c0-1.4,0.7-2,2.1-2h5.1c1.2,0,2,0.6,2.2,1.8l1.5,6.1
		c0.2,0.8,0.2,1.6,0.3,2.4h0.3c0.1-0.8,0.2-1.6,0.3-2.4l1.4-6.1c0.2-1.2,1-1.8,2.2-1.8H338.1z"/>
	<path class="st1" d="M360.7,228.2h-5.9v-6.6h-5v6.6h-5.9v-16.4h5.9v5.8h5v-5.8h5.9V228.2z"/>
	<path class="st1" d="M371.8,217.2c6.1,0,8.1,1.3,8.1,5.6c0,4.4-2.1,5.6-7,5.6c-3.8,0-5.9,0-8.4-0.2h-0.2v-16.4h5.8v5.4H371.8z
		 M371.8,224.4c1.7,0,2-0.3,2-1.9c0-1.6-0.3-1.9-2-1.9H370v3.8H371.8z M387.6,228.2h-6v-16.4h6V228.2z"/>
	<path class="st1" d="M399,221.6l-3.6,6.6h-6l4.9-8.4l-4.5-8h6l3.2,6.1l3.2-6.1h6l-4.5,8l4.9,8.4h-6L399,221.6z"/>
	<path class="st1" d="M53.6,251.4c1.4,0,2,0.7,2,2l0.4,14.4h-5.4l-0.4-12h-0.4l-1.9,8c-0.2,1.2-1,1.8-2.2,1.8H43
		c-1.3,0-2-0.6-2.3-1.8l-1.9-8h-0.4l-0.3,12h-5.4l0.4-14.4c0-1.4,0.7-2,2.1-2h5.1c1.2,0,2,0.6,2.2,1.8l1.5,6.1
		c0.2,0.8,0.2,1.6,0.3,2.4h0.3c0.1-0.8,0.2-1.6,0.3-2.4l1.4-6.1c0.2-1.2,1-1.8,2.2-1.8H53.6z"/>
	<path class="st1" d="M59.4,251.8c2.4-0.5,6.6-0.8,9-0.8c4.4,0,6.9,1.5,6.9,6.4v10.5h-4.8l-0.6-2.4c-1.1,1.4-3,2.8-5.8,2.8
		c-3,0-5.5-1.6-5.5-4.7v-1.6c0-2.6,2-4.2,5.2-4.2h5.4v-0.4c0-1.4-0.6-1.9-2.3-1.9c-1.7,0-4.3,0.1-7,0.2L59.4,251.8z M64.4,262.7
		c0,0.9,0.5,1.3,1.6,1.3c1,0,2.1-0.4,3.2-1.1v-2h-3.4c-1,0-1.4,0.5-1.4,1.3V262.7z"/>
	<path class="st1" d="M88.6,255.9v11.9h-6v-11.9h-5.2v-4.5h16.4v4.5H88.6z"/>
	<path class="st1" d="M101.7,261.2c0.3,1.8,1.2,2.4,3.3,2.4c1.4,0,3.9-0.1,6.4-0.4l0.6,3.7c-2.1,1.1-5,1.4-7.7,1.4
		c-6.6,0-9-2.7-9-8.5c0-6.5,2.5-8.7,8.9-8.7c5.9,0,8.2,2,8.2,5.8c0,3-1.5,4.4-5.7,4.4H101.7z M104.9,258.1c1.4,0,1.6-0.4,1.6-1.5
		c0-1.3-0.6-1.6-2.2-1.6c-2,0-2.7,0.4-2.8,3.1H104.9z"/>
	<path class="st1" d="M120.3,253.7c1.2-1.5,3.7-2.7,6.3-2.7c4.2,0,5.8,3.2,5.8,8.8c0,6.6-2.1,8.4-6.2,8.4c-2,0-3.8-0.4-5.2-1.5
		c0.1,1.2,0.1,2.4,0.1,3.6v3.6h-6v-22.5h4.8L120.3,253.7z M121,263.6c0.9,0.3,1.7,0.6,2.9,0.6c1.7,0,2.3-0.6,2.3-4.3
		c0-3.7-0.6-4.4-2.1-4.4c-1.3,0-2,0.4-3.1,1V263.6z"/>
	<path class="st1" d="M146.9,267.8v-7.4c0-1,0.1-1.8,0.2-2.9H147c-0.3,0.9-0.9,2-1.3,2.7l-5.1,7.5h-5.2v-16.4h5.3v7.7
		c0,0.9-0.1,1.6-0.2,2.5h0.1c0.3-0.9,0.8-1.7,1.3-2.4l5.2-7.9h5.2v16.4H146.9z"/>
	<path class="st1" d="M155.8,251.8c2.4-0.5,6.6-0.8,9-0.8c4.4,0,6.9,1.5,6.9,6.4v10.5h-4.8l-0.6-2.4c-1.1,1.4-3,2.8-5.8,2.8
		c-3,0-5.5-1.6-5.5-4.7v-1.6c0-2.6,2-4.2,5.2-4.2h5.4v-0.4c0-1.4-0.6-1.9-2.3-1.9c-1.7,0-4.3,0.1-7,0.2L155.8,251.8z M160.8,262.7
		c0,0.9,0.5,1.3,1.6,1.3c1,0,2.1-0.4,3.2-1.1v-2h-3.4c-1,0-1.4,0.5-1.4,1.3V262.7z"/>
	<path class="st1" d="M191.5,267.8h-6v-12.4h-1.4c-1,0-1.5,0.4-1.6,1.4c-0.3,2.5-0.7,5.3-1,6.9c-0.7,4.1-3.9,4.9-7.5,4.3l-0.6-4.4
		c1.5-0.2,2.4-0.2,2.8-1.5c0.3-1.2,0.6-3.4,0.9-6.4c0.2-2.8,1.7-4.2,4.5-4.2h9.9V267.8z"/>
	<path class="st1" d="M212.1,259.6c0,6.3-2.4,8.6-8.8,8.6c-6.5,0-8.8-2.3-8.8-8.6c0-6.3,2.4-8.7,8.8-8.7
		C209.7,250.9,212.1,253.3,212.1,259.6z M200.7,259.6c0,3.6,0.5,4.4,2.6,4.4c2,0,2.5-0.8,2.5-4.4c0-3.6-0.5-4.5-2.5-4.5
		C201.2,255.2,200.7,256,200.7,259.6z"/>
	<path class="st1" d="M227.2,259.4c3.1,0.2,4.3,1.7,4.3,4.3c0,3.4-2.2,4.3-7.1,4.3c-4.2,0-6.7,0-9.5-0.2l0-16.5
		c2.5-0.2,4.7-0.2,8.5-0.2c5.5,0,7.4,0.9,7.4,4.4c0,2.3-1,3.5-3.6,3.7V259.4z M223.3,257.8c1.5,0,1.9-0.3,1.9-1.4
		c0-1.1-0.5-1.4-2.1-1.4l-2.6,0v2.8H223.3z M223.4,264.2c1.6,0,2.1-0.3,2.1-1.7c0-1.3-0.6-1.6-2.2-1.6h-2.7v3.3H223.4z"/>
	<path class="st1" d="M252.8,267.8v-7.4c0-1,0.1-1.8,0.2-2.9h-0.1c-0.3,0.9-0.9,2-1.3,2.7l-5.1,7.5h-5.2v-16.4h5.3v7.7
		c0,0.9-0.1,1.6-0.2,2.5h0.1c0.3-0.9,0.8-1.7,1.3-2.4l5.2-7.9h5.2v16.4H252.8z"/>
	<path class="st1" d="M285.3,267.8h-5.8v-12.4h-4.9v12.4h-5.8v-16.4h16.6V267.8z"/>
	<path class="st1" d="M305.8,259.6c0,6.3-2.4,8.6-8.8,8.6c-6.5,0-8.8-2.3-8.8-8.6c0-6.3,2.4-8.7,8.8-8.7
		C303.4,250.9,305.8,253.3,305.8,259.6z M294.4,259.6c0,3.6,0.5,4.4,2.6,4.4c2,0,2.5-0.8,2.5-4.4c0-3.6-0.5-4.5-2.5-4.5
		C294.9,255.2,294.4,256,294.4,259.6z"/>
	<path class="st1" d="M324.9,267.8h-6v-12.4h-1.4c-1,0-1.5,0.4-1.6,1.4c-0.3,2.5-0.7,5.3-1,6.9c-0.7,4.1-3.9,4.9-7.5,4.3l-0.6-4.4
		c1.5-0.2,2.4-0.2,2.8-1.5c0.3-1.2,0.6-3.4,0.9-6.4c0.2-2.8,1.7-4.2,4.5-4.2h9.9V267.8z"/>
	<path class="st1" d="M340,267.8v-7.4c0-1,0.1-1.8,0.2-2.9h-0.1c-0.3,0.9-0.9,2-1.3,2.7l-5.1,7.5h-5.2v-16.4h5.3v7.7
		c0,0.9-0.1,1.6-0.2,2.5h0.1c0.3-0.9,0.8-1.7,1.3-2.4l5.2-7.9h5.2v16.4H340z"/>
	<path class="st1" d="M348.9,255.3c0-2.8,1.5-4.2,4.5-4.2c3.2,0,6.9,0,9.6,0.5l-0.3,4.2h-6.6c-0.9,0-1.3,0.3-1.3,1.2v10.7h-5.9
		V255.3z"/>
	<path class="st1" d="M370.3,253.7c1.2-1.5,3.7-2.7,6.3-2.7c4.2,0,5.8,3.2,5.8,8.8c0,6.6-2.1,8.4-6.2,8.4c-2,0-3.8-0.4-5.2-1.5
		c0.1,1.2,0.1,2.4,0.1,3.6v3.6h-6v-22.5h4.8L370.3,253.7z M371,263.6c0.9,0.3,1.7,0.6,2.9,0.6c1.7,0,2.3-0.6,2.3-4.3
		c0-3.7-0.6-4.4-2.1-4.4c-1.3,0-2,0.4-3.1,1V263.6z"/>
	<path class="st1" d="M385.3,251.8c2.4-0.5,6.6-0.8,9-0.8c4.4,0,6.9,1.5,6.9,6.4v10.5h-4.8l-0.6-2.4c-1.1,1.4-3,2.8-5.8,2.8
		c-3,0-5.5-1.6-5.5-4.7v-1.6c0-2.6,2-4.2,5.2-4.2h5.4v-0.4c0-1.4-0.6-1.9-2.3-1.9c-1.7,0-4.3,0.1-7,0.2L385.3,251.8z M390.3,262.7
		c0,0.9,0.5,1.3,1.6,1.3c1,0,2.1-0.4,3.2-1.1v-2h-3.4c-1,0-1.4,0.5-1.4,1.3V262.7z"/>
	<path class="st1" d="M418.1,251c6.4,0.5,8.9,3,8.9,8.6c0,5.6-2.5,8-8.9,8.5v5.8h-5.4v-5.8c-6.4-0.5-8.9-2.9-8.9-8.5
		c0-5.6,2.4-8.1,8.9-8.6v-6.3h5.4V251z M413,255c-2.7,0.4-3.5,1.5-3.5,4.6c0,3,0.8,4.2,3.5,4.5V255z M417.8,264.1
		c2.7-0.3,3.5-1.5,3.5-4.5c0-3.1-0.8-4.2-3.5-4.6V264.1z"/>
	<path class="st1" d="M441.4,267.8v-7.4c0-1,0.1-1.8,0.2-2.9h-0.1c-0.3,0.9-0.9,2-1.3,2.7l-5.1,7.5h-5.2v-16.4h5.3v7.7
		c0,0.9-0.1,1.6-0.2,2.5h0.1c0.3-0.9,0.8-1.7,1.3-2.4l5.2-7.9h5.2v16.4H441.4z"/>
	<path class="st1" d="M461.8,267.8v-7.4c0-1,0.1-1.8,0.2-2.9h-0.1c-0.3,0.9-0.9,2-1.3,2.7l-5.1,7.5h-5.2v-16.4h5.3v7.7
		c0,0.9-0.1,1.6-0.2,2.5h0.1c0.3-0.9,0.8-1.7,1.3-2.4l5.2-7.9h5.2v16.4H461.8z"/>
</g>
<g>
	<g>
		<g>
			<polyline class="st2" points="189.3,358.6 189.3,364.6 195.3,364.6 			"/>
			<line class="st3" x1="205.6" y1="364.6" x2="221" y2="364.6"/>
			<polyline class="st2" points="226.1,364.6 232.1,364.6 232.1,358.6 			"/>
			<line class="st4" x1="232.1" y1="351.8" x2="232.1" y2="341.7"/>
			<polyline class="st2" points="232.1,338.3 232.1,332.3 226.1,332.3 			"/>
			<line class="st3" x1="215.8" y1="332.3" x2="200.4" y2="332.3"/>
			<polyline class="st2" points="195.3,332.3 189.3,332.3 189.3,338.3 			"/>
			<line class="st4" x1="189.3" y1="345.1" x2="189.3" y2="355.2"/>
		</g>
	</g>
	<g>
		<g>
			<polyline class="st2" points="188.7,629.5 188.7,635.5 182.7,635.5 			"/>
			<line class="st5" x1="171.5" y1="635.5" x2="132.5" y2="635.5"/>
			<polyline class="st2" points="126.9,635.5 120.9,635.5 120.9,629.5 			"/>
			<line class="st6" x1="120.9" y1="618.2" x2="120.9" y2="601.1"/>
			<polyline class="st2" points="120.9,595.4 120.9,589.4 126.9,589.4 			"/>
			<line class="st5" x1="138.1" y1="589.4" x2="177.1" y2="589.4"/>
			<polyline class="st2" points="182.7,589.4 188.7,589.4 188.7,595.4 			"/>
			<line class="st6" x1="188.7" y1="606.8" x2="188.7" y2="623.8"/>
		</g>
	</g>
	<g>
		<circle class="st7" cx="120.5" cy="406.2" r="59.6"/>
	</g>
	<circle class="st8" cx="60.9" cy="396.2" r="21.5"/>
	<g>
		<g>
			<g>
				<polyline class="st2" points="408.1,432.4 408.1,438.4 402.1,438.4 				"/>
				<line class="st9" x1="390.2" y1="438.4" x2="253.4" y2="438.4"/>
				<polyline class="st2" points="247.5,438.4 241.5,438.4 241.5,432.4 				"/>
				<line class="st10" x1="241.5" y1="418.9" x2="241.5" y2="345"/>
				<polyline class="st2" points="241.5,338.3 241.5,332.3 247.5,332.3 				"/>
				<line class="st9" x1="259.4" y1="332.3" x2="396.2" y2="332.3"/>
				<polyline class="st2" points="402.1,332.3 408.1,332.3 408.1,338.3 				"/>
				<line class="st10" x1="408.1" y1="351.7" x2="408.1" y2="425.6"/>
			</g>
		</g>
		<rect x="248.4" y="339.9" class="st11" width="78.4" height="34.5"/>
		<rect x="332.9" y="359.6" class="st12" width="67.1" height="14.8"/>
		<rect x="332.9" y="339.9" class="st11" width="67.1" height="13.8"/>
		<rect x="248.4" y="380.5" class="st13" width="35.4" height="35.2"/>
	</g>
	<g>
		<path class="st14" d="M378.5,406.2H120.5c-5.4,0-9.8,4.4-9.8,9.8v158.2h277.5V416C388.3,410.6,383.9,406.2,378.5,406.2z"/>
		<rect x="125.2" y="420.7" class="st15" width="248.6" height="139.1"/>
		<g>
			<g>
				<circle class="st16" cx="319.1" cy="489.9" r="35.4"/>
			</g>
			<path class="st17" d="M233.3,559.8c0-9.6-7.8-17.3-17.3-17.3c-9.6,0-17.3,7.8-17.3,17.3H233.3z"/>
			<g>
				<g>
					<polyline class="st18" points="354.5,436.6 354.5,442.6 348.5,442.6 					"/>
					<line class="st19" x1="336.8" y1="442.6" x2="295.6" y2="442.6"/>
					<polyline class="st18" points="289.8,442.6 283.8,442.6 283.8,436.6 					"/>
					<polyline class="st18" points="283.8,435.4 283.8,429.4 289.8,429.4 					"/>
					<line class="st19" x1="301.5" y1="429.4" x2="342.6" y2="429.4"/>
					<polyline class="st18" points="348.5,429.4 354.5,429.4 354.5,435.4 					"/>
				</g>
			</g>
			<g>
				<g>
					<polyline class="st20" points="180.4,428.9 186.4,428.9 186.4,438.3 180.4,438.3 					"/>
					<polyline class="st20" points="162.8,438.3 156.8,438.3 156.8,428.9 162.8,428.9 					"/>
				</g>
			</g>
			<g>
				<rect x="125.2" y="540" class="st13" width="16.3" height="19.8"/>
				<rect x="125.2" y="536.5" class="st14" width="16.3" height="3.6"/>
				<g>
					<line class="st21" x1="141.5" y1="420.7" x2="141.5" y2="559.8"/>
					<line class="st21" x1="141.5" y1="438.3" x2="125.2" y2="438.3"/>
					<line class="st21" x1="141.5" y1="454" x2="125.2" y2="454"/>
					<line class="st21" x1="141.5" y1="469.7" x2="125.2" y2="469.7"/>
					<line class="st21" x1="141.5" y1="485.4" x2="125.2" y2="485.4"/>
					<line class="st21" x1="141.5" y1="501.2" x2="125.2" y2="501.2"/>
					<line class="st21" x1="141.5" y1="516.9" x2="125.2" y2="516.9"/>
				</g>
				<g>
					<line class="st21" x1="137.6" y1="426.9" x2="127.9" y2="426.9"/>
					<line class="st21" x1="137.6" y1="429.4" x2="127.9" y2="429.4"/>
					<line class="st21" x1="137.6" y1="431.8" x2="127.9" y2="431.8"/>
				</g>
			</g>
			<g>
				<g>
					<polyline class="st18" points="258.2,515.6 258.2,521.6 252.2,521.6 					"/>
					<line class="st22" x1="238.6" y1="521.6" x2="164.2" y2="521.6"/>
					<polyline class="st18" points="157.5,521.6 151.5,521.6 151.5,515.6 					"/>
					<line class="st23" x1="151.5" y1="503.9" x2="151.5" y2="486.3"/>
					<polyline class="st18" points="151.5,480.5 151.5,474.5 157.5,474.5 					"/>
					<line class="st22" x1="171" y1="474.5" x2="245.4" y2="474.5"/>
					<polyline class="st18" points="252.2,474.5 258.2,474.5 258.2,480.5 					"/>
					<line class="st23" x1="258.2" y1="492.2" x2="258.2" y2="509.7"/>
				</g>
			</g>
			<g>
				<g>
					<text transform="matrix(1 0 0 1 186.9634 458.0344)" class="st24 st25 st26">400 px</text>
				</g>
				<g>
					<line class="st27" x1="151.5" y1="464.2" x2="258.2" y2="464.2"/>
					<line class="st27" x1="151.5" y1="467.4" x2="151.5" y2="461"/>
					<line class="st27" x1="258.2" y1="467.4" x2="258.2" y2="461"/>
				</g>
			</g>
			<g>
				<circle class="st28" cx="287" cy="504.8" r="12.3"/>
			</g>
			<circle class="st29" cx="239.9" cy="537.6" r="6.2"/>
			<g>
				<circle class="st30" cx="270.4" cy="454.6" r="8.1"/>
			</g>
			<circle class="st24" cx="333.5" cy="541.1" r="8.1"/>
		</g>
		<path class="st11" d="M110.8,595.2c0,5.4,4.4,9.8,9.8,9.8h257.9c5.4,0,9.8-4.4,9.8-9.8v-21H110.8V595.2z"/>
		<circle class="st14" cx="249.5" cy="589.6" r="4.2"/>
		<rect x="224.4" y="605" class="st13" width="50.2" height="27.3"/>
		<rect x="224.4" y="605" class="st31" width="50.2" height="8.4"/>
		<g>
			<circle class="st32" cx="249.5" cy="413.6" r="1.1"/>
			<circle class="st14" cx="249.5" cy="413.6" r="0.9"/>
			<circle class="st33" cx="249.5" cy="413.6" r="0.7"/>
			<circle class="st14" cx="249.5" cy="413.6" r="0.5"/>
			<circle class="st34" cx="249.9" cy="413.2" r="0.4"/>
		</g>
		<rect x="210.4" y="632.3" class="st11" width="78.3" height="6.5"/>
		<path class="st35" d="M120.5,406.2c-5.4,0-9.8,4.4-9.8,9.8v179.2c0,5.4,4.4,9.8,9.8,9.8h103.9v27.3h-14.1v6.5h39.1V406.2H120.5z"
			/>
		<path class="st36" d="M125.2,505.2l54.6,54.6H223L125.2,462V505.2z M338.2,420.7H248l125.9,125.9v-90.2L338.2,420.7z"/>
	</g>
	<g>
		<text transform="matrix(1 0 0 1 407.291 477.5012)" class="st24 st25 st37">800 px</text>
	</g>
	<g>
		<line class="st27" x1="400.2" y1="420.7" x2="400.2" y2="559.8"/>
		<line class="st27" x1="393.3" y1="420.7" x2="407" y2="420.7"/>
		<line class="st27" x1="393.3" y1="559.8" x2="407" y2="559.8"/>
	</g>
	<g>
		<path class="st29" d="M456.8,495.1h-38.9c-2.3,0-4.1,1.9-4.1,4.1v19.1c0,2.3,1.9,4.1,4.1,4.1h13.8c0,0,0,0.1,0.1,0.1l3.8,7.6
			c1,2,2.7,2,3.7,0l3.8-7.6c0,0,0-0.1,0.1-0.1h13.8c2.3,0,4.1-1.9,4.1-4.1v-19.1C460.9,496.9,459.1,495.1,456.8,495.1z"/>
		<text transform="matrix(1 0 0 1 420.7266 514.5042)" class="st14 st25 st38">70%</text>
		<path class="st39" d="M417.9,495.1c-2.3,0-4.1,1.9-4.1,4.1v19.1c0,2.3,1.9,4.1,4.1,4.1h13.8c0,0,0,0.1,0.1,0.1l3.8,7.6
			c0.5,1,1.2,1.5,1.8,1.5v-36.6H417.9z"/>
	</g>
	<g>
		<g>
			<path class="st12" d="M469.7,596.6c0-2.9-2.4-5.3-5.3-5.3h-132c-2.9,0-5.3,2.4-5.3,5.3v17.3c0,2.9,2.4,5.3,5.3,5.3h132
				c2.9,0,5.3-2.4,5.3-5.3V596.6z"/>
			<path class="st40" d="M379.7,619.1c0-12.1-9.8-21.8-21.8-21.8c-12.1,0-21.8,9.8-21.8,21.8H379.7z"/>
			<path class="st40" d="M413.7,619.1c0-12.1,9.8-21.8,21.8-21.8c12.1,0,21.8,9.8,21.8,21.8H413.7z"/>
			<rect x="385.3" y="599.3" class="st14" width="24.4" height="11.8"/>
		</g>
		<g>
			<circle class="st14" cx="357.9" cy="619.1" r="19.6"/>
			<circle class="st41" cx="357.9" cy="619.1" r="9.5"/>
			<path class="st40" d="M357.9,599.5c-10.8,0-19.6,8.8-19.6,19.6c0,10.8,8.8,19.6,19.6,19.6V599.5z"/>
		</g>
		<g>
			<circle class="st14" cx="435.6" cy="619.1" r="19.6"/>
			<circle class="st41" cx="435.6" cy="619.1" r="9.5"/>
			<path class="st40" d="M435.6,638.8c-10.8,0-19.6-8.8-19.6-19.6c0-10.8,8.8-19.6,19.6-19.6V638.8z"/>
		</g>
		<g>
			<g>
				<line class="st42" x1="322.3" y1="467.4" x2="322.3" y2="441"/>
				<g>
					<path class="st14" d="M322.3,480.8c-2.3,0-4.1-1.8-4.1-4.1c0-0.5,0.4-0.9,0.9-0.9c0.5,0,0.9,0.4,0.9,0.9c0,1.3,1.1,2.3,2.3,2.3
						c1.3,0,2.3-1.1,2.3-2.3c0-1.3-1.1-2.3-2.3-2.3c-0.5,0-0.9-0.4-0.9-0.9V471c0-0.5,0.4-0.9,0.9-0.9c0.5,0,0.9,0.4,0.9,0.9v1.6
						c1.8,0.4,3.2,2.1,3.2,4C326.4,479,324.6,480.8,322.3,480.8z"/>
					<circle class="st14" cx="322.3" cy="467.4" r="4.7"/>
				</g>
			</g>
			
				<rect x="379.2" y="427.9" transform="matrix(0.792 -0.6105 0.6105 0.792 -228.5075 344.289)" class="st41" width="23.6" height="159.2"/>
			
				<rect x="379.2" y="427.9" transform="matrix(0.792 -0.6105 0.6105 0.792 -228.5075 344.289)" class="st41" width="23.6" height="159.2"/>
			
				<rect x="379.2" y="427.9" transform="matrix(0.792 -0.6105 0.6105 0.792 -228.5075 344.289)" class="st41" width="23.6" height="159.2"/>
			<g>
				
					<rect x="337.1" y="451.7" transform="matrix(0.792 -0.6105 0.6105 0.792 -203.9223 307.217)" class="st43" width="23.6" height="2.4"/>
				
					<rect x="365.1" y="488" transform="matrix(0.792 -0.6105 0.6105 0.792 -220.2465 331.8241)" class="st43" width="23.6" height="2.4"/>
				
					<rect x="393.1" y="524.2" transform="matrix(0.792 -0.6105 0.6105 0.792 -236.5707 356.4314)" class="st43" width="23.6" height="2.4"/>
			</g>
			<g>
				<circle class="st43" cx="397.5" cy="525.3" r="1"/>
				<circle class="st43" cx="406.3" cy="518.6" r="1"/>
			</g>
			<g>
				<circle class="st43" cx="403.2" cy="532.5" r="1"/>
				<circle class="st43" cx="411.9" cy="525.8" r="1"/>
			</g>
			<g>
				<circle class="st43" cx="369.7" cy="488.9" r="1"/>
				<circle class="st43" cx="378.4" cy="482.2" r="1"/>
			</g>
			<g>
				<circle class="st43" cx="375.3" cy="496.1" r="1"/>
				<circle class="st43" cx="384" cy="489.4" r="1"/>
			</g>
			<g>
				<circle class="st43" cx="341.8" cy="452.7" r="1"/>
				<circle class="st43" cx="350.5" cy="446" r="1"/>
			</g>
			<g>
				<circle class="st43" cx="347.4" cy="459.8" r="1"/>
				<circle class="st43" cx="356.1" cy="453.1" r="1"/>
			</g>
			<path class="st39" d="M426.6,558.4l-7.7-16.8c-1.8-3.9-6.4-6.9-10.8-6.9h-11l29.4,38.1l0.7-1.8
				C428.5,567.3,428.3,561.9,426.6,558.4z"/>
			<polygon class="st40" points="444.3,557.3 414.5,557.3 430.3,577.7 449,563.3 			"/>
			
				<rect x="322.2" y="435.5" transform="matrix(0.792 -0.6105 0.6105 0.792 -201.4528 290.567)" class="st14" width="7.1" height="10.9"/>
			
				<rect x="327.8" y="429.7" transform="matrix(0.792 -0.6105 0.6105 0.792 -197.196 297.0799)" class="st14" width="19.2" height="16.4"/>
		</g>
		<g>
			<rect x="419.4" y="560.4" class="st41" width="37.2" height="14"/>
			<path class="st40" d="M427.1,560.4h-7.8v14h6.3l1.3-3.5C428,567.9,428.1,563.7,427.1,560.4z"/>
		</g>
		<g>
			<rect x="456.6" y="562.4" class="st41" width="4.4" height="12"/>
			<rect x="456.6" y="562.4" class="st40" width="1.7" height="12"/>
		</g>
		<g>
			<rect x="413.7" y="574.3" class="st24" width="48.4" height="16.9"/>
			<polygon class="st40" points="413.7,574.3 413.7,591.2 419.4,591.2 425.7,574.3 			"/>
			<rect x="413.7" y="587.7" class="st40" width="48.4" height="3.6"/>
		</g>
		<g>
			<path class="st41" d="M415.9,591.2l7.9-21.5c1-2.7,0.8-7.2-0.4-9.8l-7.7-16.8c-1.2-2.7-4.6-4.8-7.5-4.8h-33.9
				c-2.9,0-6.2,2.2-7.2,5l-10.5,28.5c-1,2.7-0.7,7.1,0.8,9.6l5.6,9.9H415.9z"/>
			<path class="st43" d="M366.1,585.9l-4.1-7.2c-0.7-1.2-0.9-3.9-0.4-5.1l10.5-28.5c0.2-0.6,1.5-1.5,2.2-1.5h20.6
				c0.9,0,2.4,0.7,2.4,3c0,2.3,0.5,19.9,0,21.4l-6.6,18H366.1z"/>
			<path class="st44" d="M374.3,538.3c-2.9,0-6.2,2.2-7.2,5l-10.5,28.5c-1,2.7-0.7,7.1,0.8,9.6l5.6,9.9h27.2v-53H374.3z"/>
			<path class="st15" d="M367.3,583.9l-3.5-6.2c-0.4-0.7-0.5-2.7-0.3-3.5l10.4-28.3c0.1-0.1,0.3-0.3,0.5-0.3h20.5
				c0.2,0,0.4,0.3,0.4,1c0,0.5,0,1.8,0.1,3.5c0.1,4.3,0.3,15.6,0,17.2l-6.1,16.6H367.3z"/>
			<path class="st43" d="M367.8,562.4l-0.9,2.4h28.5c0-0.7,0-1.5,0-2.4H367.8z"/>
			<polygon class="st45" points="361,587.7 363,591.2 415.9,591.2 417.2,587.7 			"/>
		</g>
	</g>
	<g>
		<circle class="st46" cx="322.3" cy="513.9" r="36.4"/>
		<path class="st39" d="M322.3,477.5c-20.1,0-36.4,16.3-36.4,36.4c0,20.1,16.3,36.4,36.4,36.4V477.5z"/>
	</g>
	<g>
		<circle class="st46" cx="145.9" cy="336.6" r="19.5"/>
		<path class="st15" d="M148.8,336.6l6.1-6.1c0.8-0.8,0.8-2.1,0-2.9c-0.8-0.8-2.1-0.8-2.9,0l-6.1,6.1l-6.1-6.1
			c-0.8-0.8-2.1-0.8-2.9,0c-0.8,0.8-0.8,2.1,0,2.9l6.1,6.1l-6.1,6.1c-0.8,0.8-0.8,2.1,0,2.9c0.4,0.4,0.9,0.6,1.5,0.6
			c0.5,0,1.1-0.2,1.5-0.6l6.1-6.1l6.1,6.1c0.4,0.4,0.9,0.6,1.5,0.6c0.5,0,1.1-0.2,1.5-0.6c0.8-0.8,0.8-2.1,0-2.9L148.8,336.6z"/>
		<path class="st47" d="M145.9,317.1c-10.8,0-19.5,8.8-19.5,19.5c0,10.8,8.8,19.5,19.5,19.5V317.1z"/>
	</g>
	<g>
		<circle class="st29" cx="185" cy="371.7" r="19.5"/>
		<path class="st15" d="M181.6,381.3c-0.5,0-1.1-0.2-1.5-0.6l-6.7-6.7c-0.8-0.8-0.8-2.1,0-2.9c0.8-0.8,2.1-0.8,2.9,0l5.2,5.2
			l11.9-11.9c0.8-0.8,2.1-0.8,2.9,0c0.8,0.8,0.8,2.1,0,2.9L183,380.7C182.6,381.1,182.1,381.3,181.6,381.3z"/>
		<path class="st47" d="M185,352.1c-10.8,0-19.5,8.8-19.5,19.5c0,10.8,8.8,19.5,19.5,19.5V352.1z"/>
	</g>
	<g>
		<circle class="st15" cx="112.7" cy="378.1" r="19.5"/>
		<path class="st47" d="M112.7,358.5c-10.8,0-19.5,8.8-19.5,19.5c0,10.8,8.8,19.5,19.5,19.5V358.5z"/>
		<circle class="st48" cx="112.7" cy="378.1" r="19.5"/>
		<path class="st12" d="M123.4,377l-7.8-7.8c-0.6-0.6-1.5-0.6-2.1,0c-0.6,0.6-0.6,1.5,0,2.1l5.3,5.3h-16.5c-0.8,0-1.5,0.7-1.5,1.5
			c0,0.8,0.7,1.5,1.5,1.5h16.5l-5.3,5.3c-0.6,0.6-0.6,1.5,0,2.1c0.3,0.3,0.7,0.4,1,0.4c0.4,0,0.8-0.1,1-0.4l7.8-7.8
			C124,378.5,124,377.6,123.4,377z"/>
	</g>
	<g>
		<rect x="93.4" y="526.6" class="st29" width="105.1" height="22.6"/>
		<g>
			<line class="st49" x1="97.3" y1="526.6" x2="97.3" y2="533.5"/>
			<line class="st49" x1="101.6" y1="526.6" x2="101.6" y2="533.5"/>
			<line class="st49" x1="105.8" y1="526.6" x2="105.8" y2="533.5"/>
			<line class="st49" x1="110" y1="526.6" x2="110" y2="540"/>
		</g>
		<g>
			<line class="st49" x1="114.3" y1="526.6" x2="114.3" y2="533.5"/>
			<line class="st49" x1="118.5" y1="526.6" x2="118.5" y2="533.5"/>
			<line class="st49" x1="122.7" y1="526.6" x2="122.7" y2="533.5"/>
			<line class="st49" x1="127" y1="526.6" x2="127" y2="540"/>
		</g>
		<g>
			<line class="st49" x1="131.2" y1="526.6" x2="131.2" y2="533.5"/>
			<line class="st49" x1="135.4" y1="526.6" x2="135.4" y2="533.5"/>
			<line class="st49" x1="139.7" y1="526.6" x2="139.7" y2="533.5"/>
			<line class="st49" x1="143.9" y1="526.6" x2="143.9" y2="540"/>
		</g>
		<g>
			<line class="st49" x1="148.1" y1="526.6" x2="148.1" y2="533.5"/>
			<line class="st49" x1="152.4" y1="526.6" x2="152.4" y2="533.5"/>
			<line class="st49" x1="156.6" y1="526.6" x2="156.6" y2="533.5"/>
			<line class="st49" x1="160.8" y1="526.6" x2="160.8" y2="540"/>
		</g>
		<g>
			<line class="st49" x1="165.1" y1="526.6" x2="165.1" y2="533.5"/>
			<line class="st49" x1="169.3" y1="526.6" x2="169.3" y2="533.5"/>
			<line class="st49" x1="173.5" y1="526.6" x2="173.5" y2="533.5"/>
			<line class="st49" x1="177.7" y1="526.6" x2="177.7" y2="540"/>
		</g>
		<g>
			<line class="st49" x1="182" y1="526.6" x2="182" y2="533.5"/>
			<line class="st49" x1="186.2" y1="526.6" x2="186.2" y2="533.5"/>
			<line class="st49" x1="190.4" y1="526.6" x2="190.4" y2="533.5"/>
			<line class="st49" x1="194.7" y1="526.6" x2="194.7" y2="540"/>
		</g>
		<rect x="93.4" y="526.6" class="st39" width="52.5" height="22.6"/>
	</g>
	<g>
		<rect x="48" y="435.9" class="st46" width="43.6" height="36.2"/>
		<rect x="48" y="435.9" class="st39" width="21.8" height="36.2"/>
	</g>
	<g>
		<rect x="36.7" y="444.8" class="st29" width="48.6" height="40.2"/>
		<g>
			<g>
				<polyline class="st50" points="57.7,471.5 57.7,474 55.2,474 				"/>
				<line class="st51" x1="51.6" y1="474" x2="46.2" y2="474"/>
				<polyline class="st50" points="44.4,474 41.9,474 41.9,471.5 				"/>
				<line class="st52" x1="41.9" y1="465.2" x2="41.9" y2="455.8"/>
				<polyline class="st50" points="41.9,452.6 41.9,450.1 44.4,450.1 				"/>
				<line class="st51" x1="48" y1="450.1" x2="53.4" y2="450.1"/>
				<polyline class="st50" points="55.2,450.1 57.7,450.1 57.7,452.6 				"/>
				<line class="st52" x1="57.7" y1="458.9" x2="57.7" y2="468.4"/>
			</g>
		</g>
		<line class="st53" x1="62.7" y1="451.4" x2="81.3" y2="451.4"/>
		<line class="st54" x1="62.7" y1="459.4" x2="81.3" y2="459.4"/>
		<line class="st54" x1="62.7" y1="463.8" x2="81.3" y2="463.8"/>
		<line class="st54" x1="62.7" y1="468.3" x2="81.3" y2="468.3"/>
		<line class="st54" x1="62.7" y1="472.7" x2="81.3" y2="472.7"/>
		<rect x="36.7" y="444.8" class="st39" width="24.3" height="40.2"/>
	</g>
	<g>
		<g>
			<g>
				<path class="st24" d="M85.6,616.1c-0.3,0-0.5-0.1-0.7-0.2l-41.8-19.5c-0.9-0.4-1.3-1.5-0.9-2.4c0.4-0.9,1.5-1.3,2.4-0.9
					l41.8,19.5c0.9,0.4,1.3,1.5,0.9,2.4C86.9,615.7,86.3,616.1,85.6,616.1z"/>
				<path class="st12" d="M43.8,616.1c-0.7,0-1.3-0.4-1.6-1c-0.4-0.9,0-1.9,0.9-2.4l41.8-19.5c0.9-0.4,1.9,0,2.4,0.9
					c0.4,0.9,0,1.9-0.9,2.4l-41.8,19.5C44.3,616,44.1,616.1,43.8,616.1z"/>
			</g>
			<g>
				<path class="st24" d="M85.6,596.5c-0.3,0-0.5-0.1-0.7-0.2l-41.8-19.5c-0.9-0.4-1.3-1.5-0.9-2.4c0.4-0.9,1.5-1.3,2.4-0.9
					l41.8,19.5c0.9,0.4,1.3,1.5,0.9,2.4C86.9,596.2,86.3,596.5,85.6,596.5z"/>
				<path class="st12" d="M43.8,596.5c-0.7,0-1.3-0.4-1.6-1c-0.4-0.9,0-1.9,0.9-2.4l41.8-19.5c0.9-0.4,1.9,0,2.4,0.9
					c0.4,0.9,0,1.9-0.9,2.4l-41.8,19.5C44.3,596.5,44.1,596.5,43.8,596.5z"/>
			</g>
			<g>
				<path class="st24" d="M85.6,577c-0.3,0-0.5-0.1-0.7-0.2l-41.8-19.5c-0.9-0.4-1.3-1.5-0.9-2.4c0.4-0.9,1.5-1.3,2.4-0.9l41.8,19.5
					c0.9,0.4,1.3,1.5,0.9,2.4C86.9,576.6,86.3,577,85.6,577z"/>
				<path class="st12" d="M43.8,577c-0.7,0-1.3-0.4-1.6-1c-0.4-0.9,0-1.9,0.9-2.4l41.8-19.5c0.9-0.4,1.9,0,2.4,0.9
					c0.4,0.9,0,1.9-0.9,2.4l-41.8,19.5C44.3,576.9,44.1,577,43.8,577z"/>
			</g>
			<g>
				<path class="st24" d="M85.6,557.4c-0.3,0-0.5-0.1-0.7-0.2l-41.8-19.5c-0.9-0.4-1.3-1.5-0.9-2.4c0.4-0.9,1.5-1.3,2.4-0.9
					l41.8,19.5c0.9,0.4,1.3,1.5,0.9,2.4C86.9,557.1,86.3,557.4,85.6,557.4z"/>
				<path class="st12" d="M43.8,557.4c-0.7,0-1.3-0.4-1.6-1c-0.4-0.9,0-1.9,0.9-2.4l41.8-19.5c0.9-0.4,1.9,0,2.4,0.9
					c0.4,0.9,0,1.9-0.9,2.4l-41.8,19.5C44.3,557.4,44.1,557.4,43.8,557.4z"/>
			</g>
			<g>
				<path class="st24" d="M85.6,537.9c-0.3,0-0.5-0.1-0.7-0.2l-41.8-19.5c-0.9-0.4-1.3-1.5-0.9-2.4c0.4-0.9,1.5-1.3,2.4-0.9
					l41.8,19.5c0.9,0.4,1.3,1.5,0.9,2.4C86.9,537.5,86.3,537.9,85.6,537.9z"/>
				<path class="st12" d="M43.8,537.9c-0.7,0-1.3-0.4-1.6-1c-0.4-0.9,0-1.9,0.9-2.4L84.9,515c0.9-0.4,1.9,0,2.4,0.9
					c0.4,0.9,0,1.9-0.9,2.4l-41.8,19.5C44.3,537.8,44.1,537.9,43.8,537.9z"/>
			</g>
			<g>
				<path class="st24" d="M85.6,518.3c-0.3,0-0.5-0.1-0.7-0.2l-41.8-19.5c-0.9-0.4-1.3-1.5-0.9-2.4c0.4-0.9,1.5-1.3,2.4-0.9
					L86.4,515c0.9,0.4,1.3,1.5,0.9,2.4C86.9,518,86.3,518.3,85.6,518.3z"/>
				<path class="st12" d="M43.8,518.3c-0.7,0-1.3-0.4-1.6-1c-0.4-0.9,0-1.9,0.9-2.4l41.8-19.5c0.9-0.4,1.9,0,2.4,0.9
					c0.4,0.9,0,1.9-0.9,2.4l-41.8,19.5C44.3,518.3,44.1,518.3,43.8,518.3z"/>
			</g>
		</g>
		<g>
			<g>
				<g>
					<path class="st12" d="M34.4,486.5c-0.8,0-1.5-0.7-1.5-1.5v-17c0-0.8,0.7-1.5,1.5-1.5s1.5,0.7,1.5,1.5v17
						C35.9,485.8,35.2,486.5,34.4,486.5z"/>
					<path class="st12" d="M49.6,486.5c-0.8,0-1.5-0.7-1.5-1.5v-17c0-0.8,0.7-1.5,1.5-1.5c0.8,0,1.5,0.7,1.5,1.5v17
						C51,485.8,50.4,486.5,49.6,486.5z"/>
					<path class="st12" d="M64.7,486.5c-0.8,0-1.5-0.7-1.5-1.5v-17c0-0.8,0.7-1.5,1.5-1.5c0.8,0,1.5,0.7,1.5,1.5v17
						C66.2,485.8,65.5,486.5,64.7,486.5z"/>
					<path class="st12" d="M79.9,486.5c-0.8,0-1.5-0.7-1.5-1.5v-17c0-0.8,0.7-1.5,1.5-1.5c0.8,0,1.5,0.7,1.5,1.5v17
						C81.4,485.8,80.7,486.5,79.9,486.5z"/>
					<path class="st12" d="M95,486.5c-0.8,0-1.5-0.7-1.5-1.5v-17c0-0.8,0.7-1.5,1.5-1.5s1.5,0.7,1.5,1.5v17
						C96.5,485.8,95.9,486.5,95,486.5z"/>
				</g>
				<path class="st24" d="M97.7,469.5H31.8c-0.8,0-1.5-0.7-1.5-1.5c0-0.8,0.7-1.5,1.5-1.5h65.9c0.8,0,1.5,0.7,1.5,1.5
					C99.1,468.8,98.5,469.5,97.7,469.5z"/>
				<path class="st24" d="M97.7,478.6H31.8c-0.8,0-1.5-0.7-1.5-1.5c0-0.8,0.7-1.5,1.5-1.5h65.9c0.8,0,1.5,0.7,1.5,1.5
					C99.1,477.9,98.5,478.6,97.7,478.6z"/>
			</g>
			<g>
				<rect x="31.3" y="485" class="st41" width="66.8" height="9.9"/>
				<g>
					<rect x="44" y="485" class="st43" width="2.6" height="9.9"/>
					<rect x="63.4" y="485" class="st43" width="2.6" height="9.9"/>
					<rect x="82.8" y="485" class="st43" width="2.6" height="9.9"/>
				</g>
				<rect x="31.3" y="485" class="st45" width="33.4" height="9.9"/>
			</g>
			<g>
				<rect x="34.1" y="494.9" class="st14" width="61.3" height="5.5"/>
				<rect x="34.1" y="494.9" class="st39" width="30.6" height="5.5"/>
				<rect x="34.1" y="494.9" class="st40" width="61.3" height="2.8"/>
			</g>
		</g>
		<g>
			<rect x="31.3" y="607.6" class="st41" width="66.8" height="13.2"/>
			<rect x="31.3" y="607.6" class="st45" width="33.4" height="13.2"/>
		</g>
		<g>
			<rect x="34.1" y="602.1" class="st14" width="61.3" height="5.5"/>
			<rect x="34.1" y="602.1" class="st39" width="30.6" height="5.5"/>
			<rect x="34.1" y="604.8" class="st40" width="61.3" height="2.8"/>
		</g>
		<g>
			<circle class="st14" cx="47" cy="626.8" r="12"/>
			<circle class="st41" cx="47" cy="626.8" r="5.8"/>
			<path class="st40" d="M47,614.8c-6.6,0-12,5.4-12,12s5.4,12,12,12V614.8z"/>
		</g>
		<g>
			<circle class="st14" cx="82.4" cy="626.8" r="12"/>
			<circle class="st41" cx="82.4" cy="626.8" r="5.8"/>
			<path class="st40" d="M82.4,614.8c-6.6,0-12,5.4-12,12s5.4,12,12,12V614.8z"/>
		</g>
	</g>
	<rect x="137.5" y="586.5" class="st39" width="38.1" height="13.4"/>
	<g>
		<rect x="139.2" y="584.7" class="st15" width="38.1" height="13.4"/>
		<rect x="139.2" y="584.7" class="st55" width="19" height="13.4"/>
		<rect x="141.5" y="587.6" class="st46" width="14.9" height="3.3"/>
	</g>
	<g>
		<rect x="137.5" y="617.7" class="st46" width="34.7" height="12.2"/>
		<rect x="137.5" y="617.7" class="st40" width="17.1" height="12.2"/>
		<rect x="139.6" y="620.3" class="st15" width="13.6" height="3"/>
		<rect x="139.6" y="624.9" class="st15" width="13.6" height="3"/>
	</g>
	<g>
		<rect x="127.5" y="608.1" class="st29" width="34.7" height="12.2"/>
		<rect x="127.5" y="608.1" class="st39" width="17.3" height="12.2"/>
		<rect x="129.6" y="610.6" class="st14" width="13.6" height="3"/>
	</g>
	<g>
		<circle class="st56" cx="168.3" cy="589.9" r="6.3"/>
		<circle class="st56" cx="168.3" cy="589.9" r="3.3"/>
	</g>
	<g>
		<path class="st14" d="M178.2,610.2l7,0.3l-16.8-20.6l-0.8,26.6l5.4-4.6l4.5,13.4c0.2,0.5,0.7,0.8,1.3,0.6l3.3-1.1
			c0.5-0.2,0.8-0.8,0.6-1.3L178.2,610.2z"/>
		<path class="st40" d="M168.3,589.9l-0.8,26.6l5.4-4.6l4.5,13.4c0.2,0.5,0.7,0.8,1.3,0.6l1.6-0.6L168.3,589.9z"/>
	</g>
	<g>
		<g>
			<g>
				<polyline class="st2" points="376.9,392.3 376.9,386.3 370.9,386.3 				"/>
				<line class="st57" x1="358.4" y1="386.3" x2="339.7" y2="386.3"/>
				<polyline class="st2" points="333.4,386.3 327.4,386.3 327.4,392.3 				"/>
				<polyline class="st2" points="327.4,403.8 327.4,409.8 333.4,409.8 				"/>
				<line class="st57" x1="345.9" y1="409.8" x2="364.6" y2="409.8"/>
				<polyline class="st2" points="370.9,409.8 376.9,409.8 376.9,403.8 				"/>
			</g>
		</g>
		<g>
			<circle class="st46" cx="321.9" cy="398.1" r="17.3"/>
			<text transform="matrix(1 0 0 1 315.0986 406.2024)" class="st15 st25 st58">5</text>
			<path class="st39" d="M321.9,380.8c-9.6,0-17.3,7.7-17.3,17.3c0,9.6,7.7,17.3,17.3,17.3V380.8z"/>
		</g>
		<rect x="343.1" y="392.6" class="st12" width="28.9" height="2.4"/>
		<rect x="343.1" y="398.6" class="st12" width="28.9" height="2.4"/>
	</g>
	<g>
		<rect x="419.7" y="392.2" class="st8" width="37.7" height="61.2"/>
		<rect x="425.4" y="402" class="st29" width="26.3" height="6.4"/>
		<rect x="425.4" y="413.8" class="st46" width="26.3" height="6.4"/>
		<rect x="425.4" y="425.6" class="st17" width="26.3" height="6.4"/>
		<rect x="425.4" y="437.4" class="st12" width="26.3" height="6.4"/>
	</g>
</g>
<g>
	<rect x="30" y="681" class="st59" width="440" height="105"/>
	<rect x="135.3" y="685" class="st15" width="330.7" height="97"/>
	<g>
		<path class="st59" d="M150.8,702.3h24.4v1.5l-21.4,29.6h21.4v3.3h-26.3V735l21.1-29.5h-19.2V702.3z"/>
		<path class="st59" d="M203.9,712.5h3.1c0,8.1,0,16.2,0,24.3h-3.1V732c-2.1,3.6-6,5.3-9.7,5.3c-6.9,0-12.4-4.9-12.4-12.7
			c0-7.7,5.6-12.5,12.5-12.5c3.7,0,7.7,1.7,9.6,5.2V712.5z M185.1,724.6c0,5.8,4.1,9.6,9.3,9.6c12.6,0,12.6-19.1,0-19.1
			C189.3,715.1,185.1,718.9,185.1,724.6z"/>
		<path class="st59" d="M217.1,748.4v-35.9h3.2l0.1,5.2c1.9-3.4,5.6-5.6,9.8-5.6c6.8,0.2,12,4.9,12,12.6c0,7.9-5.2,12.7-12.3,12.7
			c-3.7,0-7.6-1.7-9.6-5.4v16.5H217.1z M238.9,724.6c0-6.1-3.9-9.4-9.2-9.4c-5.4,0-9.1,4-9.1,9.4c0,5.4,3.9,9.4,9.1,9.4
			C234.9,734.1,238.9,730.7,238.9,724.6z"/>
		<path class="st59" d="M271.3,712.5h3.1c0,8.1,0,16.2,0,24.3h-3.1V732c-2.1,3.6-6,5.3-9.7,5.3c-6.9,0-12.4-4.9-12.4-12.7
			c0-7.7,5.6-12.5,12.5-12.5c3.7,0,7.7,1.7,9.6,5.2V712.5z M252.5,724.6c0,5.8,4.1,9.6,9.3,9.6c12.6,0,12.6-19.1,0-19.1
			C256.7,715.1,252.5,718.9,252.5,724.6z"/>
		<path class="st59" d="M297.6,702.3c11.7,0,17.3,8.4,17.3,16.9c0,8.7-5.2,17.6-17.3,17.6c-4,0-8.2,0-12.2,0v-34.5H297.6z
			 M288.9,733.6h8.7c9.6,0,13.9-7.5,13.8-14.4c-0.1-6.7-4.5-13.6-13.8-13.6h-8.7V733.6z"/>
		<path class="st59" d="M325.6,726c0.4,5.1,4.4,8.1,9.2,8.1c3,0,6.5-1.2,8.2-3.3l2.2,2c-2.4,3-6.6,4.5-10.4,4.5
			c-7.2,0-12.6-4.9-12.6-12.7c0-7.3,5.2-12.6,12.5-12.6s13,4.4,12.1,14H325.6z M343.7,723.2c-0.1-5.3-4.1-8.2-9-8.2s-8.5,3-9.1,8.2
			H343.7z"/>
		<path class="st59" d="M371,717.4c-2.3-2.1-4.6-2.5-7.2-2.5c-3.5,0-6.7,1.2-6.6,3.9c0,2.9,3.6,3.5,6.6,4c4.4,0.6,10,1.4,10,7.3
			c-0.1,5.1-5.1,7.1-10,7.1c-4.2,0-8.3-1.4-10.8-4.7l2.1-2.3c2.1,2.8,5.7,3.9,8.8,3.9c2.8,0,6.6-0.8,6.6-4.1c0-3.2-3.2-3.8-7-4.3
			c-4.7-0.7-9.6-1.8-9.6-6.8c0-5,5-7.1,9.8-7c3.6,0,6.6,1,9.2,3.3L371,717.4z"/>
		<path class="st59" d="M386.2,704.8c0,3.1-4.7,3.1-4.7,0C381.5,701.7,386.2,701.7,386.2,704.8z M382.1,712.4v24.4h3.3v-24.4H382.1z
			"/>
		<path class="st59" d="M416.6,710.8l2.3,1.9l-2.6,3.1c1.8,2,3.2,4.2,3.2,8.1c0,4.3-2.4,8.8-7.3,10.2c4.6,1.2,7.2,3.9,7.2,8
			c0,6.1-6.1,9.3-12.5,9.3c-6.9,0-12.4-3.7-12.3-10h3.3c0,4.6,4.4,6.8,9,6.8c4.5,0,9.2-1.7,9.2-6.1c0-4.3-4.6-6.2-9.2-6.2
			c-7.5,0-12.8-4.4-12.8-12c0-7.9,6.6-12,12.8-12c2.3,0,5.4,0.7,7.2,2L416.6,710.8z M397.4,723.8c0,6,4.1,8.9,9.4,8.9
			c5.6,0,9.4-4.1,9.4-8.9c0-6.1-4.6-8.9-9.4-8.9C402.3,715,397.4,717.7,397.4,723.8z"/>
		<path class="st59" d="M447.3,736.8v-13.6c0-5.2-3.1-8-7.9-8c-4.7,0-8,3.7-8,8.4v13.2h-3.3v-24.3h3.2l0.1,4.1
			c2-3.1,5.2-4.5,8.5-4.5c6.3,0,10.8,3.7,10.8,11v13.7H447.3z"/>
	</g>
	<g>
		<path class="st59" d="M154.3,765.8h1.5c0,0.5,0.1,0.9,0.2,1.2c0.2,0.4,0.4,0.7,0.7,0.9c0.3,0.2,0.7,0.3,1.2,0.3
			c0.7,0,1.2-0.2,1.6-0.6c0.4-0.4,0.6-0.9,0.6-1.5c0-0.5-0.1-1-0.4-1.3c-0.3-0.4-0.9-0.7-1.9-1c-0.8-0.3-1.3-0.5-1.6-0.7
			c-0.5-0.3-0.8-0.7-1-1.1c-0.2-0.4-0.4-0.9-0.4-1.4c0-0.9,0.3-1.7,0.9-2.3c0.6-0.6,1.4-0.9,2.3-0.9c0.6,0,1.2,0.2,1.7,0.5
			c0.5,0.3,0.9,0.7,1.2,1.3c0.2,0.4,0.3,0.8,0.3,1.4h-1.5c-0.1-0.6-0.3-1.1-0.6-1.4c-0.3-0.3-0.7-0.5-1.2-0.5
			c-0.5,0-0.9,0.2-1.2,0.5c-0.3,0.3-0.5,0.7-0.5,1.2c0,0.3,0.1,0.6,0.2,0.8c0.2,0.2,0.4,0.5,0.7,0.6c0.2,0.1,0.6,0.3,1.1,0.4
			c0.8,0.3,1.4,0.6,1.8,0.8c0.5,0.3,0.9,0.7,1.2,1.2c0.3,0.5,0.4,1,0.4,1.7c0,0.6-0.1,1.2-0.4,1.8c-0.3,0.5-0.7,1-1.3,1.2
			c-0.6,0.3-1.2,0.4-1.8,0.4c-0.7,0-1.2-0.1-1.7-0.4c-0.5-0.2-0.9-0.5-1.2-0.9c-0.3-0.3-0.5-0.7-0.6-1.1
			C154.3,766.8,154.3,766.4,154.3,765.8z"/>
		<path class="st59" d="M176.3,769.3V759h-2.4v-1.3h2.4v-4.1h1.5v4.1h2.8v1.3h-2.8v10.2H176.3z"/>
		<path class="st59" d="M203.8,757.7v11.6h-1.4v-1.8h0c-0.4,0.7-0.8,1.2-1.5,1.5c-0.6,0.4-1.4,0.5-2.3,0.5c-0.9,0-1.7-0.2-2.4-0.5
			c-0.7-0.3-1.3-0.8-1.7-1.3c-0.3-0.4-0.5-0.8-0.6-1.4c-0.2-0.6-0.2-1.3-0.2-2.2v-6.4h1.5v6.4c0,1.4,0.3,2.5,0.9,3.2
			c0.6,0.7,1.5,1,2.6,1c0.6,0,1.1-0.1,1.6-0.3c0.5-0.2,0.9-0.6,1.2-1c0.2-0.3,0.4-0.7,0.6-1.2c0.2-0.5,0.2-1.1,0.2-1.9v-6.1H203.8z"
			/>
		<path class="st59" d="M229.9,753.6v15.6h-1.5v-2h0c-0.3,0.5-0.6,0.8-0.9,1c-0.5,0.4-1,0.7-1.6,0.9c-0.6,0.2-1.3,0.3-2,0.3
			c-1.7,0-3.2-0.6-4.4-1.8c-1.2-1.2-1.8-2.6-1.8-4.2c0-1.1,0.3-2.2,0.8-3.1c0.5-1,1.3-1.7,2.3-2.2c1-0.5,2-0.8,3.1-0.8
			c1,0,2,0.2,2.8,0.7c0.6,0.4,1.2,0.9,1.7,1.6h0v-6.1H229.9z M228.5,763.5c0-0.8-0.2-1.5-0.6-2.3c-0.4-0.8-0.9-1.4-1.7-1.8
			c-0.7-0.4-1.5-0.7-2.4-0.7c-0.8,0-1.6,0.2-2.4,0.6c-0.7,0.4-1.3,1-1.7,1.7c-0.4,0.7-0.6,1.6-0.6,2.4c0,0.9,0.2,1.7,0.6,2.4
			c0.4,0.7,1,1.3,1.7,1.7c0.7,0.4,1.5,0.6,2.4,0.6c0.8,0,1.6-0.2,2.4-0.6c0.7-0.4,1.3-1,1.7-1.7
			C228.3,765.1,228.5,764.3,228.5,763.5z"/>
		<path class="st59" d="M244.3,756.3v-2.7h1.5v2.7H244.3z M244.3,769.3v-11.6h1.5v11.6H244.3z"/>
		<path class="st59" d="M259.6,763.6c0-0.9,0.2-1.7,0.5-2.4c0.3-0.7,0.7-1.4,1.3-1.9c0.5-0.5,1.1-0.9,1.7-1.2
			c0.8-0.4,1.7-0.6,2.6-0.6c1,0,2,0.3,3,0.8c1,0.5,1.7,1.3,2.2,2.3c0.5,1,0.8,2,0.8,3c0,1-0.3,2-0.8,3c-0.5,1-1.3,1.7-2.2,2.3
			c-1,0.5-2,0.8-3,0.8c-0.7,0-1.5-0.1-2.1-0.4c-0.7-0.3-1.3-0.6-1.8-1.1c-0.5-0.5-0.9-0.9-1.2-1.4c-0.3-0.5-0.5-1-0.7-1.5
			C259.7,764.6,259.6,764.1,259.6,763.6z M261.1,763.5c0,0.8,0.2,1.6,0.6,2.3c0.4,0.7,1,1.3,1.7,1.7c0.7,0.4,1.5,0.6,2.3,0.6
			c0.8,0,1.5-0.2,2.2-0.6c0.7-0.4,1.3-1,1.7-1.7c0.4-0.7,0.6-1.6,0.6-2.4c0-0.9-0.2-1.7-0.6-2.4c-0.4-0.7-1-1.3-1.7-1.7
			c-0.7-0.4-1.5-0.6-2.2-0.6c-0.7,0-1.5,0.2-2.2,0.6c-0.7,0.4-1.3,1-1.7,1.7C261.3,761.9,261.1,762.7,261.1,763.5z"/>
	</g>
	<g>
		<path class="st15" d="M82,763.5c-1.1,0-2-0.9-2-2v-45c0-1.1,0.9-2,2-2s2,0.9,2,2v45C84,762.6,83.1,763.5,82,763.5z"/>
		<path class="st15" d="M125.1,739h-34c-1.1,0-2-0.9-2-2s0.9-2,2-2h34c1.1,0,2,0.9,2,2S126.2,739,125.1,739z"/>
		<path class="st15" d="M116.7,747H91.1c-1.1,0-2-0.9-2-2s0.9-2,2-2h25.7c1.1,0,2,0.9,2,2S117.8,747,116.7,747z"/>
		<path class="st15" d="M105.5,771.4c-1.1,0-2-0.9-2-2c0-6.9-5.6-12.5-12.5-12.5c-1.1,0-2-0.9-2-2s0.9-2,2-2c2.2,0,4.4,0.4,6.4,1.3
			c2,0.8,3.7,2,5.2,3.5c1.5,1.5,2.7,3.3,3.5,5.2c0.9,2,1.3,4.2,1.3,6.4C107.5,770.5,106.6,771.4,105.5,771.4z"/>
		<path class="st15" d="M73,739H39c-1.1,0-2-0.9-2-2s0.9-2,2-2h34c1.1,0,2,0.9,2,2S74.1,739,73,739z"/>
		<path class="st15" d="M73,747H47.3c-1.1,0-2-0.9-2-2s0.9-2,2-2H73c1.1,0,2,0.9,2,2S74.1,747,73,747z"/>
		<path class="st15" d="M116.7,729H91.1c-1.1,0-2-0.4-2-1.5s0.9-1.5,2-1.5h25.7c1.1,0,2,0.4,2,1.5S117.8,729,116.7,729z"/>
		<path class="st15" d="M73,729H47.3c-1.1,0-2-0.4-2-1.5s0.9-1.5,2-1.5H73c1.1,0,2,0.4,2,1.5S74.1,729,73,729z"/>
		<path class="st15" d="M58.5,771.4c-1.1,0-2-0.9-2-2c0-2.2,0.4-4.4,1.3-6.4c0.8-2,2-3.7,3.5-5.2c1.5-1.5,3.3-2.7,5.2-3.5
			c2-0.9,4.2-1.3,6.4-1.3c1.1,0,2,0.9,2,2s-0.9,2-2,2c-6.9,0-12.5,5.6-12.5,12.5C60.5,770.5,59.6,771.4,58.5,771.4z"/>
		<path class="st15" d="M82,718.5c-1.1,0-2-0.9-2-2s0.9-2,2-2c3.9,0,7.1-3.2,7.1-7.1c0-1.1,0.9-2,2-2c1.1,0,2,0.9,2,2
			c0,3-1.1,5.7-3.2,7.8C87.7,717.3,85,718.5,82,718.5z"/>
		<path class="st15" d="M91.1,709.4c-1.1,0-2-0.9-2-2c0-3.9-3.2-7.1-7.1-7.1c-1.1,0-2-0.9-2-2c0-1.1,0.9-2,2-2c3,0,5.7,1.1,7.8,3.2
			c2.1,2.1,3.2,4.9,3.2,7.8C93.1,708.5,92.2,709.4,91.1,709.4z"/>
		<path class="st15" d="M73,709.4c-1.1,0-2-0.9-2-2c0-3,1.1-5.7,3.2-7.8c2.1-2.1,4.9-3.2,7.8-3.2c1.1,0,2,0.9,2,2c0,1.1-0.9,2-2,2
			c-3.9,0-7.1,3.2-7.1,7.1C75,708.5,74.1,709.4,73,709.4z"/>
	</g>
</g>
<circle class="st60" cx="250" cy="166.1" r="8.2"/>
</svg>
