<?xml version="1.0" encoding="utf-8"?>
<!-- Generator: Adobe Illustrator 19.2.0, SVG Export Plug-In . SVG Version: 6.00 Build 0)  -->
<svg version="1.1" id="Layer_1" xmlns="http://www.w3.org/2000/svg" xmlns:xlink="http://www.w3.org/1999/xlink" x="0px" y="0px"
	 viewBox="0 0 505.2 505.2" style="enable-background:new 0 0 505.2 505.2;" xml:space="preserve">
<style type="text/css">
	.st0{fill:#80D6FA;}
	.st1{fill:#50DD8E;}
	.st2{fill:#51565F;}
</style>
<g transform="translate(7 1)">
	<circle class="st0" cx="261.8" cy="218.3" r="213.3"/>
	<path class="st1" d="M271.2,354c7.7,7.7,14.5,22.2,7.7,29c-7.7,7.7-22.2,7.7-29,0C238.8,372.8,264.4,346.3,271.2,354z M408.6,234.5
		c14.5,14.5-14.5,22.2-22.2,44.4c-7.7,22.2-36.7,22.2-44.4,14.5c-7.7-7.7-22.2-14.5-36.7-22.2c-14.5-7.7,0-22.2,14.5-14.5
		c14.5,7.7,20.5-22.2,36.7-22.2C365.1,234.5,394.1,220,408.6,234.5z M342.9,22.9c60.6,24.7,107.5,76.8,125.4,141.7
		c-27.3,11.1-70.8,17.1-81.1,11.9c-14.5-7.7-14.5-44.4-41-45.2c-10.2-0.9-22.2,44.4-36.7,51.2c-14.5,7.7-22.2-22.2-36.7-44.4
		s22.2-44.4,36.7-44.4c14.5,0,14.5-36.7,14.5-44.4s-14.5-16.2-10.2-36.7L342.9,22.9z M261.8,433.3c-25.6,0-51.2-6-51.2-6
		c-93-23-162.1-106.7-162.1-207.4c0-8.5,0-16.2,1.7-24.7l0,0c27.3-1.7,59.7,3.4,49.5,13.7c-14.5,14.5-7.7,73.4,22.2,51.2
		s44.4-51.2,36.7-73.4s51.2-29.9,51.2,7.7s-14.5,29.9-22.2,51.2c-7.7,22.2,7.7,22.2,14.5,29c7.7,7.7,29,22.2,7.7,73.4
		C193.5,387.3,233.6,415.4,261.8,433.3z"/>
</g>
<path class="st2" d="M268.8,505.2c-2.6,0-4.3-1.7-4.3-4.3V471C128,468.5,17.1,356.7,17.1,219.3c0-2.6,1.7-4.3,4.3-4.3
	s4.3,1.7,4.3,4.3c0,134,109.2,243.2,243.2,243.2c52.9,0,103.3-16.2,145.1-47.8c1.7-1.7,4.3-0.9,6,0.9c1.7,1.7,0.9,4.3-0.9,6
	c-42.7,31.6-93,48.6-145.9,49.5v29.9C273.1,503.5,271.4,505.2,268.8,505.2z M268.8,436.9c-0.9,0-1.7,0-2.6-0.9
	c-21.3-13.7-72.5-45.2-52.9-89.6c19.6-45.2,3.4-58.9-4.3-66.6c-0.9-0.9-1.7-1.7-1.7-1.7c-1.7-1.7-3.4-2.6-6-4.3
	c-6.8-4.3-17.1-10.2-10.2-29.9c3.4-9.4,7.7-13.7,11.1-17.9c6-6,10.2-11.1,10.2-31.6c0-11.1-6.8-16.2-11.9-18.8
	c-10.2-4.3-23.9-2.6-29,2.6c-3.4,2.6-2.6,6-2.6,7.7c7.7,23.9-7.7,55.5-38.4,78.5c-14.5,11.1-23.9,3.4-27.3-0.9
	c-11.1-13.7-11.9-46.1,0-57.2c0.9-0.9,0.9-0.9,0.9-0.9c-1.7-2.6-20.5-6.8-43.5-6c-0.9,6.8-0.9,13.7-0.9,20.5
	c0,96.4,64.9,180.1,158.7,203.1c2.6,0.9,3.4,2.6,3.4,5.1c-0.9,2.6-2.6,3.4-5.1,3.4C119.5,407.9,51.2,320.9,51.2,220.2
	c0-9.4,0.9-17.1,1.7-25.6c0-1.7,1.7-3.4,4.3-3.4c0.9,0,49.5-1.7,55.5,11.1c0.9,1.7,1.7,6-2.6,9.4c-8.5,8.5-7.7,35.8,0.9,46.1
	c2.6,2.6,6.8,6,16.2-0.9c28.2-20.5,41.8-48.6,35-69.1c-1.7-6-0.9-11.9,4.3-16.2c8.5-7.7,25.6-9.4,38.4-4.3
	c11.1,5.1,17.1,14.5,17.1,26.5c0,24.7-6.8,31.6-12.8,37.5c-3.4,3.4-6.8,7.7-9.4,15.4c-4.3,13.7,0,16.2,6.8,19.6
	c2.6,1.7,5.1,3.4,7.7,5.1c0.9,0.9,0.9,0.9,1.7,1.7c9.4,8.5,28.2,26.5,6.8,76.8c-13.7,32.4,16.2,58,48.6,78.5
	c114.3-0.9,208.2-93.9,208.2-209.1c0-9.4-0.9-19.6-1.7-29c0-2.6,1.7-4.3,3.4-5.1c2.6,0,4.3,1.7,5.1,3.4c1.7,10.2,1.7,20.5,1.7,29.9
	C486.4,339.6,389.1,436.9,268.8,436.9z M271.4,392.5c-6.8,0-12.8-2.6-17.9-6.8c-3.4-3.4-4.3-8.5-3.4-14.5
	c2.6-10.2,12.8-21.3,21.3-23c5.1-1.7,8.5,0.9,9.4,1.7c8.5,8.5,17.1,25.6,7.7,35.8l0,0C284.2,390,278.2,392.5,271.4,392.5z
	 M274.8,355.8c-1.7,0-8.5,3.4-12.8,11.1c-2.6,4.3-5.1,10.2-2.6,12.8c6,6,17.9,6,23,0C287.6,374.6,281.6,362.7,274.8,355.8
	C275.6,355.8,275.6,355.8,274.8,355.8z M364.4,301.2c-7.7,0-14.5-1.7-17.9-6c-6.8-6.8-21.3-14.5-35.8-21.3
	c-8.5-4.3-9.4-11.1-7.7-16.2c3.4-7.7,14.5-11.1,25.6-6c4.3,1.7,6.8,0,13.7-8.5c5.1-6.8,11.9-14.5,21.3-14.5c0.9,0,4.3-0.9,7.7-1.7
	c12.8-3.4,34.1-9.4,46.9,3.4l0,0l0,0c3.4,3.4,5.1,6.8,5.1,11.1c0,6.8-5.1,11.9-11.1,17.9c-6,5.1-11.9,11.9-14.5,19.6
	c-3.4,11.1-11.9,17.9-23.9,21.3C371.2,301.2,367.8,301.2,364.4,301.2z M319.1,258.6c-4.3,0-6.8,1.7-7.7,3.4
	c-0.9,1.7,1.7,3.4,3.4,5.1c14.5,7.7,29.9,15.4,37.5,23c2.6,2.6,10.2,4.3,19.6,2.6c5.1-0.9,14.5-5.1,17.9-15.4
	c3.4-10.2,11.1-17.9,17.1-23c4.3-4.3,8.5-8.5,8.5-11.1c0-1.7-0.9-3.4-2.6-5.1l0,0c-9.4-9.4-26.5-4.3-38.4-0.9
	c-4.3,1.7-7.7,2.6-10.2,2.6c-6,0-10.2,5.1-14.5,11.1c-6,6.8-12.8,16.2-23.9,10.2C323.4,258.6,321.7,258.6,319.1,258.6z M311.5,186.9
	c-10.2,0-17.1-13.7-23.9-27.3c-3.4-6.8-6.8-13.7-11.1-20.5c-5.1-7.7-5.1-16.2-0.9-24.7c8.5-15.4,30.7-26.5,41-26.5
	c5.1,0,10.2-10.2,10.2-40.1c0-0.9-1.7-3.4-3.4-6c-3.4-6-9.4-14.5-7.7-27.3c-15.4-3.4-31.6-5.1-47.8-5.1
	C175.8,9.4,93,71.7,67.4,159.6c-0.9,2.6-3.4,3.4-5.1,2.6c-2.6-0.9-3.4-3.4-2.6-5.1C86.2,64.9,172.4,0,268.8,0
	c17.9,0,35.8,2.6,53.8,6.8c2.6,0.9,3.4,2.6,3.4,5.1c-2.6,11.9,1.7,18.8,6,24.7c2.6,3.4,4.3,6.8,4.3,10.2c0,32.4-6,48.6-18.8,48.6
	c-8.5,0-27.3,9.4-34.1,21.3c-3.4,6-2.6,11.1,0.9,16.2c4.3,6.8,8.5,14.5,11.9,20.5c8.5,17.1,13.7,24.7,19.6,22.2
	c6-3.4,12.8-16.2,17.9-27.3c7.7-14.5,12.8-24.7,20.5-24.7l0,0c17.9,0.9,25.6,16.2,31.6,29c3.4,7.7,6.8,14.5,11.1,17.1
	c7.7,4.3,46.1,0,74.2-10.2C453.1,99,407.9,48.6,349,24.7c-2.6-0.9-3.4-3.4-2.6-6s3.4-3.4,6-2.6c62.3,25.6,110.1,79.4,128,144.2
	c0.9,1.7-0.9,4.3-2.6,5.1c-27.3,11.9-72.5,17.9-84.5,11.9c-6.8-3.4-11.1-11.9-15.4-20.5c-6-11.9-11.1-23-23.9-23.9
	c-2.6,0.9-8.5,12.8-12.8,20.5c-6.8,12.8-13.7,26.5-22.2,30.7C315.7,186,314,186.9,311.5,186.9z"/>
</svg>
