<?xml version="1.0" encoding="utf-8"?>
<!-- Generator: Adobe Illustrator 19.2.0, SVG Export Plug-In . SVG Version: 6.00 Build 0)  -->
<svg version="1.1" id="Layer_1" xmlns="http://www.w3.org/2000/svg" xmlns:xlink="http://www.w3.org/1999/xlink" x="0px" y="0px"
	 viewBox="0 0 74.7 80" style="enable-background:new 0 0 74.7 80;" xml:space="preserve">
<style type="text/css">
	.st0{fill:#F2EDDA;}
	.st1{fill:#AAB1BA;}
	.st2{fill:#80D6FA;}
	.st3{fill:#51565F;}
</style>
<g transform="translate(3 1)">
	<path class="st0" d="M70.9,10.4v57c0,2.9-1.9,5-4.8,5.4l-4.8-8l-0.1-0.1c1-1.1,1.4-2.6,1.4-4.1c0-3.8-3-6.8-6.8-6.8s-6.8,3-6.8,6.8
		c0,1.5,0.5,2.9,1.4,3.9l-0.1,0.1l-4.6,8.1H13.8c-3,0-5.4-2.4-5.4-5.4V21.3V5v-5.4H60C66-0.5,70.9,4.4,70.9,10.4z M56.8,67.6
		l3.1,5.3H52l3.1-5.3v-0.1c0.3,0,0.4,0,0.7,0s0.5,0,0.8,0L56.8,67.6z"/>
	<path class="st1" d="M8.4-0.5V5v16.3c-6,0-10.9-4.9-10.9-10.9S2.4-0.5,8.4-0.5L8.4-0.5z"/>
	<path class="st2" d="M61.4,64.7c1-1.1,1.4-2.6,1.4-4.1c0-3.8-3-6.8-6.8-6.8c-3.8,0-6.8,3-6.8,6.8c0,1.5,0.4,2.9,1.4,3.9l-0.1,0.1
		l-4.6,8.1h6.4l3.1-5.3v-0.1c0.3,0,0.4,0,0.7,0c0.3,0,0.5,0,0.8,0c1.6-0.1,3-1,4.1-2c-1.1,1.1-2.4,1.8-4.1,2v0.1l3.1,5.3h5.6
		c0.3,0,0.4,0,0.7,0c-0.3,0-0.4,0-0.7,0h-5.6l3.3,5.4l1.6-2.6l3-0.1l-1.6-2.7l0,0L61.4,64.7z M61,65.3l-0.1,0.1L61,65.3z M52,72.9
		l-3.3,5.4l-1.6-2.6l-3-0.1l1.6-2.7H52z"/>
</g>
<path class="st3" d="M51.7,80c-0.3,0-0.4-0.1-0.5-0.3l-1.5-2.3L47,77.3c-0.3,0-0.4-0.1-0.5-0.4c-0.1-0.3-0.1-0.4,0-0.7l4.1-7.1
	c0.1-0.3,0.5-0.4,1-0.3c0.3,0.1,0.4,0.5,0.3,1l-3.5,6.1l1.9,0.1c0.3,0,0.4,0.1,0.5,0.3l1.1,1.6l3.5-6c0.1-0.3,0.5-0.4,1-0.3
	c0.3,0.1,0.4,0.5,0.3,1l-4.1,6.9C52.3,79.9,52,80,51.7,80L51.7,80z M66.1,80L66.1,80c-0.3,0-0.4-0.1-0.5-0.4l-4.1-6.9
	c-0.1-0.3-0.1-0.7,0.3-1c0.3-0.1,0.7-0.1,1,0.3l3.4,6l1.1-1.6c0.1-0.1,0.3-0.3,0.5-0.3l1.9-0.1l-3.5-6c-0.1-0.3-0.1-0.7,0.3-1
	c0.3-0.1,0.7-0.1,1,0.3l4.1,6.9c0.1,0.3,0.1,0.4,0,0.7c-0.1,0.3-0.3,0.4-0.5,0.4l-2.7,0.1l-1.5,2.3C66.6,79.9,66.3,80,66.1,80z
	 M42.6,74.6H16.8c-3.4,0-6.1-2.7-6.1-6.1V6.7C8.4,6.9,6.7,9,6.7,11.4c0,0.4-0.3,0.7-0.7,0.7s-0.7-0.3-0.7-0.7C5.3,8,8,5.3,11.4,5.3
	c0.4,0,0.7,0.3,0.7,0.7v62.5c0,2.6,2.2,4.8,4.8,4.8h25.8c0.4,0,0.7,0.3,0.7,0.7C43.3,74.3,43.1,74.6,42.6,74.6z M73.2,71.9
	c-0.1,0-0.3,0-0.4-0.1c-0.3-0.1-0.4-0.5-0.3-1c0.4-0.7,0.7-1.5,0.7-2.3v-57c0-5.6-4.6-10.2-10.2-10.2H11.4C5.8,1.2,1.2,5.8,1.2,11.4
	c0,3.7,1.9,6.9,5.2,8.8c0.3,0.1,0.4,0.5,0.3,1c-0.1,0.3-0.5,0.4-1,0.3c-3.5-2-5.7-5.8-5.7-9.9l0,0l0,0l0,0l0,0C0,5.2,5.2,0,11.5,0
	h51.6c6.4,0,11.5,5.2,11.5,11.5v57c0,1.1-0.3,2-0.8,3C73.6,71.7,73.3,71.9,73.2,71.9z M58.9,69.1c-4.1,0-7.5-3.4-7.5-7.5
	s3.4-7.5,7.5-7.5s7.5,3.4,7.5,7.5S63,69.1,58.9,69.1z M58.9,55.6c-3.4,0-6.1,2.7-6.1,6.1s2.7,6.1,6.1,6.1c3.4,0,6.1-2.7,6.1-6.1
	S62.3,55.6,58.9,55.6z M41.3,63.7h-5.4c-0.3,0-0.4-0.1-0.5-0.3c-0.1-0.1-0.1-0.4,0-0.7c0.3-0.7,0.5-1.4,0.5-1.8
	c-0.8,0.1-2.3,1.4-3.5,2.4c-0.1,0.1-0.5,0.3-0.7,0.1c-0.3-0.1-0.4-0.4-0.4-0.7v-2c-0.7,0.5-1.9,1.5-2.9,2.6
	c-0.3,0.3-0.5,0.3-0.8,0.1c-0.3-0.1-0.4-0.5-0.3-0.8c0.7-1.9,2.3-7.2,0.8-9.2c-0.4-0.5-0.8-0.7-1.6-0.7c-1.4,0-2.3,0.5-2.9,1.4
	c-1,1.5-0.7,4.2,0.8,7.1c0.1,0.3,0,0.7-0.3,1c-0.3,0.1-0.7,0-1-0.3c-1.6-3.4-1.9-6.4-0.7-8.4c0.8-1.4,2.3-2,4.1-2
	c1.2,0,2.2,0.4,2.7,1.4c1.4,1.9,0.7,5.6,0,8c2-1.6,2.6-1.5,2.9-1.4c0.4,0.1,0.5,0.4,0.5,1v1.2c1-0.8,2.4-1.9,3.4-1.9
	c0.4,0,0.8,0.1,1.1,0.5c0.4,0.5,0.1,1.5,0,2.2h4.3c0.4,0,0.7,0.3,0.7,0.7S41.7,63.7,41.3,63.7z M57.6,44.7H44
	c-0.4,0-0.7-0.3-0.7-0.7s0.3-0.7,0.7-0.7h13.6c0.4,0,0.7,0.3,0.7,0.7S58,44.7,57.6,44.7z M38.6,44.7H22.3c-0.4,0-0.7-0.3-0.7-0.7
	s0.3-0.7,0.7-0.7h16.3c0.4,0,0.7,0.3,0.7,0.7S39,44.7,38.6,44.7z M63,36.5h-8.1c-0.4,0-0.7-0.3-0.7-0.7c0-0.4,0.3-0.7,0.7-0.7H63
	c0.4,0,0.7,0.3,0.7,0.7C63.7,36.3,63.4,36.5,63,36.5z M49.4,36.5H35.9c-0.4,0-0.7-0.3-0.7-0.7c0-0.4,0.3-0.7,0.7-0.7h13.6
	c0.4,0,0.7,0.3,0.7,0.7C50.1,36.3,49.8,36.5,49.4,36.5z M30.4,36.5h-8.1c-0.4,0-0.7-0.3-0.7-0.7c0-0.4,0.3-0.7,0.7-0.7h8.1
	c0.4,0,0.7,0.3,0.7,0.7C31.1,36.3,30.8,36.5,30.4,36.5z M60.3,28.4H46.7c-0.4,0-0.7-0.3-0.7-0.7s0.3-0.7,0.7-0.7h13.6
	c0.4,0,0.7,0.3,0.7,0.7S60.7,28.4,60.3,28.4z M41.3,28.4h-19c-0.4,0-0.7-0.3-0.7-0.7s0.3-0.7,0.7-0.7h19c0.4,0,0.7,0.3,0.7,0.7
	S41.7,28.4,41.3,28.4z M52.2,20.2h-2.7c-0.4,0-0.7-0.3-0.7-0.7c0-0.4,0.3-0.7,0.7-0.7h2.7c0.4,0,0.7,0.3,0.7,0.7
	C52.8,20,52.6,20.2,52.2,20.2z M44,20.2H33.1c-0.4,0-0.7-0.3-0.7-0.7c0-0.4,0.3-0.7,0.7-0.7H44c0.4,0,0.7,0.3,0.7,0.7
	C44.7,20,44.4,20.2,44,20.2z M27.7,20.2h-5.4c-0.4,0-0.7-0.3-0.7-0.7c0-0.4,0.3-0.7,0.7-0.7h5.4c0.4,0,0.7,0.3,0.7,0.7
	C28.4,20,28.1,20.2,27.7,20.2z"/>
</svg>
