<?xml version="1.0" encoding="utf-8"?>
<!-- Generator: Adobe Illustrator 19.2.0, SVG Export Plug-In . SVG Version: 6.00 Build 0)  -->
<svg version="1.1" id="Layer_1" xmlns="http://www.w3.org/2000/svg" xmlns:xlink="http://www.w3.org/1999/xlink" x="0px" y="0px"
	 viewBox="0 0 69.2 80" style="enable-background:new 0 0 69.2 80;" xml:space="preserve">
<style type="text/css">
	.st0{fill:#80D6FA;}
	.st1{fill:#AAB1BA;}
	.st2{fill:#F2EDDA;}
	.st3{fill:#FF7474;}
	.st4{fill:#51565F;}
</style>
<g transform="translate(5 1)">
	<path class="st0" d="M1.1,10.5v67.8c-3,0-5.4-2.4-5.4-5.4V5.1C-4.3,10.5,1.1,10.5,1.1,10.5L1.1,10.5z"/>
	<path class="st1" d="M6.5,5.1v5.4H1.1c0,0-5.4,0-5.4-5.4V3.7c0-2.3,1.8-4.1,4.1-4.1h63.7c-1.5,0-2.7,2.4-2.7,5.4H17.4H6.5z
		 M63.5,10.5H17.4V5.1h43.4C60.8,8.1,62,10.5,63.5,10.5z"/>
	<path class="st0" d="M63.5,10.5v62.4c0,2.8-2.4,5.4-5.4,5.4H1.1V10.5h5.4v10.8l5.4-5.4l5.4,5.4V10.5H63.5z"/>
	<polygon class="st2" points="14.7,48.5 44.5,48.5 44.5,26.8 14.7,26.8 	"/>
	<polygon class="st3" points="17.4,10.5 17.4,21.4 11.9,15.9 6.5,21.4 6.5,10.5 6.5,5.1 17.4,5.1 	"/>
</g>
<path class="st4" d="M63.1,80H6.1C2.8,80,0,77.2,0,73.9V4.7C0,2.2,2.2,0,4.7,0h63.7c0.4,0,0.7,0.3,0.7,0.7s-0.3,0.7-0.7,0.7H4.7
	c-1.9,0-3.4,1.5-3.4,3.4v1.4c0,4.6,4.6,4.7,4.7,4.7c0.4,0,0.7,0.3,0.7,0.7v62.4c0,0.4-0.3,0.7-0.7,0.7s-0.7-0.3-0.7-0.7V12.2
	c-1.2-0.1-3-0.7-4.1-2v63.7c0,2.6,2.2,4.7,4.7,4.7h56.9c2.6,0,4.7-2.2,4.7-4.7V12.2h-40c-0.4,0-0.7-0.3-0.7-0.7
	c0-0.4,0.3-0.7,0.7-0.7h40.7c0.4,0,0.7,0.3,0.7,0.7v62.4C69.2,77.2,66.3,80,63.1,80z M49.5,50.2H19.7c-0.4,0-0.7-0.3-0.7-0.7V27.8
	c0-0.4,0.3-0.7,0.7-0.7h29.8c0.4,0,0.7,0.3,0.7,0.7v21.7C50.2,49.9,49.9,50.2,49.5,50.2z M20.3,48.8h28.5V28.5H20.3L20.3,48.8
	L20.3,48.8z M41.4,42H27.8c-0.4,0-0.7-0.3-0.7-0.7s0.3-0.7,0.7-0.7h13.6c0.4,0,0.7,0.3,0.7,0.7C42,41.8,41.8,42,41.4,42z M35.9,36.6
	h-8.1c-0.4,0-0.7-0.3-0.7-0.7s0.3-0.7,0.7-0.7h8.1c0.4,0,0.7,0.3,0.7,0.7S36.3,36.6,35.9,36.6z M22.4,23.1c-0.1,0-0.4-0.1-0.5-0.1
	L16.9,18l-4.9,4.9c-0.1,0.1-0.5,0.3-0.7,0.1c-0.3-0.1-0.4-0.4-0.4-0.7V6.8H6.2c-0.4,0-0.7-0.3-0.7-0.7c0-0.4,0.3-0.7,0.7-0.7h5.4
	c0.4,0,0.7,0.3,0.7,0.7v14.6l4.2-4.2c0.3-0.3,0.7-0.3,0.9,0l4.2,4.2V6.1c0-0.4,0.3-0.7,0.7-0.7h43.4c0.4,0,0.7,0.3,0.7,0.7
	c0,0.4-0.3,0.7-0.7,0.7H23.1v15.6c0,0.3-0.1,0.5-0.4,0.7C22.5,23.1,22.5,23.1,22.4,23.1z"/>
</svg>
