<?xml version="1.0" encoding="utf-8"?>
<!-- Generator: Adobe Illustrator 19.2.0, SVG Export Plug-In . SVG Version: 6.00 Build 0)  -->
<svg version="1.1" id="Layer_1" xmlns="http://www.w3.org/2000/svg" xmlns:xlink="http://www.w3.org/1999/xlink" x="0px" y="0px"
	 viewBox="0 0 80 80" style="enable-background:new 0 0 80 80;" xml:space="preserve">
<style type="text/css">
	.st0{fill:#80D6FA;}
	.st1{fill:#AAB1BA;}
	.st2{fill:#51565F;}
</style>
<g transform="translate(1 3)">
	<path class="st0" d="M75.6,5.8v46.1c0,3-2.4,5.4-5.4,5.4H7.8c-3,0-5.4-2.4-5.4-5.4V5.8H75.6z M41.7,35.8c-0.8-0.1-1.4-0.1-1.4-0.1
		S40.9,35.8,41.7,35.8L41.7,35.8z"/>
	<polygon class="st1" points="78.3,0.4 78.3,5.8 75.6,5.8 2.4,5.8 -0.3,5.8 -0.3,0.4 39,0.4 	"/>
</g>
<path class="st2" d="M49.5,80c-0.1,0-0.4,0-0.5-0.1l-5.4-5.4c-0.3-0.3-0.3-0.7,0-0.9c0.3-0.3,0.7-0.3,0.9,0l5.4,5.4
	c0.3,0.3,0.3,0.7,0,0.9C49.9,80,49.6,80,49.5,80z M30.5,80c-0.1,0-0.4,0-0.5-0.1c-0.3-0.3-0.3-0.7,0-0.9l9.4-9.4v-3.8
	c0-0.4,0.3-0.7,0.7-0.7c0.4,0,0.7,0.3,0.7,0.7v4.1c0,0.1-0.1,0.4-0.1,0.5l-9.5,9.5C30.9,80,30.6,80,30.5,80z M71.2,61H8.8
	c-3.4,0-6.1-2.7-6.1-6.1V14.2c0-0.4,0.3-0.7,0.7-0.7s0.7,0.3,0.7,0.7v40.7c0,2.6,2.2,4.7,4.7,4.7h62.4c2.6,0,4.7-2.2,4.7-4.7V8.8
	c0-0.4,0.3-0.7,0.7-0.7h2V4.1H1.4v4.1h69.8c0.4,0,0.7,0.3,0.7,0.7c0,0.4-0.3,0.7-0.7,0.7H0.7C0.3,9.5,0,9.2,0,8.8V3.4
	C0,3,0.3,2.7,0.7,2.7h38.6v-2C39.3,0.3,39.6,0,40,0c0.4,0,0.7,0.3,0.7,0.7v2h38.6C79.7,2.7,80,3,80,3.4v5.4c0,0.4-0.3,0.7-0.7,0.7
	h-2v45.4C77.3,58.3,74.6,61,71.2,61z M41.4,47.5h-5.4c-0.4,0-0.7-0.3-0.7-0.7V30.5c0-0.4,0.3-0.7,0.7-0.7c0.4,0,0.7,0.3,0.7,0.7
	v15.6h4.7c0.1,0,4.7,0,4.7-3.4c0-2.2-1.9-3-3.4-3.3c-0.8,0-1.5-0.1-1.5-0.1c-0.3-0.1-0.5-0.4-0.5-0.7c0-0.4,0.3-0.5,0.7-0.5
	c0.4,0,0.9,0,1.5,0.1c0.7,0,1.5-0.1,2.2-0.7c0.7-0.5,1.1-1.5,1.1-2.8c0-1.4-0.4-2.3-1.1-2.8c-1.4-1.1-3.5-0.5-3.5-0.5
	c-0.4,0.1-0.7-0.1-0.8-0.5s0.1-0.7,0.5-0.8c0.1,0,2.8-0.7,4.6,0.8c1.1,0.8,1.6,2.2,1.6,3.9c0,1.8-0.5,3.1-1.6,3.9
	c-0.1,0.1-0.4,0.3-0.7,0.4c1.2,0.7,2.3,1.9,2.3,3.8C47.5,46.5,43.5,47.5,41.4,47.5z M60.3,42c-4.9,0-6.1-3.9-6.1-6.1v-5.4
	c0-2.2,1.2-6.1,6.1-6.1c4.9,0,6.1,3.9,6.1,6.1c0,0.4-0.3,0.7-0.7,0.7l0,0c-0.4,0-0.7-0.3-0.7-0.7c0-0.1-0.1-4.7-4.7-4.7
	c-4.6,0-4.7,4.6-4.7,4.7v5.4c0,0.1,0.1,4.7,4.7,4.7c4.6,0,4.7-4.6,4.7-4.7c0-0.4,0.3-0.7,0.7-0.7l0,0c0.4,0,0.7,0.3,0.7,0.7
	C66.4,38.1,65.2,42,60.3,42z M27.8,39.3c-0.3,0-0.5-0.1-0.7-0.4L21,24.1l-4.6,11.1h3.3c0.4,0,0.7,0.3,0.7,0.7c0,0.4-0.3,0.7-0.7,0.7
	h-3.8l-0.9,2.3c-0.1,0.4-0.5,0.5-0.9,0.4c-0.4-0.1-0.5-0.5-0.4-0.9l6.8-16.3c0.3-0.5,1.1-0.5,1.2,0l6.8,16.3c0.1,0.4,0,0.7-0.4,0.9
	C27.9,39.3,27.9,39.3,27.8,39.3z"/>
</svg>
