<?xml version="1.0" encoding="utf-8"?>
<!-- Generator: Adobe Illustrator 19.2.0, SVG Export Plug-In . SVG Version: 6.00 Build 0)  -->
<svg version="1.1" id="Layer_1" xmlns="http://www.w3.org/2000/svg" xmlns:xlink="http://www.w3.org/1999/xlink" x="0px" y="0px"
	 viewBox="0 0 68.9 80" style="enable-background:new 0 0 68.9 80;" xml:space="preserve">
<style type="text/css">
	.st0{fill:#F2EDDA;}
	.st1{fill:#FF7474;}
	.st2{fill:#FFE079;}
	.st3{fill:#ECF4F7;}
	.st4{fill:#AAB1BA;}
	.st5{fill:#51565F;}
</style>
<g transform="translate(5 1)">
	<path class="st0" d="M55.3,69.4c-6,5.8-14.9,8.9-25.8,8.9S9.8,75.2,3.8,69.4l0,0c4.1-5.4,9.5-7.3,9.5-7.3s4.1-1.4,5.4-1.4
		c0,4.1,10.8,10.8,10.8,10.8s10.8-6.8,10.8-10.8c1.4,0,5.4,1.4,5.4,1.4S51.3,63.9,55.3,69.4L55.3,69.4z"/>
	<path class="st1" d="M40.4,15.3L40.4,15.3c-3-1.1-6.2-1.9-9.5-2c0,0-3.9-0.1-5.7,0.4l0,0c0,0-2.3-2.8-4.1-5.8
		C19,4,17.6-0.3,22.9-0.3c8.1,0,13.6,4.7,16.3,10.2C39.1,9.8,40.4,13,40.4,15.3 M14.7,17.3c3.3-1.9,6.8-3.3,10.4-3.8v0.1
		c1.8-0.5,5.7-0.4,5.7-0.4c3.3,0.1,6.5,0.9,9.5,2.2c13.4,5.4,23.1,20.2,23.1,33.1c0,8.8-3,15.9-8.1,20.9l0,0
		c-4.1-5.4-9.5-7.3-9.5-7.3s-4.1-1.4-5.4-1.4c0-1.2-0.7-2.7-1.8-4.1l0,0c0,0,5.7-2.7,5.7-8.1S40.2,42,40.2,42v-0.1l6.8-1.6v-5.4
		l-17.6,5.4l-17.6-5.4v5.4l6.8,1.6V42c0,0-4.1,1.1-4.1,6.5s5.8,8.1,5.8,8.1l0,0c-1.1,1.4-1.8,2.7-1.8,4.1c-1.4,0-5.4,1.4-5.4,1.4
		s-5.4,1.9-9.5,7.3l0,0c-5.2-5-8.1-12.1-8.1-20.9C-4.3,36.8,3.4,23.8,14.7,17.3 M25.1,13.6c-3.7,0.5-7.2,1.9-10.4,3.8v-0.1
		c-4.6-0.5-8.1-3.1-8.1-5.4c0-4.1,5.2-5.4,8.1-5.4c0,0,2.8,0,6.1,1.4L21,7.7C22.8,10.8,25.1,13.6,25.1,13.6"/>
	<path class="st2" d="M38.7,56.6c1.1,1.4,1.8,2.7,1.8,4.1c0,0-5.4,2.7-10.8,2.7s-10.8-2.7-10.8-2.7c0-1.4,0.7-2.7,1.8-4.1
		c2.3-2.8,6.4-5.4,9.1-5.4C32.4,51.2,36.5,53.8,38.7,56.6z M29.6,63.4c5.4,0,10.8-2.7,10.8-2.7c0,4.1-10.8,10.8-10.8,10.8
		s-10.8-6.8-10.8-10.8C18.7,60.7,24.2,63.4,29.6,63.4z"/>
	<g>
		<path class="st3" d="M29.6,44.4L40.4,42v0.1c0,0,4.1,1.1,4.1,6.5s-5.7,8.1-5.7,8.1h-0.1c-2.3-3-6.4-5.4-9.2-5.4v-6.9L29.6,44.4
			L29.6,44.4z"/>
		<path class="st3" d="M18.7,42l10.8,2.4v6.8c-2.8,0-6.8,2.6-9.1,5.4l0,0c0,0-5.8-2.7-5.8-8.1S18.7,42,18.7,42L18.7,42z"/>
	</g>
	<polygon class="st4" points="29.6,40.4 47.2,34.9 47.2,40.4 40.4,42 29.6,44.4 18.7,42 11.9,40.4 11.9,34.9 	"/>
</g>
<path class="st5" d="M34.6,80C13.3,80,0,68.3,0,49.5c0-10.8,6.9-23.9,17.9-30.8c-4.1-0.9-7.1-3.4-7.1-5.8c0-4.5,5.3-6.1,8.8-6.1
	c0.4,0,0.7,0.3,0.7,0.7c0,0.4-0.3,0.7-0.7,0.7c-2.8,0-7.5,1.4-7.5,4.7c0,1.8,3,4.1,7.3,4.7c2.8-1.6,6-2.8,9.4-3.5
	c-1.9-2.4-6.6-8.9-5.2-12.2C24.3,0.7,25.6,0,27.8,0c10.4,0,15.3,7.5,16.8,10.6c0.1,0.3,0,0.7-0.3,0.9c-0.3,0.1-0.7,0-0.9-0.3
	c-1.5-3-6-9.9-15.7-9.9c-1.5,0-2.4,0.4-2.8,1.1c-1.1,2.3,2.8,8.4,5.7,11.7c0.1,0.1,0.3,0.4,0.1,0.7c-0.1,0.3-0.3,0.4-0.5,0.4
	C13,17.9,1.2,35.4,1.2,49.4c0,8.1,2.6,14.9,7.5,19.9c4.1-5,9.1-6.9,9.4-6.9c0.4-0.1,0.7,0,0.8,0.4c0.1,0.4,0,0.7-0.4,0.8
	c0,0-5,1.8-8.8,6.6c5.7,5.3,14.2,8.3,24.8,8.3s19.1-3,24.8-8.4c-3.8-4.9-8.8-6.6-8.8-6.6c-0.4-0.1-0.5-0.5-0.4-0.8
	c0.1-0.4,0.5-0.5,0.8-0.4s5.3,1.9,9.4,6.9c4.7-4.9,7.3-11.7,7.3-19.8c0-15.3-14-33.8-31.9-34.6c-0.4,0-0.7-0.3-0.7-0.7
	s0.3-0.7,0.7-0.7c18.7,0.9,33.2,20.1,33.2,35.9C69.2,68.3,55.9,80,34.6,80z M34.6,73.2c-0.1,0-0.3,0-0.4-0.1
	c-1.1-0.7-11.1-7.1-11.1-11.4l0,0c0-1.2,0.5-2.6,1.4-3.8c-1.6-0.9-5.4-3.7-5.4-8.4c0-3.5,1.6-5.4,3-6.2L16.8,42
	c-0.3-0.1-0.5-0.4-0.5-0.7v-5.4c0-0.3,0.1-0.4,0.3-0.5c0.1-0.1,0.4-0.1,0.5-0.1l17.5,5.4l17.5-5.4c0.3,0,0.4,0,0.5,0.1
	c0.1,0.1,0.3,0.3,0.3,0.5v5.4c0,0.3-0.3,0.5-0.5,0.7l-5.2,1.2c1.4,0.9,3,2.7,3,6.2c0,4.7-3.9,7.5-5.4,8.4c0.8,1.2,1.4,2.6,1.4,3.8
	l0,0c0,4.3-10,10.7-11.1,11.4C34.8,73.2,34.7,73.2,34.6,73.2z M24.7,62.9c1.4,3,7.1,7.1,9.9,8.8c2.7-1.8,8.4-6,9.9-8.8
	c-1.9,0.8-5.8,2.2-9.9,2.2C30.6,65.1,26.7,63.7,24.7,62.9z M24.4,61.3c1.4,0.5,5.8,2.4,10.2,2.4s8.8-1.9,10.2-2.4
	c-0.4-3.7-6.6-8.4-10.2-8.4S24.9,57.6,24.4,61.3z M35.3,51.5c2.7,0.3,6.4,2.6,8.7,5.3c1.2-0.7,4.9-3.1,4.9-7.3
	c0-4.9-3.5-5.8-3.5-5.8l0,0L35.4,46v5.6L35.3,51.5L35.3,51.5z M23.9,43.7c-0.1,0-3.5,1.1-3.5,5.8c0,4.1,3.7,6.5,5,7.3
	c2.3-2.7,5.8-4.9,8.5-5.2v-5.6L23.9,43.7C24,43.7,24,43.7,23.9,43.7z M17.6,40.8l16.9,3.9l16.9-3.9v-3.9L34.7,42c-0.1,0-0.3,0-0.4,0
	l-16.8-5.2v3.9H17.6z M40.7,50.2c-0.8,0-1.4-0.5-1.4-1.4c0-0.8,0.5-1.4,1.4-1.4c0.8,0,1.4,0.5,1.4,1.4C42,49.6,41.5,50.2,40.7,50.2z
	 M28.5,50.2c-0.8,0-1.4-0.5-1.4-1.4c0-0.8,0.5-1.4,1.4-1.4c0.8,0,1.4,0.5,1.4,1.4C29.8,49.6,29.3,50.2,28.5,50.2z"/>
</svg>
