<?xml version="1.0" encoding="utf-8"?>
<!-- Generator: Adobe Illustrator 19.2.0, SVG Export Plug-In . SVG Version: 6.00 Build 0)  -->
<svg version="1.1" id="Nissan_Logo" xmlns="http://www.w3.org/2000/svg" xmlns:xlink="http://www.w3.org/1999/xlink" x="0px"
	 y="0px" viewBox="0 0 484 535.9" style="enable-background:new 0 0 484 535.9;" xml:space="preserve">
<style type="text/css">
	.st0{fill:#D60020;}
	.st1{fill:url(#SVGID_1_);}
	.st2{fill:url(#SVGID_2_);}
	.st3{fill:url(#SVGID_3_);}
	.st4{fill:url(#SVGID_4_);}
	.st5{fill:#FFFFFF;}
	.st6{fill:url(#SVGID_5_);}
	.st7{fill:url(#SVGID_6_);}
	.st8{fill:#8C8C8C;}
	.st9{fill:#4D4D4D;}
	.st10{fill:#252525;}
	.st11{fill:url(#NISSAN_1_);}
</style>
<rect class="st0" width="484" height="535.9"/>
<title>Nissan Logo</title>
<desc>Für mehr Informationen siehe: http://de.wikipedia.org/wiki/Datei:Nissan_Logo.svg</desc>
<g>
	
		<linearGradient id="SVGID_1_" gradientUnits="userSpaceOnUse" x1="439.6002" y1="-30.6872" x2="439.5999" y2="-308.0948" gradientTransform="matrix(1 0 0 -1 -197.6 51.866)">
		<stop  offset="0.1944" style="stop-color:#FFFFFF"/>
		<stop  offset="0.2085" style="stop-color:#F8F8F8"/>
		<stop  offset="0.3657" style="stop-color:#AEAEAE"/>
		<stop  offset="0.5133" style="stop-color:#707070"/>
		<stop  offset="0.6468" style="stop-color:#404040"/>
		<stop  offset="0.7637" style="stop-color:#1D1D1D"/>
		<stop  offset="0.8595" style="stop-color:#080808"/>
		<stop  offset="0.9222" style="stop-color:#000000"/>
	</linearGradient>
	<path class="st1" d="M427.3,206.7c-3.6-1-7.8-1.6-16.3-2.6c-35.8-1.6-124-5-169-5s-133.1,3.4-169,5c-8.6,1-12.7,1.6-16.3,2.6
		c-11.3,2.6-13.7,6.6-13.7,14.7v55.1c0,8,8.6,13.5,14.5,14.5c6,1.2,9.8,1.6,15.9,2.2c31.8,2,106.1,6.2,168.6,6.2
		s136.5-4.2,168.6-6.2c6.2-0.6,9.9-1,15.9-2.2c6-1,14.5-6.6,14.5-14.5v-55.1C441,213.3,438.6,209.3,427.3,206.7z"/>
	
		<radialGradient id="SVGID_2_" cx="327.8736" cy="42.8525" r="277.5298" gradientTransform="matrix(1 0 0 -1 -197.6 51.866)" gradientUnits="userSpaceOnUse">
		<stop  offset="0.2022" style="stop-color:#FFFFFF"/>
		<stop  offset="0.3822" style="stop-color:#FDFDFD"/>
		<stop  offset="0.4874" style="stop-color:#F4F4F4"/>
		<stop  offset="0.5732" style="stop-color:#E6E6E6"/>
		<stop  offset="0.6483" style="stop-color:#D2D2D2"/>
		<stop  offset="0.6889" style="stop-color:#C4C4C4"/>
		<stop  offset="1" style="stop-color:#333333"/>
	</radialGradient>
	<path class="st2" d="M98.7,208.9c17.5-61.1,75.2-105.9,143.9-105.9c68.3,0,126,44.6,143.7,105.5c0,0.2,0,0.4,0.2,0.6
		c10.1-1.2,19.3-3,25.7-4.6c-0.2-0.4-0.2-0.4-0.2-0.8c-20.1-72.8-88.4-126.2-169.3-126.2c-81.2,0-149.6,53.7-169.5,126.6
		C82,206.5,88.6,207.5,98.7,208.9z"/>
	
		<radialGradient id="SVGID_3_" cx="999.5219" cy="-401.6765" r="577.9979" gradientTransform="matrix(1 0 0 -1 -197.6 51.866)" gradientUnits="userSpaceOnUse">
		<stop  offset="0.2022" style="stop-color:#FFFFFF"/>
		<stop  offset="0.368" style="stop-color:#E4E4E4"/>
		<stop  offset="0.5944" style="stop-color:#C4C4C4"/>
		<stop  offset="1" style="stop-color:#333333"/>
	</radialGradient>
	<path class="st3" d="M385.9,288.9c-0.2,0.6-0.4,1.2-0.4,1.4C366.8,349.8,309.9,393,242.6,393c-67.9,0-125-43.8-143.3-104.1
		c-11.1,2-14.9,2.8-25.9,4.2c20.5,72.2,88.4,125.2,169.1,125.2s148.9-53.1,169.2-125.4C402,291.9,396.4,290.9,385.9,288.9z"/>
	
		<radialGradient id="SVGID_4_" cx="394.5367" cy="-274.1261" r="177.4471" gradientTransform="matrix(1 0 0 -1 -197.6 51.866)" gradientUnits="userSpaceOnUse">
		<stop  offset="0.2022" style="stop-color:#FFFFFF"/>
		<stop  offset="0.368" style="stop-color:#E4E4E4"/>
		<stop  offset="0.5944" style="stop-color:#C4C4C4"/>
		<stop  offset="1" style="stop-color:#333333"/>
	</radialGradient>
	<path class="st4" d="M102.5,208.7c4.2-1.8,8.4-4.6,14.7-6.4c19.1-49.4,68.1-84.6,125.6-84.6c57.3,0,106.3,35,125.4,84.2
		c0,0.2,0.2,0.4,0.2,0.4c3.4,1.2,12.9,5,15.9,6.4c0.4,0,1.4,0,2.2,0c0-0.2-0.2-0.4-0.2-0.6c-17.7-60.9-75.4-105.5-143.7-105.5
		c-68.5,0-126.2,44.8-143.9,105.9C99.9,208.9,101.7,208.7,102.5,208.7z"/>
	<path class="st5" d="M241.6,107c64.1,0,121,38.2,142.5,101.3c0,0.2,0.2,0.4,0.2,0.6c0.4,0,1.6,0,2.2,0c0-0.2-0.2-0.4-0.2-0.6
		c-17.7-60.9-75.4-105.5-143.7-105.5c-68.5,0-126.2,44.8-143.9,105.9c1.4,0,2,0,3.6-0.2C121.6,148.8,177.9,107,241.6,107z"/>
	
		<radialGradient id="SVGID_5_" cx="537.7311" cy="-455.5717" r="336.6941" gradientTransform="matrix(1 0 0 -1 -197.6 51.866)" gradientUnits="userSpaceOnUse">
		<stop  offset="0.2022" style="stop-color:#FFFFFF"/>
		<stop  offset="0.368" style="stop-color:#E4E4E4"/>
		<stop  offset="0.5944" style="stop-color:#C4C4C4"/>
		<stop  offset="1" style="stop-color:#333333"/>
	</radialGradient>
	<path class="st6" d="M382.3,289.1c-4.6,2.6-10.3,5-14.9,6.6c0,0.2-0.4,0.8-0.4,1c-19.9,47.8-68.1,81.6-124.4,81.6
		c-56.7,0-105.1-34.2-124.8-82.4c-5.4-1.4-13.1-5-16.1-6.6c-1.2,0-1.8,0-2.4-0.2c18.3,60.1,75.4,104.1,143.3,104.1
		c67.5,0,124.6-43.4,142.9-103.1c0-0.2,0.2-0.8,0.2-0.8C384.9,288.9,383.1,289.1,382.3,289.1z"/>
	
		<radialGradient id="SVGID_6_" cx="436.933" cy="-60.7655" r="267.5587" gradientTransform="matrix(1 0 0 -1 -197.6 51.866)" gradientUnits="userSpaceOnUse">
		<stop  offset="0.2022" style="stop-color:#FFFFFF"/>
		<stop  offset="0.3966" style="stop-color:#FDFDFD"/>
		<stop  offset="0.5101" style="stop-color:#F4F4F4"/>
		<stop  offset="0.6029" style="stop-color:#E6E6E6"/>
		<stop  offset="0.6839" style="stop-color:#D2D2D2"/>
		<stop  offset="0.7278" style="stop-color:#C4C4C4"/>
		<stop  offset="1" style="stop-color:#4D4D4D"/>
	</radialGradient>
	<path class="st7" d="M424.1,210.7c-9.6-1.2-15.9-1-39-1.8c-1,0-2.2,0-3.2-0.2c-41.8-1.4-104.5-3.4-139.9-3.4s-98.3,2-139.9,3.4
		c-1,0-2.2,0-3.2,0.2c-23.1,0.8-29.5,0.6-39,1.8c-9.6,1.2-16.9,5.2-16.9,12.3v51.1c0,7,9,12.7,16.9,12.7c0,0,100.9,6.2,182.1,6.4
		c81.2,0,182.1-6.4,182.1-6.4c8,0,16.9-5.8,16.9-12.7v-51.1C441,215.9,433.6,211.9,424.1,210.7z"/>
	<path class="st5" d="M382.3,289.1c-19.9,58.7-75.6,99.7-138.5,99.7c-63.7,0-120-37.6-141.9-99.7c-0.8,0-1.6,0-2.4-0.2
		C117.8,349,174.9,393,242.8,393s125-44,143.3-104.1C384.7,288.9,383.5,289.1,382.3,289.1z"/>
	<path class="st8" d="M382.3,289.1L382.3,289.1c-4.8,2.6-10.5,5-15.1,6.6c0,0.2-0.4,0.8-0.4,1c-6.4,15.1-15.3,28.9-26.7,40.6
		C358,324.1,372.3,307.8,382.3,289.1z"/>
	<path class="st9" d="M148.9,340.9c-13.3-12.7-23.9-28.1-30.8-45.2c-5.4-1.4-13.1-5-16.1-6.6c3.2,6.8,7,12.9,11.1,18.9
		c8.8,11.3,19.5,21.7,31.4,30.2C145.9,339.1,147.5,340.1,148.9,340.9z"/>
	<path class="st10" d="M99.3,288.9L99.3,288.9L99.3,288.9c-11.1,2-14.9,2.8-25.9,4.2c0.8,3.2,1.8,6.2,3,9.4L99.3,288.9z"/>
	
		<radialGradient id="NISSAN_1_" cx="443.1322" cy="-87.5626" r="180.2136" gradientTransform="matrix(1 0 0 -1 -197.6 51.866)" gradientUnits="userSpaceOnUse">
		<stop  offset="0.1111" style="stop-color:#4D4D4D"/>
		<stop  offset="0.248" style="stop-color:#494949"/>
		<stop  offset="0.3546" style="stop-color:#404040"/>
		<stop  offset="0.451" style="stop-color:#2F2F2F"/>
		<stop  offset="0.5409" style="stop-color:#181818"/>
		<stop  offset="0.6111" style="stop-color:#000000"/>
	</radialGradient>
	<path id="NISSAN" class="st11" d="M322.8,233.2c-3.4-7.4-2.2-6.6-9.4-6.8c-0.6-0.2-2.2-0.2-4.4-0.2c-2.2,0-2.6,0-4.4,0.2
		c-6.8,0-5.6-0.4-8,4.6c0,0-11.7,26.3-16.7,37.2l-0.2,0.4c-1,2-0.4,2,1.2,2h10.5c0.8,0,1.2-0.4,1.4-0.8c0,0,1.6-3.4,3.6-8h25.7
		c2,4.6,3.4,7.8,3.4,8c0.2,0.6,0.8,0.8,1.4,0.8h10.9c1.6,0,2,0.2,1.4-1.2C337.3,264.6,324.6,237.4,322.8,233.2L322.8,233.2z
		 M300.5,252.5c3.4-7.8,6.6-15.3,6.6-15.5c0.2-0.4,0.6-0.6,1.2-0.6c0.2-0.2,0.8-0.2,1.4-0.2c0.4,0,1,0,1.2,0.2c0.4,0,0.8,0.2,1,0.8
		c0.8,2.2,3.8,8.8,6.4,15.3L300.5,252.5L300.5,252.5z M159.8,225.8c1,0,1.2,0.4,1.2,1.2v41.8c0,1-0.2,1.4-1.4,1.4h-10.1
		c-1.2,0-1.4-0.2-1.4-1.4V227c0-0.8,0.2-1.2,1-1.2H159.8L159.8,225.8z M138.1,226.2c1.2,0,1.4,0.4,1.4,1.4v41.6
		c0,1.2-0.2,1.4-1.4,1.4h-11.9c-7,0-7.6,0-9.9-4c-4.8-7.6-19.5-30-19.5-30v32.6c0,1.2-0.2,1.4-1.4,1.4h-8.8c-1.2,0-1.4-0.2-1.4-1.4
		v-41.6c0-1,0.2-1.4,1.4-1.4c0,0,2.4,0,10.1,0c7.6,0,8.6-0.2,11.3,3.8c2.2,3.6,19.9,30.8,19.9,30.8v-33.2c0-1,0.2-1.4,1.4-1.4
		L138.1,226.2L138.1,226.2z M398.8,226.2c1.2,0,1.4,0.4,1.4,1.4v41.6c0,1.2-0.2,1.4-1.4,1.4h-11.9c-7,0-7.6,0-10-4
		c-5-7.6-19.5-30-19.5-30v32.6c0,1.2-0.2,1.4-1.4,1.4h-8.8c-1.2,0-1.4-0.2-1.4-1.4v-41.6c0-1,0.2-1.4,1.4-1.4c0,0,2.4,0,10.1,0
		c7.6,0,8.6-0.2,11.3,3.8c2.4,3.6,19.9,30.8,19.9,30.8v-33.2c0-1,0.2-1.4,1.4-1.4L398.8,226.2L398.8,226.2z M204.6,243.2
		c7.8,0.8,13.5,2.2,15.1,9.6c0,0.6,0.2,2.6,0.2,4.8c0,1.4,0,3.2-0.4,4.8c-1.4,7-6.6,8.4-14.9,8.4h-32.8c-1.2,0-1.4-0.2-1.4-1.4v-7
		c0-1.2,0.2-1.4,1.4-1.4c0,0,32.6,0,33.2,0c1.4,0,1.8-0.4,2-1.4c0-0.8,0-1.2,0-1.8c0-0.6,0-1,0-1.2c-0.2-0.8-0.4-2-2.2-2.2
		c-3.8-0.2-14.7-1.2-22.1-2c-9.6-1-11.9-5-12.3-8.6c-0.2-1.2-0.2-2.8-0.2-4.2c0-1.2,0-3,0.2-4.4c1.4-6.2,6-9.2,14.3-9.2h31.8
		c1.2,0,1.6,0.2,1.6,1.2v7.2c0,1-0.4,1.4-1.6,1.2c0,0-30.4,0-31.2,0c-1.4,0-2,0.6-2.2,2c0,0.2,0,0.4,0,0.8s0,0.6,0,1
		c0,1,0.6,1.8,2,2C188.7,242,200.2,242.8,204.6,243.2L204.6,243.2z M260.9,243.2c7.8,0.8,13.5,2.2,15.1,9.6c0,0.6,0.2,2.6,0.2,4.8
		c0,1.4,0,3.2-0.4,4.8c-1.4,7-6.6,8.4-14.9,8.4h-32.6c-1.2,0-1.4-0.2-1.4-1.4v-7c0-1.2,0.2-1.4,1.4-1.4c0,0,32.6,0,33.2,0
		c1.4,0,1.8-0.4,2-1.4c0-0.8,0-1.2,0-1.8c0-0.6,0-1,0-1.2c-0.2-0.8-0.6-2-2.2-2.2c-3.8-0.2-14.7-1.2-22.1-2c-9.6-1-11.7-5-12.3-8.6
		c-0.2-1.2-0.2-2.8-0.2-4.2c0-1.2,0-3,0.2-4.4c1.4-6.2,6-9.2,14.3-9.2H273c1.2,0,1.6,0.2,1.6,1.2v7.2c0,1-0.4,1.4-1.6,1.2
		c0,0-30.4,0-31.2,0c-1.4,0-2,0.6-2.2,2c0,0.2,0,0.4,0,0.8s0,0.6,0,1c0,1,0.4,1.8,2,2C245.2,242,256.7,242.8,260.9,243.2
		L260.9,243.2z"/>
</g>
</svg>
