<?xml version="1.0" encoding="utf-8"?>
<!-- Generator: Adobe Illustrator 19.2.0, SVG Export Plug-In . SVG Version: 6.00 Build 0)  -->
<svg version="1.1" id="Слой_1" xmlns="http://www.w3.org/2000/svg" xmlns:xlink="http://www.w3.org/1999/xlink" x="0px" y="0px"
	 viewBox="0 0 184 100.5" style="enable-background:new 0 0 184 100.5;" xml:space="preserve">
<style type="text/css">
	.st0{fill:#FF5001;}
	.st1{fill:#0F1110;}
	.st2{fill:#1D7490;}
	.st3{fill:#FFFFFF;}
</style>
<rect class="st0" width="57" height="100"/>
<rect x="63.5" class="st1" width="57" height="100"/>
<rect x="127" class="st2" width="57" height="100"/>
<g>
	<path class="st3" d="M45.5,91.9c-3.4-0.2-9.1-0.3-17.1-0.3c-9.5,0-16.7,0.1-21.6,0.3v-2.3c1.8-0.1,3.1-0.4,3.9-0.9
		c0.8-0.5,1.4-1.4,1.7-2.7c0.3-1.3,0.5-3.4,0.5-6.4V21.9c0-2.9-0.2-5-0.5-6.4c-0.3-1.3-0.9-2.2-1.7-2.7c-0.8-0.5-2.1-0.8-3.9-0.9
		V9.5c4.9,0.2,12.1,0.3,21.6,0.3c7.3,0,12.5-0.1,15.6-0.3c-0.3,5.1-0.5,9.7-0.5,13.7c0,3,0.1,5.4,0.2,7.2H42
		c-0.4-5-0.8-8.8-1.4-11.2c-0.5-2.5-1.5-4.2-2.8-5.4c-1.3-1.1-3.3-1.7-5.9-1.7h-6.2c-1.8,0-3.1,0.2-3.9,0.7
		c-0.8,0.5-1.4,1.3-1.7,2.6c-0.3,1.3-0.5,3.4-0.5,6.3v27.4h5c1.7,0,3.1-0.6,4-1.9c0.9-1.3,1.6-2.8,1.9-4.5c0.3-1.7,0.6-3.9,0.8-6.6
		c0-0.7,0.1-1.4,0.2-2.3h1.7c-0.2,3.8-0.3,7.5-0.3,11l0,5.6c0,3.9,0.1,9.4,0.4,16.5h-1.7l-0.1-1.6c-0.2-3.1-0.5-5.5-0.8-7.3
		c-0.3-1.8-1-3.3-1.9-4.6c-1-1.2-2.4-1.8-4.2-1.8h-5v27.9c0,2.9,0.2,5,0.5,6.3c0.3,1.3,0.9,2.2,1.7,2.6c0.8,0.5,2.1,0.7,3.9,0.7h5.5
		c3.1,0,5.5-0.6,7.1-1.9c1.6-1.3,2.8-3.4,3.5-6.2c0.7-2.8,1.3-7,1.7-12.5h1.7C45,70.7,45,73.5,45,77C45,81.4,45.1,86.4,45.5,91.9z"
		/>
</g>
<g>
	<path class="st3" d="M113.1,91.8c-1.1,1.2-2.6,1.8-4.5,1.8c-2,0-3.7-0.9-5-2.8c-1.3-1.9-2.3-5.1-3-9.8l-1.6-11.6
		c-0.6-4.1-1.1-7.2-1.7-9.3c-0.5-2.2-1.3-3.9-2.4-5.2c-1.1-1.3-2.5-2-4.4-2h-7.1v26.7c0,2.9,0.2,5,0.5,6.4c0.3,1.3,0.9,2.2,1.7,2.7
		c0.8,0.5,2.1,0.8,3.9,0.9v2.3c-2.3-0.2-5.4-0.3-9.5-0.3c-4.3,0-7.5,0.1-9.5,0.3v-2.3c1.8-0.1,3.1-0.4,3.9-0.9
		c0.8-0.5,1.4-1.4,1.7-2.7c0.3-1.3,0.5-3.4,0.5-6.4V21.9c0-2.9-0.2-5-0.5-6.4c-0.3-1.3-0.9-2.2-1.7-2.7c-0.8-0.5-2.1-0.8-3.9-0.9
		V9.5c2.1,0.2,5.1,0.3,9.1,0.3c0.9,0,3.6-0.1,8.1-0.2l3.2-0.1c3.9,0,7.2,0.9,9.9,2.6c2.7,1.8,4.7,4.2,6.1,7.2c1.4,3,2,6.5,2,10.4
		c0,3-0.5,6.1-1.4,9.2c-0.9,3.1-2.5,5.8-4.6,8.3c-2.2,2.4-5,4.1-8.5,4.9l0.9,0.2c2.2,0.6,4,1.4,5.4,2.6c1.3,1.2,2.4,2.7,3.2,4.7
		c0.8,2,1.4,4.7,1.9,8l1.9,11.9c0.3,2.4,0.6,4.3,1,5.6c0.3,1.3,0.7,2.3,1.2,3c0.4,0.6,1,1,1.7,1c0.8,0,1.5-0.3,2-1
		c0.5-0.7,1.2-1.8,2-3.4l1.1,1.3C115.4,88.7,114.2,90.6,113.1,91.8z M85.4,12.7c-0.8,0.5-1.3,1.5-1.6,2.9c-0.3,1.4-0.4,3.5-0.4,6.2
		v28.6h5c3.3,0,6-0.8,7.9-2.5c1.9-1.7,3.2-3.9,3.9-6.7c0.7-2.8,1.1-6.2,1.1-10.1c0-6.4-1-11.2-2.9-14.4c-1.9-3.3-5.1-4.9-9.5-4.9
		C87.4,11.9,86.2,12.1,85.4,12.7z"/>
</g>
<g>
	<path class="st3" d="M179.1,89.6v2.3c-2-0.2-4.7-0.3-8-0.3c-4.2,0-7.4,0.1-9.5,0.3v-2.3c1.9-0.1,3.2-0.5,4.1-1.1
		c0.8-0.6,1.2-1.7,1.2-3.2c0-1.3-0.3-3.1-0.9-5.5l-4.6-19.1h-18L140.3,73c-1,3.9-1.5,7.1-1.5,9.5c0,2.5,0.5,4.2,1.6,5.3
		c1.1,1.1,2.7,1.6,4.9,1.7v2.3c-2.8-0.2-5.7-0.3-8.6-0.3c-2.2,0-4.1,0.1-5.6,0.3v-2.3c2.5-0.9,4.4-4.2,5.9-10.1L154.6,9h1.2
		l18.2,73.1C175.2,86.9,176.9,89.4,179.1,89.6z M152.5,23.7l-8.6,34.7h16.9L152.5,23.7z"/>
</g>
</svg>
