<?xml version="1.0" encoding="utf-8"?>
<!-- Generator: Adobe Illustrator 19.2.0, SVG Export Plug-In . SVG Version: 6.00 Build 0)  -->
<svg version="1.1" id="logo" xmlns="http://www.w3.org/2000/svg" xmlns:xlink="http://www.w3.org/1999/xlink" x="0px" y="0px"
	 viewBox="0 0 8820 2080" style="enable-background:new 0 0 8820 2080;" xml:space="preserve">
<style type="text/css">
	.st0{fill:#455A64;}
	.st1{fill:#FFFFFF;}
</style>
<rect class="st0" width="8820" height="2080"/>
<rect x="2080" y="100" class="st1" width="6640" height="1880"/>
<g>
	<path class="st0" d="M2420.3,406.1h490.3v29.7l-430,595.1h430v67.2h-528.8v-35.6l423.1-592.1h-384.5V406.1z"/>
	<path class="st0" d="M3485.9,609.7h62.3c0,163.1,0,325.2,0,488.3h-61.3v-96.9c-42.5,72.2-120.6,106.8-193.7,106.8
		c-138.4,0-249.1-98.8-249.1-254c0-154.2,111.7-251.1,250.1-251.1c75.1,0,155.2,34.6,191.8,103.8V609.7z M3110.3,853.8
		c0,115.7,83,191.8,185.8,191.8c252.1,0,252.1-382.5,0-382.5C3193.3,663.1,3110.3,739.2,3110.3,853.8z"/>
	<path class="st0" d="M3751.8,1331.3V609.7h64.3l2,103.8c37.6-69.2,112.7-111.7,197.7-111.7c137.4,4,240.2,98.8,240.2,252.1
		c0,159.1-104.8,254-247.1,254c-75.1,0-152.2-34.6-191.8-108.7v332.1H3751.8z M4189.7,853.8c0-121.6-79.1-187.8-183.9-187.8
		c-107.7,0-182.9,80.1-182.9,188.8s78.1,188.8,182.9,188.8C4108.6,1043.6,4189.7,976.4,4189.7,853.8z"/>
	<path class="st0" d="M4839.1,609.7h62.3c0,163.1,0,325.2,0,488.3h-61.3v-96.9c-42.5,72.2-120.6,106.8-193.7,106.8
		c-138.4,0-249.1-98.8-249.1-254c0-154.2,111.7-251.1,250.1-251.1c75.1,0,155.2,34.6,191.8,103.8V609.7z M4463.5,853.8
		c0,115.7,83,191.8,185.8,191.8c252.1,0,252.1-382.5,0-382.5C4546.5,663.1,4463.5,739.2,4463.5,853.8z"/>
	<path class="st0" d="M5367.9,406.1c234.3,0,347,168,347,339c0,175-104.8,352.9-347,352.9c-80.1,0-164.1,0-244.2,0V406.1H5367.9z
		 M5192.9,1033.7h175c192.8,0,279.7-150.2,276.8-289.6c-3-134.4-90-272.8-276.8-272.8h-175V1033.7z"/>
	<path class="st0" d="M5930.3,881.5c8.9,101.8,88,162.1,184.8,162.1c59.3,0,130.5-23.7,165.1-67.2l44.5,39.5
		c-48.4,60.3-132.5,90.9-209.6,90.9c-145.3,0-253.1-97.9-253.1-254c0-146.3,104.8-252.1,250.1-252.1s261.9,88,243.2,280.7H5930.3z
		 M6293.1,825.2c-2-106.8-82-165.1-179.9-165.1s-170,59.3-182.9,165.1H6293.1z"/>
	<path class="st0" d="M6840.7,709.5c-45.5-41.5-91.9-49.4-144.3-49.4c-71.2-1-134.4,24.7-132.5,79.1c1,57.3,72.2,71.2,133.4,80.1
		c88,12.9,201.6,27.7,201.6,146.3c-2,102.8-101.8,142.3-200.7,142.3c-84,0-167.1-27.7-216.5-94.9l41.5-45.5
		c41.5,56.3,113.7,78.1,175.9,79.1c55.4,0,133.4-15.8,133.4-82c0-64.3-63.3-76.1-141.4-87c-93.9-13.8-191.8-35.6-192.8-136.4
		c0-99.8,100.8-142.3,196.7-141.4c73.1,0,133.4,19.8,183.9,66.2L6840.7,709.5z"/>
	<path class="st0" d="M7146.2,456.5c0,62.3-93.9,62.3-93.9,0C7052.3,394.2,7146.2,394.2,7146.2,456.5z M7065.1,607.7V1098h66.2
		V607.7H7065.1z"/>
	<path class="st0" d="M7756,576.1l45.5,37.6l-52.4,62.3c36.6,40.5,65.2,84,65.2,162.1c0,86-47.4,175.9-147.3,204.6
		c91.9,24.7,144.3,79.1,144.3,160.1c0,122.6-121.6,185.8-251.1,185.8c-139.4,0-248.1-74.1-247.1-201.7h66.2
		c-1,91.9,88,137.4,180.9,137.4c90,0,183.9-34.6,183.9-121.6c0-86-92.9-124.5-183.9-124.5c-150.2,0-256-88-256-240.2
		c0-159.1,133.4-240.2,256-240.2c46.5,0,107.7,13.8,144.3,39.5L7756,576.1z M7371.5,838c0,120.6,83,178.9,188.8,178.9
		c112.7,0,187.8-82,187.8-178.9c0-121.6-91.9-177.9-187.8-177.9C7470.4,660.1,7371.5,715.4,7371.5,838z"/>
	<path class="st0" d="M8373.8,1098V824.2c0-104.8-61.3-160.1-159.1-160.1c-94.9,1-160.1,74.1-160.1,168V1098h-66.2V609.7h63.3l2,82
		c40.5-62.3,103.8-90,170-90c126.5,0,217.5,75.1,217.5,221.4V1098H8373.8z"/>
</g>
<g>
	<path class="st0" d="M2490.1,1681.2h29.6c0.6,10.1,2,18,4.3,23.6c3.2,7.9,8,13.8,14.4,17.9c6.4,4.1,14.3,6.1,23.5,6.1
		c13.3,0,23.7-3.7,31.3-11.2c7.6-7.5,11.4-17.3,11.4-29.6c0-10.5-3-19.3-9-26.5c-6-7.2-18.7-14.1-38-20.7
		c-15.3-5.4-26.2-10.1-32.5-14.1c-9.3-6.1-16.3-13.2-21-21.3c-4.8-8.1-7.1-17.7-7.1-28.6c0-18.6,6.2-34.1,18.5-46.4
		c12.4-12.3,27.9-18.4,46.5-18.4c12.7,0,24.2,3,34.4,9.1c10.2,6.1,18.1,14.5,23.6,25.3c3.6,7,5.7,16.6,6.2,28.8h-29.6
		c-1.2-12-5-21.1-11.4-27.2c-6.4-6.1-14.2-9.2-23.6-9.2c-9.9,0-18.3,3.3-25,10c-6.7,6.7-10,14.9-10,24.5c0,6.4,1.6,12,4.9,17
		c3.2,5,7.9,9.1,14,12.4c4.7,2.6,11.8,5.6,21.3,8.9c16.8,5.8,29,11,36.5,15.7c10.2,6.5,17.9,14.4,23.2,23.7c5.2,9.3,7.9,21,7.9,34.9
		c0,13-2.9,24.9-8.7,35.8c-5.8,10.9-14.2,19.3-25.3,25.1c-11,5.8-23.4,8.7-37.1,8.7c-13.1,0-24.5-2.5-34.2-7.4
		c-9.7-4.9-17.4-10.8-23.1-17.6c-5.7-6.8-9.8-14.1-12.2-21.7C2491.4,1701.2,2490.1,1692,2490.1,1681.2z"/>
	<path class="st0" d="M2932.6,1750v-205.2h-48.7V1518h48.7v-82h29.8v82h55.5v26.7h-55.5V1750H2932.6z"/>
	<path class="st0" d="M3484.4,1518v232h-28v-36h-0.8c-7,13.1-16.9,23.3-29.6,30.7c-12.7,7.3-27.9,11-45.6,11
		c-17.8,0-33.8-3.5-47.9-10.4c-14.2-6.9-25.4-15.9-33.7-26.9c-5.4-7.2-9.7-16.7-12.8-28.6c-3.2-11.9-4.8-26.4-4.8-43.7v-128h29.6
		v127.6c0,28.9,6.2,49.9,18.6,63.3c12.4,13.3,29.9,20,52.4,20c12,0,22.6-2.3,31.9-6.8c9.2-4.6,17.4-11.2,24.4-19.9
		c4.6-5.5,8.5-13.4,11.7-23.6c3.2-10.2,4.9-22.9,4.9-37.9V1518H3484.4z"/>
	<path class="st0" d="M4008.3,1436v314h-29.8v-40.8h-0.8c-6.5,9.1-12.6,16.1-18.4,20.9c-9.5,7.9-20.4,14.1-32.7,18.6
		c-12.3,4.6-25.8,6.8-40.4,6.8c-34.5,0-63.7-11.7-87.6-35.2c-23.9-23.5-35.8-51.7-35.8-84.7c0-22.5,5.4-43.4,16.2-62.5
		c10.8-19.2,25.9-34.2,45.3-44.9c19.4-10.8,40.1-16.2,62-16.2c21,0,40,4.8,57,14.3c12.4,7,24,17.5,34.6,31.5h0.8V1436H4008.3z
		 M3980.4,1634.2c0-15.6-3.9-31-11.6-46.2c-7.7-15.2-19-27.2-33.8-36c-14.8-8.8-31.1-13.3-48.9-13.3c-17,0-32.8,4.1-47.3,12.3
		c-14.6,8.2-26,19.8-34.2,34.7c-8.2,14.9-12.3,31.1-12.3,48.7c0,17.4,4.1,33.4,12.2,48c8.1,14.6,19.6,26,34.3,34.2
		c14.7,8.1,30.5,12.2,47.5,12.2c17,0,32.9-4.2,47.6-12.6c14.8-8.4,26.2-20,34.3-34.8C3976.3,1666.7,3980.4,1650.9,3980.4,1634.2z"/>
	<path class="st0" d="M4297.5,1489.5V1436h29.6v53.4H4297.5z M4297.5,1750v-232h29.6v232H4297.5z"/>
	<path class="st0" d="M4606,1635.5c0-17.4,3.2-33.6,9.5-48.5c6.3-14.9,14.8-27.6,25.3-38.1c10.5-10.5,22.1-18.8,34.8-24.9
		c16.4-8,33.7-12,51.8-12c20.7,0,40.6,5.4,59.8,16.3c19.1,10.8,34.1,26,45,45.5c10.9,19.5,16.4,39.5,16.4,60.1
		c0,20.6-5.4,40.6-16.3,60.1c-10.8,19.5-25.8,34.6-44.9,45.5c-19.1,10.8-39.2,16.3-60.2,16.3c-14.9,0-29.2-2.6-42.8-7.9
		c-13.6-5.2-25.6-12.5-36.1-21.9c-10.5-9.3-18.6-18.8-24.4-28.5c-5.8-9.7-10.2-19.8-13.3-30.3C4607.5,1656.5,4606,1646,4606,1635.5z
		 M4635.6,1635.1c0,16.2,4,31.6,11.9,46.3c7.9,14.7,19.3,26.3,34.2,34.8c14.8,8.5,30.1,12.7,45.7,12.7c15.6,0,30.7-4.1,45.2-12.3
		c14.5-8.2,25.9-19.8,34.1-34.7c8.2-14.9,12.3-31.1,12.3-48.7c0-17.8-4.2-33.9-12.5-48.4c-8.4-14.4-20-25.7-34.8-33.9
		c-14.8-8.1-29.7-12.2-44.4-12.2c-14.9,0-29.9,4.2-44.8,12.7c-15,8.5-26.5,20.2-34.6,35.1
		C4639.6,1601.5,4635.6,1617.7,4635.6,1635.1z"/>
</g>
<g>
	<path class="st1" d="M1040,1634c-22.1,0-40-17.9-40-40V690c0-22.1,17.9-40,40-40s40,17.9,40,40v904
		C1080,1616.1,1062.1,1634,1040,1634z"/>
	<path class="st1" d="M1904,1130h-682c-22.1,0-40-17.9-40-40s17.9-40,40-40h682c22.1,0,40,17.9,40,40S1926.1,1130,1904,1130z"/>
	<path class="st1" d="M1737,1304h-515c-22.1,0-40-17.9-40-40s17.9-40,40-40h515c22.1,0,40,17.9,40,40S1759.1,1304,1737,1304z"/>
	<path class="st1" d="M1512.1,1792.2c-22.1,0-40-17.9-40-40c0-138-112.3-250.3-250.3-250.3c-22.1,0-40-17.9-40-40s17.9-40,40-40
		c44.6,0,87.9,8.7,128.6,25.9c39.3,16.6,74.7,40.4,105,70.7c30.3,30.3,54.1,65.6,70.7,105c17.2,40.7,25.9,84,25.9,128.6
		C1552.1,1774.3,1534.2,1792.2,1512.1,1792.2z"/>
	<path class="st1" d="M858,1130H176c-22.1,0-40-17.9-40-40s17.9-40,40-40h682c22.1,0,40,17.9,40,40S880.1,1130,858,1130z"/>
	<path class="st1" d="M858,1304H343c-22.1,0-40-17.9-40-40s17.9-40,40-40h515c22.1,0,40,17.9,40,40S880.1,1304,858,1304z"/>
	<path class="st1" d="M1737,955h-515c-22.1,0-40-17.9-40-40s17.9-40,40-40h515c22.1,0,40,17.9,40,40S1759.1,955,1737,955z"/>
	<path class="st1" d="M858,955H343c-22.1,0-40-17.9-40-40s17.9-40,40-40h515c22.1,0,40,17.9,40,40S880.1,955,858,955z"/>
	<path class="st1" d="M567.6,1792.4c-22.1,0-40-17.9-40-40c0-44.7,8.7-88,26-128.8c16.7-39.4,40.5-74.8,70.9-105.2
		s65.7-54.2,105.2-70.9c40.8-17.2,84.2-26,128.8-26c22.1,0,40,17.9,40,40s-17.9,40-40,40c-138.3,0-250.9,112.5-250.9,250.9
		C607.6,1774.5,589.7,1792.4,567.6,1792.4z"/>
	<path class="st1" d="M1040,730.8c-22.1,0-40-17.9-40-40s17.9-40,40-40c78.1,0,141.7-63.6,141.7-141.7c0-22.1,17.9-40,40-40
		s40,17.9,40,40c0,59.3-23.1,115-64.9,156.8S1099.2,730.8,1040,730.8z"/>
	<path class="st1" d="M1221.7,549.1c-22.1,0-40-17.9-40-40c0-78.1-63.6-141.7-141.7-141.7c-22.1,0-40-17.9-40-40s17.9-40,40-40
		c59.3,0,115,23.1,156.8,64.9s64.9,97.5,64.9,156.8C1261.7,531.2,1243.8,549.1,1221.7,549.1z"/>
	<path class="st1" d="M858.3,549.1c-22.1,0-40-17.9-40-40c0-59.3,23.1-115,64.9-156.8s97.5-64.9,156.8-64.9c22.1,0,40,17.9,40,40
		s-17.9,40-40,40c-78.1,0-141.7,63.6-141.7,141.7C898.3,531.2,880.4,549.1,858.3,549.1z"/>
</g>
</svg>
