<?xml version="1.0" encoding="utf-8"?>
<!-- Generator: Adobe Illustrator 23.0.1, SVG Export Plug-In . SVG Version: 6.00 Build 0)  -->
<svg version="1.1" id="Слой_1" xmlns="http://www.w3.org/2000/svg" xmlns:xlink="http://www.w3.org/1999/xlink" x="0px" y="0px"
	 viewBox="0 0 2500 508" style="enable-background:new 0 0 2500 508;" xml:space="preserve">
<style type="text/css">
	.st0{fill:#29756E;}
	.st1{fill:#B01E24;}
	.st2{fill:#4284B5;}
</style>
<path class="st0" d="M286.8,387.1l5.9-0.6l6.2-0.9l14.7-1.9l16.2-3.4l16.6-3.7l16.3-4.7l16.9-5l16.9-5.9l12.8-4.1l5.3-2.5l5-3.1
	l4.4-4.1l4.1-4.4l3.1-5.3l80.9-170l129.7,323l1.6,3.8l2.2,3.4l2.8,3.1l3.1,2.5l3.8,2.2l3.7,1.2l4.1,0.9h4.1l110.3,0.3L575.5,75.3
	H456.1L286.8,387.1z"/>
<path class="st1" d="M852.3,101.2V23.1L655.1,130.6l-1.9,0.9l-4.1,1.6l-4.4,1.3h-4.1l-3.4-0.6l-3.8-1.2l-3.1-1.2l-1.2-0.6l1.6,5
	l3.1,10l4.1,10.3l5.3,10.3l6.2,9.4l6.6,7.8l6.2,5.6l5.6,3.1l5.3,1.2h5.3l5-0.6l3.8-1.2l3.1-1.2l1.2-0.9L852.3,101.2L852.3,101.2z"/>
<path d="M1247.5,369.3h-2.2l-1.9,0.3l-1.9,0.3l-1.2,0.6l-1.6,0.9l-1.2,0.9l-1.2,1.2l-0.9,1.6l-15,25.3h67.8v44.7l-5.3,1.6l-4.7,1.3
	l-4.4,0.9l-4.7,0.9l-4.4,0.9l-5.9,0.6l-4.7,0.6l-4.1,0.3h-13.4l-4.7-0.6l-6.6-0.6l-4.1-0.6l-4.1-0.9l-4.1-0.9l-4.1-1.3l-3.7-1.6
	l-4.7-2.5l-3.7-2.2l-3.1-2.5l-3.1-2.5l-3.1-2.8l-2.8-2.8l-2.8-3.1l-2.2-3.4l-2.8-4.7l-1.9-3.7l-1.6-4.1l-1.2-4.1l-0.9-4.1l-0.9-4.4
	l-0.6-4.1l-0.3-4.4V378l0.6-4.1l0.9-3.7l1.2-4.1l1.2-3.7l1.6-3.7l1.9-3.8l1.6-2.2l2.5-3.4l2.8-3.1l2.8-3.1l3.1-2.8l3.1-2.5l4.4-2.8
	l3.7-2.2l4.1-2.2l4.4-1.6l4.1-1.6l5.9-1.6l4.7-0.9l4.7-0.6l4.4-0.6l4.7-0.3l4.7-0.3l4.7-0.3h4.4l4.7,0.3l4.7,0.3l4.7,0.6l4.7,0.6
	l4.7,0.6l4.7,0.9l4.7,0.6l4.7,0.9l4.7,1.3l4.7,0.9l4.7,1.3l4.4,1.2l4.7,1.3l2.2,0.6v-32.5l-5.3-1.6l-4.4-1.6l-4.7-1.3l-4.7-0.9
	l-4.4-0.9l-4.7-0.9l-4.7-0.9l-8.4-1.2l-4.7-0.6l-4.7-0.6l-4.7-0.3l-4.7-0.3l-4.4-0.3h-23.7l-4.7,0.3l-4.7,0.3l-4.7,0.6l-4.4,0.6
	l-4.4,0.6l-4.7,1.3l-4.4,1.2l-5.9,1.6l-4.4,1.2l-4.1,1.6l-4.4,1.9l-3.7,1.9l-4.1,1.9l-3.7,2.5l-3.8,2.2l-4.4,3.1l-3.4,2.8l-3.4,2.8
	l-3.1,3.1l-3.1,3.4l-3.1,3.1l-2.5,3.4l-2.5,3.8l-2.5,3.7l-2.2,3.7l-2.8,5.3l-1.6,3.8l-1.6,4.4l-1.6,4.1l-0.9,4.4l-1.2,4.4l-0.6,4.4
	l-0.6,4.4l-0.3,5.6v8.7l0.6,4.4l0.6,4.7l0.6,4.4l1.2,4.4l0.9,4.4l1.6,4.1l1.6,4.1l2.2,4.7l1.9,4.1l2.2,3.7l2.2,3.8l2.5,3.7l2.8,3.4
	l2.5,3.4l3.1,3.1l3.8,3.4l3.7,2.8l3.8,2.5l4.1,2.5l4.1,2.2l4.1,2.2l4.1,2.2l4.4,1.6l4.1,1.9l4.4,1.6l5,1.6l4.7,0.9l4.7,0.9l4.7,0.6
	l4.7,0.6l4.7,0.6l5,0.3l4.4,0.6l5,0.3h4.7l8.1,0.3l4.7-0.3h4.4l4.7-0.3l5-0.3l4.7-0.3l4.7-0.6l4.7-0.6l4.7-0.6l5-0.3l4.4-0.9
	l4.7-0.6l4.7-0.9l4.7-0.9l4.7-0.6l4.7-1.2l4.7-1.3l4.7-0.9l4.7-1.3l4.1-1.2v-99.7H1247.5L1247.5,369.3z M1433.7,71.9l3.4,0.3
	l4.1,0.9l3.1,0.9l2.5,0.9l2.8,1.6l2.2,1.6l2.2,1.9l2.2,2.2l2.2,2.8l1.3,2.8l1.2,2.5l0.6,2.8l0.6,3.1v4.4l-0.3,2.8l-0.6,2.5l-0.9,2.8
	l-1.6,2.5l-1.9,2.5l-1.9,2.5l-3.1,2.8l-2.8,1.9l-3.1,1.6l-3.1,0.9l-3.1,1.2l-3.1,0.6l-3.4,0.3h-30.9l-1.6,0.3l-1.9,0.6l-1.2,0.3
	l-1.6,0.9l-1.3,1.2l-0.9,1.2l-0.6,0.6l-14.1,25.6l44.4-0.3l45,67.2h53.1l-51.5-78.4l4.4-1.2l3.7-1.6l3.7-1.9l5-2.5l3.4-2.2l3.1-2.2
	l3.1-2.5l2.8-2.8l2.5-3.1l3.1-4.1l2.2-3.1l1.9-3.4l1.2-3.4l1.2-3.1l0.9-3.4l0.3-4.1l0.3-3.7v-2.8l-0.3-3.7l-0.6-3.7l-0.9-3.7
	l-1.2-3.7l-1.2-3.7l-1.9-3.7l-2.2-3.4l-2.5-3.4l-2.5-3.1l-2.8-2.8l-2.8-2.8l-3.1-2.5l-3.4-2.5l-3.4-1.9l-3.7-1.9l-3.7-1.6l-3.7-1.2
	l-3.7-1.2l-4.1-0.9l-4.1-0.3l-4.1-0.3l-4.1-0.3l-3.4,0.3h-131.8v182.1h47.5V71.9l65.9-0.3L1433.7,71.9L1433.7,71.9z M1659.3,30
	l25.9-30h-44.4l-14.7,30H1659.3z M2146.7,224h47.8V74h53.4l1.6-0.3l1.9-0.3l1.2-0.3l1.2-0.6l0.9-0.6l0.6-0.9l0.9-0.9l0.3-0.9
	l0.6-1.2l0.3-0.6l0.3-0.3l8.7-24.7h-171.8l-1.6,0.6l-1.2,0.3l-1.2,0.9l-1.2,0.9l-0.9,0.9l-0.9,1.2l-0.6,1.2l-0.3,0.6l-12.2,25h72.2
	V224z M1521.5,397.1l3.7-1.3l3.7-1.2l3.4-1.9l4.7-2.5l3.1-1.9l2.8-2.5l2.8-2.5l2.5-2.8l2.2-3.1l2.2-3.1l1.9-3.4l1.2-3.7l1.2-3.7
	l0.9-3.8l0.6-4.1l0.3-4.1V348l-0.3-4.1l-0.6-3.7l-0.6-3.8l-1.2-3.7l-1.2-3.4l-1.9-3.7l-1.6-2.5l-2.2-3.4l-2.5-3.1l-2.8-2.8l-2.8-2.8
	l-4.7-3.4l-3.7-2.2l-3.7-1.9l-4.1-1.9l-6.6-2.2l-4.4-1.3l-4.7-0.9l-4.4-0.9l-4.4-0.6l-4.7-0.6l-4.7-0.3l-4.7-0.3H1370v182.5h47.8
	V327.4h63.7l2.2,0.3l3.1,0.3l3.1,0.6l2.8,0.9l3.7,1.9l2.5,1.2l1.9,1.6l1.9,1.6l1.9,2.8l1.3,2.5l1.2,2.8l0.9,2.8l0.6,2.5l0.3,2.5v1.6
	l-0.3,2.5l-0.3,2.8l-0.9,2.2l-1.2,2.8l-1.6,2.8l-1.9,2.2l-3.1,3.4l-2.8,1.6l-2.8,1.9l-2.8,1.3l-3.4,1.2l-3.1,0.6l-3.1,0.6h-30.6
	l-1.2,0.3l-1.2,0.6l-1.6,0.6l-1.2,0.6l-1.2,0.9l-1.2,0.9l-0.9,0.9l-0.9,0.9l-0.6,1.3l-12.5,23.4h41.5l47.8,66.9h51.9l-52.2-78.4
	L1521.5,397.1L1521.5,397.1z M964.8,294L872,476.8h51.2l19.1-41.2h55.6l2.2-0.6l2.2-0.6l1.9-0.9l1.9-1.2l1.6-1.6l1.6-1.6l1.2-1.9
	l0.3-0.6l14.4-23.7h-67.8l38.1-80l68.7,153.4h49.4L1029.1,294H964.8z M2053.2,41.6h-46.6V224h46.6V41.6z M1123.2,197.5l3.4,3.1
	l3.4,2.8l3.4,2.8l3.7,2.5l3.7,2.5l3.7,2.5l4.1,2.2l4.1,1.9l3.1,1.2l4.4,1.2l4.4,1.6l4.4,1.2l4.7,1.2l4.4,0.9l4.7,0.6l4.4,0.9
	l5.6,0.6l4.7,0.3l4.7,0.3h4.7l4.7,0.3h4.7l4.7-0.3l6.9-0.3l4.7-0.3l4.7-0.3l4.4-0.6l4.7-0.6l4.4-0.9l4.4-0.9l4.7-0.9l4.4-0.9
	l4.7-1.6l4.4-0.9l4.4-1.6l4.4-1.6l3.4-0.9v-34.4l-1.9,0.9l-4.4,1.6l-4.4,1.9l-4.4,1.2l-4.4,1.6l-4.4,1.2l-4.7,0.9l-6.6,1.2l-4.1,0.6
	l-4.7,0.6l-4.4,0.6l-4.4,0.3l-4.7,0.3h-9.4l-4.4,0.3l-4.1-0.3l-4.4-0.3l-4.1-0.6l-4.4-0.9l-4.1-1.2l-4.7-1.2l-3.8-1.2l-3.7-1.6
	l-3.4-1.9l-3.4-2.2l-3.1-2.2l-3.1-2.5l-4.1-3.7l-2.5-3.1l-2.5-3.1l-2.5-3.4l-1.9-3.4l-1.6-3.7l-1.6-3.7l-1.6-5.9l-0.9-4.1l-0.6-4.4
	v-12.5l0.6-4.1l0.9-5.9l0.9-3.7l1.2-4.1l1.2-3.7l1.9-3.4l1.9-3.4l3.1-4.4l2.8-3.1l2.8-2.8l3.4-2.8l3.1-2.5l3.4-2.5l5.6-3.1l3.8-1.9
	l4.4-1.6l4.1-1.2l4.4-1.2l5.9-1.2l4.4-0.3l4.7-0.6h13.7l6.6,0.3l4.7,0.3l4.7,0.6l4.7,0.6l4.1,0.6l4.7,0.9l4.4,0.9l4.7,1.2l4.4,0.9
	l4.4,1.6l4.4,1.2l2.2,0.9l5.3,1.6l0.3-34.1l-2.8-0.6l-4.4-1.2l-4.4-1.6l-4.7-1.2l-4.4-0.9l-4.7-1.2l-4.4-0.9l-4.7-0.9l-5.3-0.9
	l-4.7-0.6l-4.4-0.6l-4.7-0.6l-4.7-0.3l-4.7-0.3h-18.1l-4.4,0.3l-4.7,0.3l-4.7,0.6l-4.4,0.6l-4.4,0.9l-4.4,0.9l-4.4,1.2l-4.4,1.2
	l-5,1.6l-4.1,1.6l-4.1,1.6l-4.4,1.9l-3.7,2.2l-4.1,2.2l-3.8,2.2l-3.7,2.5l-3.4,2.8l-3.4,2.8l-3.1,2.8l-3.1,3.1l-3.1,3.1l-2.8,3.4
	l-2.8,3.4l-2.5,3.7l-2.5,3.4l-1.9,4.1l-2.2,3.7l-2.5,5.9l-1.6,4.1l-1.3,4.1l-1.2,4.4l-0.9,4.4l-0.9,4.4l-0.3,6.2l-0.3,4.4v8.7
	l0.6,4.4l0.6,4.4l0.6,4.4l1.2,4.1l1.3,4.4l2.2,6.2l1.9,4.1l1.9,3.7l2.2,4.1l2.2,3.7l2.5,3.4l2.5,3.4l2.8,3.7L1123.2,197.5
	L1123.2,197.5z M1604,476.8h48.1V294.6h-47.8L1604,476.8L1604,476.8z M2178.5,294.6h-44.7v182.1H2276l13.7-32.5h-111.2L2178.5,294.6
	L2178.5,294.6z M1743.9,192.1H1598V72.5h139l-11.6-31.2h-173.7v182.1h176.5L1743.9,192.1L1743.9,192.1z M2412.5,443.6h-59V325.9h139
	l-10.9-31.9h-175.9v182.5h179.6l14.4-32.8H2412.5z"/>
<path d="M2387.2,367.7l-1.2,0.3h-1.6l-1.9,0.3l-1.6,0.6l-1.2,0.9l-1.6,0.9l-1.2,1.3l-0.3,0.6l-18.1,26.9h79.7l1.2-0.3l1.6-0.3
	l1.6-0.6l1.6-0.6l1.2-0.9l1.2-1.2l0.6-0.9l19.4-26.9L2387.2,367.7L2387.2,367.7z M2116.3,379.6l-0.3-4.4l-0.6-3.4l-0.6-4.4l-0.9-4.1
	l-1.2-4.4l-1.2-4.1l-1.9-4.1l-1.6-4.1l-2.2-3.8l-2.2-3.7l-2.8-3.7l-2.8-3.4l-2.8-3.4l-3.1-3.4l-3.1-3.1l-3.4-3.1l-3.4-2.8l-4.1-2.8
	l-3.7-2.5l-4.1-2.5l-4.1-2.2l-4.4-1.9l-4.1-2.2l-4.1-1.6l-4.4-1.6l-4.4-1.6l-4.4-1.2l-4.4-1.3l-4.7-0.9l-4.4-0.9l-4.7-0.9l-4.7-0.3
	l-4.4-0.3l-4.4-0.3h-4.1l-1.6-0.3h-2.2l-3.7,0.3h-3.7l-4.4,0.3l-4.4,0.3l-4.7,0.3l-4.4,0.6l-4.7,0.9l-4.4,0.9l-4.4,0.9l-4.4,1.3
	l-4.4,1.2l-4.1,1.6l-4.1,1.9l-4.4,1.9l-3.7,1.9l-4.4,2.8l-3.4,2.2l-3.7,2.8l-3.4,2.8l-3.4,2.8l-3.1,3.1l-3.1,3.4l-2.8,3.1l-3.1,4.1
	l-2.5,3.4l-2.5,3.7l-2.2,3.7l-1.9,4.1l-1.5,4.1l-1.9,4.1l-1.2,4.4l-1.6,5.9l-0.6,4.4l-0.6,4.7l-0.6,4.4v12.5l0.6,4.7l0.3,4.4
	l0.9,4.4l0.9,4.4l0.9,4.1l1.6,4.7l1.6,4.4l1.9,4.1l1.9,3.7l2.2,4.1l2.5,3.7l3.7,5.6l2.8,3.4l3.1,3.1l3.1,3.4l3.1,3.1l3.4,2.8
	l4.1,3.1l3.7,2.5l3.7,2.2l4.1,2.5l4.1,1.9l4.4,2.2l4.1,1.6l4.4,1.9l5.9,1.6l4.4,1.3l4.7,0.9l4.7,0.9l4.4,0.6l4.7,0.6l4.4,0.3
	l4.7,0.6h4.7l4.1,0.3h5l4.7-0.3l4.7-0.3l4.7-0.3l4.4-0.6l7.5-1.2l4.4-0.9l4.4-0.9l4.4-1.3l4.4-1.2l4.4-1.9l4.1-1.6l4.1-1.9l5.9-3.1
	l4.1-2.2l3.7-2.2l3.4-2.5l3.4-2.8l3.4-2.8l3.1-3.1l3.1-3.1l4.1-5l2.5-3.7l2.5-3.8l2.2-4.1l1.9-3.7l1.9-4.1l1.6-4.4l1.6-4.1l0.9-4.4
	l1.2-4.4l0.6-4.4l0.6-4.4l0.6-4.7l0.3-4.4v-2.5l-0.3-4.4L2116.3,379.6L2116.3,379.6z M2065.1,387.4v3.8l-0.3,4.4l-0.6,4.4l-0.6,3.4
	l-0.9,4.4l-0.9,4.4l-1.6,4.1l-1.6,4.1l-1.6,4.1l-2.2,4.1l-2.2,3.4l-2.8,3.1l-2.8,2.8l-2.8,2.8l-3.1,2.8l-3.7,2.2l-3.4,2.2l-3.7,1.6
	l-3.7,1.3l-3.7,1.2l-3.7,0.9l-5.9,0.9l-4.4,0.3h-8.1l-4.4-0.6l-4.1-0.6l-4.1-0.9l-4.1-1.2l-4.1-1.3l-4.1-1.6l-4.7-2.5l-3.4-2.2
	l-3.1-2.5l-3.1-2.8l-2.8-2.8l-4.4-5.3l-2.2-3.1l-1.9-3.4l-1.9-3.8l-1.6-3.7l-1.6-4.1l-1.2-4.1l-0.9-4.1l-0.9-5.9l-0.6-4.4v-8.4
	l0.6-5.3l0.6-4.7l0.6-4.4l0.9-4.1l1.2-4.4l1.6-3.7l1.6-4.1l2.2-3.4l1.9-3.7l2.8-3.1l2.5-3.1l2.8-2.8l3.1-2.5l4.7-3.4l3.4-1.9
	l3.7-1.9l3.7-1.6l3.7-1.3l3.7-0.9l6.2-0.9l5.9-0.6h4.1l1.9-0.3l6.2,0.6l7.5,1.3l3.7,0.9l4.1,1.3l3.7,1.6l3.4,1.6l3.7,2.2l3.1,2.2
	l3.1,2.5l3.1,2.8l2.8,2.8l2.8,3.1l2.2,3.4l2.2,3.4l1.6,3.7l1.6,3.7l1.6,3.8l0.9,3.7l0.6,3.1l0.6,4.4l0.6,4.4l0.6,4.1L2065.1,387.4
	L2065.1,387.4L2065.1,387.4z M1634,115.9h-1.6l-1.9,0.3l-2.2,0.3l-1.6,0.9l-1.9,0.6l-1.2,1.2l-1.6,1.6l-19.4,26.2h77.2l1.9-0.3
	l1.9-0.3l1.6-0.6l1.9-0.9l1.6-1.2l1.3-0.9l1.2-1.6l0.9-0.9l16.9-24.4L1634,115.9L1634,115.9z M1898,220.3l6.2-1.6l4.4-1.6l4.1-1.6
	l4.1-1.6l4.1-2.2l6.2-3.4l3.7-2.2l3.4-2.2l3.7-2.5l3.1-2.8l3.1-3.1l2.8-2.8l3.7-4.4l2.5-3.4l2.2-3.4l2.2-3.7l2.2-4.1l1.6-4.1
	l1.9-4.7l0.9-4.7l1.2-4.4l0.9-4.4l0.6-4.4l0.3-4.4l0.3-4.7l0.3-4.1l0.3-4.1v-3.4l-0.3-4.1l-0.6-4.4l-0.6-4.4l-0.9-4.1l-1.2-4.4
	l-1.2-4.1l-1.6-4.1l-1.9-4.1l-1.9-3.7l-2.2-3.7l-2.5-3.7l-3.1-4.4l-2.8-3.4l-3.1-3.1l-3.1-3.1l-3.4-2.8l-3.4-2.2l-3.4-2.5l-3.4-2.2
	l-3.7-2.2l-3.4-1.9l-3.7-1.9l-3.7-1.6l-4.1-1.6l-3.7-1.2l-4.1-1.2l-3.7-1.2l-4.1-0.9l-4.1-0.9l-4.1-0.6l-3.7-0.6l-4.1-0.3l-3.7-0.3
	l-4.1-0.3h-1.2l-2.5,0.3h-96.5v182.1h106.8l4.4-0.3l4.4-0.6l4.4-0.6l4.7-0.9L1898,220.3L1898,220.3z M1886.7,189.3l-3.7,1.2
	l-3.8,0.9l-3.7,0.6l-3.7,0.6h-55.9V71.9h45.9l4.4,0.3h1.9l2.2,0.3l3.7,0.9l4.1,0.9l3.7,1.2l3.7,1.6l3.7,1.9l3.4,1.9l3.4,2.2l3.4,2.5
	l2.8,2.8l2.5,2.2l2.8,3.1l2.2,3.1l2.2,3.4l1.6,3.4l1.9,3.7l1.2,3.4l0.9,4.1l0.6,2.5l0.9,4.1l0.6,4.1v11.6l-0.6,4.1l-0.6,4.1
	l-1.2,4.1l-0.9,3.4l-1.2,4.1l-1.6,4.1l-1.9,3.7l-2.2,3.7l-2.2,3.7l-2.5,3.4l-2.5,3.1l-2.5,2.8l-3.1,2.2l-3.1,2.2l-3.4,1.9
	L1886.7,189.3L1886.7,189.3z M1868,437.4l-3.4,1.3l-4.7,1.2l-4.4,1.3l-4.7,1.2l-4.7,0.9l-4.4,0.9l-4.7,0.9l-4.7,0.3l-4.1,0.6
	l-4.7,0.6l-4.4,0.3l-4.4,0.3h-4.7l-4.4-0.3l-4.7-0.3l-5.9-0.3l-4.1-0.6l-4.4-0.6l-3.8-0.9l-4.1-1.6l-3.8-1.2l-4.4-2.2l-3.7-1.9
	l-3.1-2.2l-3.4-2.2l-3.1-2.5l-3.7-4.1l-2.5-3.1l-2.5-3.1l-2.2-3.4l-1.9-3.4l-1.6-3.7l-1.9-6.3l-0.9-4.4l-0.3-4.4l-0.3-4.1v-4.4
	l0.3-4.4l0.3-4.1l0.6-4.1l0.6-4.1l1.2-3.7l1.2-3.8l1.6-3.4l2.5-4.4l2.2-3.4l2.5-3.4l2.8-2.8l2.8-2.8l3.1-2.8l3.4-2.5l3.7-2.2
	l3.7-1.9l4.1-1.9l4.1-1.6l4.1-1.3l4.7-0.9l4.4-0.6l4.4-0.6l4.7-0.3l4.4-0.3l5.9,0.3l4.4,0.3l5,0.6l4.7,0.3l4.4,0.9l4.7,0.6l4.7,0.9
	l4.4,1.2l4.7,1.3l4.4,1.2l4.7,1.2l4.4,1.6l4.4,1.6h0.3l5,1.9v-35l-1.6-0.6l-3.4-1.3l-0.9-0.3l-4.4-1.6l-4.7-1.6l-4.4-1.3l-5.6-1.2
	l-4.4-0.9l-4.7-0.9l-4.7-0.6l-4.7-0.6l-9.1-0.9l-4.7-0.3l-4.7-0.3l-4.7-0.3l-5.6-0.3h-9.1l-4.7,0.3l-4.7,0.3l-7.2,0.9l-4.7,0.6
	l-4.4,0.9l-4.4,0.9l-4.4,1.3l-4.1,1.6l-5.6,2.2l-4.1,1.6l-4.1,2.2l-3.7,2.2l-4.1,2.2l-3.4,2.5l-4.4,3.4l-3.4,2.8l-3.1,2.8l-3.4,3.1
	l-2.8,3.4l-2.8,3.4l-4.1,5l-2.5,4.1l-2.2,3.8l-2.2,4.1l-1.6,4.1l-1.6,3.1l-1.6,4.4l-1.2,4.1l-0.9,4.4l-0.9,4.4l-0.9,7.2l-0.3,4.4
	v8.8l0.3,5.6l0.6,4.4l0.9,4.4l0.9,4.4l0.9,4.4l2.2,5.6l1.6,4.1l1.9,4.1l2.2,3.8l2.2,4.1l3.1,5l2.8,3.4l2.8,3.4l2.8,3.4l3.4,3.1
	l4.4,3.7l3.4,2.8l3.7,2.8l3.7,2.2l4.4,2.8l4.1,1.9l4.4,1.9l4.4,1.6l4.1,1.6l4.4,1.2l8.7,1.9l4.7,0.6l4.7,0.6l4.7,0.6l4.7,0.3
	l7.2,0.3l4.7,0.3h9.4l4.7-0.3h4.7l5-0.6l4.4-0.3l4.1-0.3l4.7-0.6l4.7-0.6l4.7-0.9l4.4-0.9l4.7-1.2l4.7-1.3l4.4-1.2l4.4-1.3l1.9-0.6
	l0.3-0.3l5-1.6l0.3-34.1l-4.7,1.9L1868,437.4L1868,437.4z"/>
<path class="st2" d="M852.3,231.8v-92.5l-65,36.9l-62.8,35.3L665.8,244l-53.4,29.1l-48.1,25.6l-43.1,22.2l-39.4,19.1l-35.3,15.9
	l-33.1,14.1l-31.6,11.6l-31.2,10.3l-30.3,8.7l-30.3,7.2l-29.4,6.3l-27.8,4.7l-26.2,3.7l-23.4,2.5l-20.9,1.2l-17.5,0.9l-15.3-0.6
	l-23.1-2.5l-15.9-3.7l-11.6-4.7l-9.4-6.2l-7.5-7.2l-5.9-8.4l-3.4-9.4l-1.2-10.9l1.2-13.1l4.7-15l7.5-16.3l10-16.6l12.5-16.6
	l14.1-15.9l14.4-14.7l14.7-12.8l15.9-12.5l17.8-13.4l18.4-12.2l17.8-10.9l18.4-10.3l19.1-9.7l19.1-8.4l19.4-7.8l18.4-6.2l17.2-5.3
	l15.3-3.4l14.1-2.2l14.1-0.6l14.7,1.2l7.8,0.9l-4.1-14.4l-7.2-24.4l-5.6-17.2l-4.4-10.3l-3.4-5.6l-3.4-3.4l-3.8-2.5l-5.9-2.2
	l-9.4-0.9l-13.4,0.6l-16.9,2.2l-19.1,4.1l-19.7,5.6l-20.6,7.5l-20,8.4l-19.1,8.7l-18.4,9.7l-18.1,10.3l-18.4,11.6l-19.1,12.8
	L109,165.6L92.5,179l-14.7,12.2l-13.1,12.5l-12.8,13.1L40,231.2l-10.9,15l-9.7,15.3l-7.8,16.6l-6.3,16.6l-3.4,16.9l-1.6,16.2
	l1.2,17.5l3.1,18.4l5,18.4l6.6,17.5l7.5,15.9l8.8,14.1l10.3,13.7l11.9,12.5l12.8,10.9l13.7,9.4l15.3,7.5l18.1,6.6l21.6,5.9l23.1,4.1
	l23.7,2.5l23.4,0.6l22.5-1.3l20.3-1.6l19.4-2.8l19.4-3.4l19.4-3.8l18.1-4.4l17.8-4.4l18.7-5.6l19.4-5.6l19.4-6.2l19.7-6.9l19.7-7.5
	l19.7-7.8l19.7-8.4l20-9.4l21.2-10.3l12.2-6.6l15.9-8.4l21.9-11.9l31.9-17.2l44.1-24.4l58.4-32.2l70-39.1L852.3,231.8L852.3,231.8z"
	/>
</svg>
