<?xml version="1.0" encoding="utf-8"?>
<!-- Generator: Adobe Illustrator 19.2.0, SVG Export Plug-In . SVG Version: 6.00 Build 0)  -->
<svg version="1.1" id="fulllogo" xmlns="http://www.w3.org/2000/svg" xmlns:xlink="http://www.w3.org/1999/xlink" x="0px" y="0px"
	 viewBox="0 0 170.8 89.3" style="enable-background:new 0 0 170.8 89.3;" xml:space="preserve">
<style type="text/css">
	.st0{fill:#FB6A6A;}
</style>
<path class="st0" d="M13.2,70.4l-2,11.1c0,0.2-0.2,0.3-0.4,0.3H3.2c-2.1,0-3.5-1.7-3.1-3.8l0.3-1.6c0.4-2.1,2.4-3.8,4.5-3.8h6.3
	c0.2,0,0.3-0.1,0.4-0.3l0.3-2c0.2-1.3-0.6-2.4-2-2.4H3.5c-0.2,0-0.3-0.2-0.2-0.3l0.2-0.9h6.7C12.2,66.6,13.5,68.3,13.2,70.4z
	 M10,80.5l1.2-6.7c-0.1,0.1-0.2,0.1-0.3,0.1H4.6c-1.3,0-2.6,1.1-2.8,2.4l-0.3,1.8c-0.2,1.3,0.6,2.4,2,2.4H10z"/>
<path class="st0" d="M17,60.2h1c0.2,0,0.3,0.2,0.3,0.3l-3.7,21.3h-1c-0.2,0-0.3-0.1-0.3-0.3L17,60.2z"/>
<path class="st0" d="M27.6,58.9l-0.2,0.9c0,0.2-0.2,0.3-0.4,0.3h-2.7c-1.3,0-2.6,1.1-2.8,2.4l-0.8,4.6c0.1-0.3,0.5-0.6,1-0.6h3.5
	L25,67.6c0,0.2-0.2,0.3-0.4,0.3h-4.1l-2.4,13.6c0,0.2-0.2,0.3-0.4,0.3h-1.1l3.4-19.1c0.4-2.1,2.3-3.8,4.5-3.8H27.6z"/>
<path class="st0" d="M37.3,70.4l-2,11.1c0,0.2-0.2,0.3-0.4,0.3h-7.7c-2.1,0-3.5-1.7-3.1-3.8l0.3-1.6c0.4-2.1,2.4-3.8,4.5-3.8h6.3
	c0.2,0,0.3-0.1,0.4-0.3l0.3-2c0.2-1.3-0.6-2.4-2-2.4h-6.4c-0.2,0-0.3-0.2-0.2-0.3l0.2-0.9h6.7C36.3,66.6,37.7,68.3,37.3,70.4z
	 M34.2,80.5l1.2-6.7c-0.1,0.1-0.2,0.1-0.3,0.1h-6.4c-1.3,0-2.6,1.1-2.8,2.4l-0.3,1.8c-0.2,1.3,0.6,2.4,2,2.4H34.2z"/>
<path class="st0" d="M38.8,70.1h7.3l-0.2,0.9c0,0.2-0.3,0.4-0.5,0.4h-7.3l0.2-0.9C38.4,70.2,38.6,70.1,38.8,70.1z"/>
<path class="st0" d="M47.5,70.5c0.4-2.1,2.3-3.8,4.5-3.8h6.3L58,67.6c0,0.2-0.2,0.3-0.4,0.3h-5.9c-1.3,0-2.6,1.1-2.8,2.4l-1.4,7.8
	c-0.2,1.3,0.6,2.4,2,2.4h5.9c0.2,0,0.3,0.2,0.2,0.3l-0.2,0.9h-6.3c-2.1,0-3.5-1.7-3.1-3.8L47.5,70.5z"/>
<path class="st0" d="M61,82.1c-2.1,0-3.5-1.7-3.1-3.8l1.4-8c0.4-2.1,2.4-3.8,4.5-3.8h4.6c2.1,0,3.4,1.7,3.1,3.8l-1.4,8
	c-0.4,2.1-2.4,3.8-4.4,3.8H61z M63.6,67.7c-1.3,0-2.6,1.1-2.8,2.4l-1.5,8.3c-0.2,1.3,0.6,2.4,2,2.4h4.6c1.3,0,2.6-1.1,2.8-2.4
	l1.5-8.3c0.2-1.3-0.6-2.4-1.9-2.4H63.6z"/>
<path class="st0" d="M84.3,70.3c0.2-1.3-0.7-2.4-2-2.4h-6.7c-0.2,0-0.4,0.2-0.4,0.3l-2.3,13.3c0,0.2-0.2,0.3-0.4,0.3h-1L73.9,68
	c0.1-0.7,0.9-1.4,1.6-1.4h7c2.1,0,3.5,1.7,3.1,3.8l-2,11.4h-1.1c-0.2,0-0.3-0.2-0.2-0.3L84.3,70.3z"/>
<path class="st0" d="M96.7,76.1l-8.9-3.4c-0.4-0.2-0.7-0.7-0.6-1.2l0.3-1.5c0.4-2.1,2.3-3.4,4.4-3.4h7l-0.2,0.9
	c0,0.2-0.2,0.3-0.4,0.3h-6.7c-1.3,0-2.6,0.9-2.8,2.2l-0.2,1.1c0,0.2,0.1,0.4,0.2,0.4l8.8,3.4c0.4,0.2,0.7,0.7,0.6,1.2l-0.4,2.3
	c-0.4,2.1-2.3,3.4-4.4,3.4h-8.2l0.2-0.9c0-0.2,0.2-0.3,0.4-0.3h7.9c1.3,0,2.6-0.7,2.8-2l0.3-2C97,76.4,96.9,76.2,96.7,76.1z"/>
<path class="st0" d="M102.2,66.6h1c0.2,0,0.3,0.2,0.3,0.3l-2,11.2c-0.2,1.3,0.6,2.4,2,2.4h4.6c1.3,0,2.6-1.1,2.8-2.4l2-11.2
	c0-0.2,0.2-0.3,0.4-0.3h1l-2,11.5c-0.4,2.1-2.3,3.8-4.4,3.8h-4.6c-2.1,0-3.5-1.7-3.1-3.8L102.2,66.6z"/>
<path class="st0" d="M117.5,60.2h1c0.2,0,0.3,0.2,0.3,0.3L115,81.8h-1c-0.2,0-0.3-0.1-0.3-0.3L117.5,60.2z"/>
<path class="st0" d="M124.2,80.9l-0.2,0.9h-3c-2.1,0-3.5-1.7-3.1-3.8l3.4-19.1h1c0.2,0,0.3,0.2,0.3,0.3l-1.4,8
	c0.1-0.3,0.5-0.6,1-0.6h3.7l-0.2,0.9c0,0.2-0.2,0.3-0.4,0.3h-4.2l-1.8,10.3c-0.2,1.3,0.6,2.4,2,2.4h2.7
	C124.1,80.6,124.3,80.7,124.2,80.9z"/>
<path class="st0" d="M127.8,66.6h1c0.2,0,0.3,0.1,0.3,0.3l-2.6,14.9h-1c-0.2,0-0.3-0.2-0.3-0.3L127.8,66.6z M129,59.9h1.1
	c0.2,0,0.3,0.2,0.2,0.3l-0.3,1.4H129c-0.2,0-0.3-0.1-0.3-0.3L129,59.9z"/>
<path class="st0" d="M142,70.3c0.2-1.3-0.7-2.4-2-2.4h-6.7c-0.2,0-0.4,0.2-0.4,0.3l-2.3,13.3c0,0.2-0.2,0.3-0.4,0.3h-1l2.5-13.9
	c0.1-0.7,0.9-1.4,1.6-1.4h7c2.1,0,3.5,1.7,3.1,3.8l-2,11.4h-1.1c-0.2,0-0.3-0.2-0.2-0.3L142,70.3z"/>
<path class="st0" d="M157.5,67l-3.3,18.5c-0.4,2.1-2.4,3.8-4.5,3.8h-7.2l0.2-1c0-0.2,0.2-0.3,0.4-0.3h6.9c1.3,0,2.6-1,2.8-2.3
	l0.7-4.2c-0.2,0.3-0.5,0.4-0.9,0.4l-5.6,0c-2.1,0-3.5-1.7-3.1-3.8l1.3-7.6c0.4-2.1,2.4-3.8,4.5-3.8h7.5
	C157.4,66.6,157.5,66.7,157.5,67z M153.2,80.6c0.3,0,0.6-0.2,0.6-0.5l2.1-12.2h-6.4c-1.3,0-2.6,1.1-2.8,2.4l-1.4,7.8
	c-0.2,1.3,0.6,2.4,2,2.4H153.2z"/>
<path class="st0" d="M43.9,6.6L45.1,0L11.8,0.1l-1.2,7L43.9,7C43.9,6.9,43.9,6.7,43.9,6.6z"/>
<path class="st0" d="M131.2,47.5L130,54l31.3,0l1.2-7l-31.3,0C131.2,47.2,131.2,47.3,131.2,47.5z"/>
<path class="st0" d="M36.4,53.5c-1.6-1.9-2.8-4.1-3.5-6.5H3.6l-1.2,7h34.5C36.7,53.8,36.5,53.7,36.4,53.5z"/>
<polygon class="st0" points="105.5,39 164,38.9 165.4,30.9 106.9,31 "/>
<path class="st0" d="M32.3,37.4l0.6-3.4c0.2-1,0.4-2,0.8-3L6.4,31.1l-1.4,8L32.1,39C32.2,38.5,32.3,37.9,32.3,37.4z"/>
<path class="st0" d="M46.6,16L9,16.1l-1.2,7L38,23C40.3,20.1,43.3,17.7,46.6,16z"/>
<path class="st0" d="M109.5,16.6l-1.1,6.4h58.5l1.2-7h-58.3C109.6,16.2,109.5,16.4,109.5,16.6z"/>
<polygon class="st0" points="139.3,1.1 138.3,7 169.6,7 170.8,0 139.5,0 "/>
<path id="logo_x5F__x5F_c" class="st0" d="M103.6,15.6l-4.1,23.3c-0.6,3.6,1.7,6.4,5.4,6.4h19.5c0.7,0,1.1,0.5,1,1.2l-1.4,7.8h-20.7
	c-8.8,0-14.8-7-13.3-15.8l4-22.4c1.5-8.8,10-15.8,18.8-15.8h20.7L132.1,8c-0.1,0.6-0.7,1.1-1.4,1.1h-19.5
	C107.6,9.1,104.2,12,103.6,15.6z"/>
<path id="logo_x5F__x5F_a" class="st0" d="M87.7,15.2l-6.3,35.5c-0.3,2-2.2,3.5-4.1,3.5h-1.2h-4.8H51.5c-8.9,0-14.8-7-13.3-15.8
	l0.6-3.4c1.5-8.8,9.9-15.8,18.8-15.8h18.6c0.7,0,1.3-0.5,1.4-1.2l0.5-2.7C78.8,11.9,77,9,72.7,9H50.8c-0.7,0-1.1-0.5-1-1.2l1.4-7.7
	h23.1C83.2,0.1,89.4,5.4,87.7,15.2z M53.2,45h18.7c0.7,0,1.2-0.5,1.3-1.2l3-17.2c-0.7,1-1.9,1.5-3.1,1.6H56.1c-3.6,0-7,2.8-7.6,6.4
	l-0.7,4C47.2,42.2,49.5,45,53.2,45z"/>
</svg>
