<?xml version="1.0" encoding="utf-8"?>
<!-- Generator: Adobe Illustrator 19.2.0, SVG Export Plug-In . SVG Version: 6.00 Build 0)  -->
<svg version="1.1" id="Слой_1" xmlns="http://www.w3.org/2000/svg" xmlns:xlink="http://www.w3.org/1999/xlink" x="0px" y="0px"
	 viewBox="0 0 1154.9 311.1" style="enable-background:new 0 0 1154.9 311.1;" xml:space="preserve">
<style type="text/css">
	.st0{fill:#8C948F;}
	.st1{fill:#43A9AE;}
	.st2{fill:#ff8b42;}
</style>
<g>
	<path class="st0" d="M13.6,289.5H36v6.2H6.7v-43.1h6.9V289.5z"/>
	<path class="st0" d="M102.4,284.8H83l-4.6,10.9h-7.4l19.2-43.6h5.1l19.2,43.6H107L102.4,284.8z M85.5,279h14.3l-7.2-17L85.5,279z"
		/>
	<path class="st0" d="M155.2,295.7v-43.1h5.3l23.3,30.3v-30.3h6.8v43.1h-5.5l-23.1-30.1v30.1H155.2z"/>
	<path class="st0" d="M273.9,267.8c-2-7.1-9.5-9.5-15.7-9.5c-9.6,0-16.9,6.7-16.9,15.9c0,9.3,7.4,16.1,16.9,16.1
		c6,0,12.4-3,15.3-9.4h-18v-6.3h26.3c-0.3,3.7-0.7,6.2-1.4,7.6v-0.1c-3.3,8.4-13.3,14.2-22.2,14.2c-13.7,0-24-9.3-24-22.2
		c0-13,10.5-22.3,24-22.3c9.4,0,20.6,4.1,23.2,15.8H273.9z"/>
	<path class="st0" d="M325.5,282.8v-30.6h7v30.6c0,4.7,5.7,7.1,10.7,7.1c5,0,10.7-2.4,10.7-7.1v-30.6h7v30.6
		c0,8.7-9.4,13.3-17.6,13.3C334.7,296.1,325.5,291.6,325.5,282.8z"/>
	<path class="st0" d="M432.1,284.8h-19.4l-4.6,10.9h-7.4l19.2-43.6h5.1l19.2,43.6h-7.4L432.1,284.8z M415.2,279h14.3l-7.2-17
		L415.2,279z"/>
	<path class="st0" d="M521.5,267.8c-2-7.1-9.5-9.5-15.7-9.5c-9.6,0-16.9,6.7-16.9,15.9c0,9.3,7.4,16.1,16.9,16.1
		c6,0,12.4-3,15.3-9.4h-18v-6.3h26.3c-0.3,3.7-0.7,6.2-1.4,7.6v-0.1c-3.3,8.4-13.3,14.2-22.2,14.2c-13.7,0-24-9.3-24-22.2
		c0-13,10.5-22.3,24-22.3c9.4,0,20.6,4.1,23.2,15.8H521.5z"/>
	<path class="st0" d="M580.7,289.5h22.2v6.2h-29.2v-43.5h29.1v6.2h-22.1v12.1h21.7v6.3h-21.7V289.5z"/>
	<path class="st0" d="M722.4,263.8c-1-3.9-5.6-5.5-9.8-5.5c-3.2,0.1-6.8,1-8.7,3.3c-1,1.1-1.3,2.5-1.2,4c0.3,4.4,5.7,5,10.9,5.4
		c6.6,0.7,14.7,2.3,16.5,9.2c0.2,0.9,0.3,2,0.3,2.8c0,8.3-9.2,13.1-17.8,13.1c-7.4,0-16.3-3.9-17.2-11.6l-0.1-1.2l7-0.1l0.1,0.9
		v-0.2c0.5,4,5.9,6.1,10.3,6.1c5.1,0,10.7-2.6,10.7-7c0-0.4-0.1-0.9-0.2-1.5c-0.8-3.3-5.7-3.8-10.5-4.2c-7.4-0.7-16.2-2.2-16.9-11.1
		v0.1c-0.3-2.9,0.5-5.8,2.6-8.2c3.2-3.8,8.9-5.7,14.5-5.7c7.4,0,15,3.4,16.3,11.3L722.4,263.8z"/>
	<path class="st0" d="M777.5,258.9c4.2-3.9,10.4-6.6,16.9-6.6c10.9,0,19.5,6.3,22.3,16.1h-6.8c-2.5-6.5-8.4-9.9-15.4-9.9
		c-4.6,0-9.1,2-12.1,4.8s-4.8,6.6-4.8,11.1c0,4.3,1.8,8.2,4.8,11s7.6,4.6,12.2,4.6c7.2,0,13.4-3.8,15.8-10.3h6.8
		c-2.7,9.8-11.5,16.4-22.6,16.4c-6.5,0-12.5-2.4-16.7-6.3c-4.1-3.9-7-9.4-7-15.4C770.7,268.2,773.4,262.8,777.5,258.9z"/>
	<path class="st0" d="M867.2,269.8h20.2v-17.5h7v43.4h-7v-19.8h-20.2v19.8h-6.9v-43.4h6.9V269.8z"/>
	<path class="st0" d="M962.2,251.8c13.8,0,24.9,10,24.9,22.4s-11.1,22.3-24.9,22.3s-24.8-9.9-24.8-22.3S948.4,251.8,962.2,251.8z
		 M962.2,290.1c9.8,0,17.8-7.1,17.8-15.9s-7.9-16-17.8-16s-17.7,7.1-17.7,16S952.4,290.1,962.2,290.1z"/>
	<path class="st0" d="M1052,251.8c13.8,0,24.9,10,24.9,22.4s-11.1,22.3-24.9,22.3c-13.8,0-24.8-9.9-24.8-22.3
		S1038.2,251.8,1052,251.8z M1052,290.1c9.8,0,17.8-7.1,17.8-15.9s-7.9-16-17.8-16s-17.7,7.1-17.7,16S1042.1,290.1,1052,290.1z"/>
	<path class="st0" d="M1127.3,289.5h22.5v6.2h-29.4v-43.1h6.9V289.5z"/>
</g>
<g>
	<path class="st1" d="M120.1,166.9V73.7l-34.9,93.2H73.6L38.7,73.7v93.2H12.3V33.8h37l30.1,80.4l30.1-80.4h37.2v133.1H120.1z"/>
	<path class="st1" d="M224.5,166.9v-10c-6.1,7.8-16.7,12.4-28.4,12.4c-14.3,0-31.2-10.4-31.2-31.9c0-22.5,16.9-31.1,31.2-31.1
		c11.9,0,22.5,4.2,28.4,11.8v-13c0-9.8-7.8-16.2-19.7-16.2c-9.7,0-18.6,3.8-26.2,11.4l-8.9-17c11-10.4,25.1-15.2,39.2-15.2
		c20.4,0,39.2,8.8,39.2,36.5v62.2H224.5z M224.5,143.7v-12c-3.9-5.6-11.3-8.4-19-8.4c-9.3,0-16.9,5.2-16.9,14.6
		c0,9,7.6,14.2,16.9,14.2C213.2,152.1,220.6,149.3,224.5,143.7z"/>
	<path class="st1" d="M263.8,154.3l10.2-17.8c6.5,6.6,19.9,13.2,31,13.2c10.2,0,15.1-4.4,15.1-10.4c0-16-53.3-3-53.3-40.9
		c0-16.2,13.2-30.3,36.8-30.3c15.2,0,27.3,5.6,36.2,13.2l-9.5,17.4c-5.4-6.2-15.6-11.2-26.6-11.2c-8.6,0-14.1,4.2-14.1,9.6
		c0,14.4,53.2,2.4,53.2,41.3c0,17.6-13.9,30.9-38.8,30.9C288.3,169.3,273.2,163.7,263.8,154.3z"/>
	<path class="st1" d="M364.9,142.9V92.7H350V70.5h14.9V44.2h23.8v26.3h18.2v22.1h-18.2v43.5c0,6,3,10.6,8.2,10.6
		c3.5,0,6.9-1.4,8.2-2.8l5,19.2c-3.5,3.4-9.9,6.2-19.7,6.2C373.8,169.3,364.9,160.1,364.9,142.9z"/>
	<path class="st1" d="M417.3,118.6c0-27.9,19.1-50.5,46.5-50.5c26.8,0,45,21.5,45,53.1v5.6H442c1.5,12.2,10.6,22.3,25.8,22.3
		c7.6,0,18.2-3.6,24-9.6l10.4,16.4c-8.9,8.8-23,13.4-37,13.4C437.9,169.3,417.3,149.5,417.3,118.6z M463.8,88.3
		c-14.7,0-21,11.8-22.1,21.3h44.2C485.3,100.4,479.4,88.3,463.8,88.3z"/>
	<path class="st1" d="M525.9,166.9V70.5h23.6v13.2c6.3-8.6,17.5-15.6,28.6-15.6v24.7c-1.7-0.4-3.9-0.6-6.5-0.6
		c-7.8,0-18.2,4.8-22.1,11v63.6H525.9z"/>
	<path class="st2" d="M698.5,53.6c1.7,2.2,2.6,5.2,2.6,7.8c0,7.2-5.8,12.8-12.6,12.8c-3.5,0-7.1-1.6-9.7-4.6
		c-7.1-8-16.2-12.8-25.5-12.8c-22.5,0-38.8,18.6-38.8,43.7c0,25.1,16.4,43.7,38.8,43.7c9.3,0,18.6-4.4,25.5-12.6
		c2.6-3,6.3-4.6,10-4.6c6.7,0,12.1,5.6,12.1,12.4c0,2.8-0.7,5.6-2.6,7.8c-9.3,12.2-23.6,22.1-45,22.1c-37.2,0-66-27.9-66-68.8
		c0-40.9,28.8-68.8,66-68.8C674.7,31.6,689.1,41.4,698.5,53.6z"/>
	<path class="st2" d="M789.6,166.9h-53.7c-8.2,0-14.9-7.2-14.9-16V46.6c0-7.6,5.9-14,13.4-14c7.1,0,13,6.4,13,14v95.4h42.2
		c6.1,0,11.3,5.6,11.3,12.2C801,161.3,795.7,166.9,789.6,166.9z"/>
	<path class="st2" d="M913.8,168.1c-5.6,0-10.8-3.6-12.8-9.4l-4.8-14.4H843l-5,14.4c-2,5.8-7.2,9.4-13,9.4
		c-8.4,0-13.9-7.6-13.9-15.2c0-1.8,0.2-3.6,0.9-5.4l36.2-100c3.2-9,11.5-15,20.3-15c9.5-0.8,19,5.2,22.5,15l36.1,100
		c0.6,1.8,0.9,3.6,0.9,5.4C927.9,160.3,922.3,168.1,913.8,168.1z M869.5,62.1l-19.3,57.3h38.7L869.5,62.1z"/>
	<path class="st2" d="M988.1,169.3c-18,0-40.3-6.4-47.2-17.4c-1.3-2-2-4.4-2-6.8c0-7.6,6.1-13.2,12.5-13.2c2.4,0,5,0.6,7.1,2.2
		c8.4,6.2,19,10.4,31,10.4c14.5,0,21.6-7.2,21.6-14.8c0-23.5-71.4-7.4-71.4-57.5c0-22.1,17.8-40.5,47-40.5c14.1,0,35.7,5,42.6,14.8
		c1.5,2,2.2,4.4,2.2,6.8c0,7.6-6.9,12.8-13.2,12.8c-2.2,0-4.5-0.6-6.7-2c-8.5-5.2-18.2-7.6-27.3-7.6c-11.3,0-17.7,5.4-17.7,13.4
		c0,21.1,71.2,7,71.2,56.7C1037.8,150.9,1021.6,169.3,988.1,169.3z"/>
	<path class="st2" d="M1099.7,169.3c-18,0-40.3-6.4-47.2-17.4c-1.3-2-2-4.4-2-6.8c0-7.6,6.1-13.2,12.5-13.2c2.4,0,5,0.6,7.1,2.2
		c8.4,6.2,19,10.4,31,10.4c14.5,0,21.6-7.2,21.6-14.8c0-23.5-71.4-7.4-71.4-57.5c0-22.1,17.8-40.5,47-40.5c14.1,0,35.7,5,42.6,14.8
		c1.5,2,2.2,4.4,2.2,6.8c0,7.6-6.9,12.8-13.2,12.8c-2.2,0-4.5-0.6-6.7-2c-8.5-5.2-18.2-7.6-27.3-7.6c-11.3,0-17.7,5.4-17.7,13.4
		c0,21.1,71.2,7,71.2,56.7C1149.3,150.9,1133.1,169.3,1099.7,169.3z"/>
</g>
</svg>
