<?xml version="1.0" encoding="utf-8"?>
<!-- Generator: Adobe Illustrator 19.2.0, SVG Export Plug-In . SVG Version: 6.00 Build 0)  -->
<svg version="1.1" id="pattern" xmlns="http://www.w3.org/2000/svg" xmlns:xlink="http://www.w3.org/1999/xlink" x="0px" y="0px"
	 viewBox="0 0 533 533" style="enable-background:new 0 0 533 533;" xml:space="preserve">
<style type="text/css">
	.st0{fill:#594F66;}
	.st1{fill:#F97550;}
	.st2{opacity:0.1;}
	.st3{fill:none;}
	.st4{fill:#FFFFFF;}
	.st5{fill:#4BCC9F;}
	.st6{opacity:7.000000e-002;}
	.st7{fill:#78E8C1;}
	.st8{fill:#049CBF;}
	.st9{clip-path:url(#SVGID_2_);}
	.st10{fill:#E6C44A;}
	.st11{opacity:0.5;}
	.st12{fill:#D95E3D;}
	.st13{fill:#F99426;}
	.st14{opacity:0.2;}
	.st15{clip-path:url(#SVGID_4_);fill:#FFFFFF;}
	.st16{fill:#63AEBF;}
	.st17{fill:#F9B469;}
	.st18{opacity:0.1;fill:#FFFFFF;}
	.st19{fill:#E6D59A;}
	.st20{display:none;}
	.st21{display:inline;}
	.st22{fill:#048EAD;}
</style>
<g>
	<g>
		<rect class="st0" width="533" height="533"/>
		<g>
			<polygon class="st1" points="64.9,337.6 2,285.5 0,287.9 0,374.6 20.3,391.4 			"/>
			<g class="st2">
				<polygon class="st3" points="15.8,343.8 27,341.3 27.4,329.9 16.2,332.4 				"/>
				<polygon class="st3" points="5,334.8 16.2,332.4 16.6,321 5.4,323.4 				"/>
				<polygon class="st3" points="49,347.8 58.1,345.8 60.2,343.3 60.5,333.9 49.3,336.4 				"/>
				<polygon class="st3" points="37.4,361.7 46.6,359.7 48.7,357.2 49,347.8 37.8,350.3 				"/>
				<polygon class="st3" points="4.3,357.7 0,358.6 0,370 4,369.1 				"/>
				<polygon class="st3" points="25.9,375.6 35.1,373.6 37.1,371.1 37.4,361.7 26.3,364.2 				"/>
				<polygon class="st3" points="60.5,333.9 60.5,333.9 60.5,333.9 				"/>
				<polygon class="st3" points="14.5,386.6 17.3,388.9 23.6,387.5 25.6,385 25.9,375.6 14.8,378.1 				"/>
				<polygon class="st3" points="3.7,377.6 6.5,379.9 14.8,378.1 15.1,366.6 4,369.1 				"/>
				<polygon class="st3" points="4.3,357.7 15.5,355.2 15.8,343.8 4.7,346.3 				"/>
				<polygon class="st3" points="5,334.8 0,336 0,347.3 4.7,346.3 				"/>
				<polygon class="st3" points="6.5,289.1 6.5,289.1 6.5,289.1 				"/>
				<polygon class="st3" points="15.1,366.6 26.3,364.2 26.6,352.8 15.5,355.2 				"/>
				<polygon class="st3" points="38.9,316 38.9,316 38.9,316 				"/>
				<polygon class="st3" points="5.8,312 0,313.3 0,324.6 5.4,323.4 				"/>
				<polygon class="st3" points="6.5,289.1 0,290.6 0,301.9 6.1,300.6 				"/>
				<polygon class="st3" points="17.3,298.1 17.3,298.1 17.3,298.1 				"/>
				<polygon class="st3" points="49.7,325 49.7,325 49.7,325 				"/>
				<polygon class="st3" points="28.1,307.1 28.1,307.1 28.1,307.1 				"/>
				<polygon class="st3" points="26.6,352.8 37.8,350.3 38.2,338.9 27,341.3 				"/>
				<polygon class="st3" points="38.2,338.9 49.3,336.4 49.7,325 38.5,327.4 				"/>
				<polygon class="st3" points="16.6,321 27.7,318.5 28.1,307.1 16.9,309.5 				"/>
				<polygon class="st3" points="5.8,312 16.9,309.5 17.3,298.1 6.1,300.6 				"/>
				<polygon class="st3" points="27.4,329.9 38.5,327.4 38.9,316 27.7,318.5 				"/>
				<polygon class="st4" points="20.3,391.4 23.6,387.5 17.3,388.9 				"/>
				<polygon class="st4" points="14.5,386.6 14.8,378.1 6.5,379.9 				"/>
				<polygon class="st4" points="4,369.1 0,370 0,374.5 3.7,377.6 				"/>
				<polygon class="st4" points="25.6,385 35.1,373.6 25.9,375.6 				"/>
				<polygon class="st4" points="14.8,378.1 25.9,375.6 26.3,364.2 15.1,366.6 				"/>
				<polygon class="st4" points="4,369.1 15.1,366.6 15.5,355.2 4.3,357.7 				"/>
				<polygon class="st4" points="4.7,346.3 0,347.3 0,358.6 4.3,357.7 				"/>
				<polygon class="st4" points="37.1,371.1 46.6,359.7 37.4,361.7 				"/>
				<polygon class="st4" points="26.3,364.2 37.4,361.7 37.8,350.3 26.6,352.8 				"/>
				<polygon class="st4" points="15.5,355.2 26.6,352.8 27,341.3 15.8,343.8 				"/>
				<polygon class="st4" points="4.7,346.3 15.8,343.8 16.2,332.4 5,334.8 				"/>
				<polygon class="st4" points="5.4,323.4 0,324.6 0,336 5,334.8 				"/>
				<polygon class="st4" points="48.7,357.2 58.1,345.8 49,347.8 				"/>
				<polygon class="st4" points="37.8,350.3 49,347.8 49.3,336.4 38.2,338.9 				"/>
				<polygon class="st4" points="27,341.3 38.2,338.9 38.5,327.4 27.4,329.9 				"/>
				<polygon class="st4" points="16.2,332.4 27.4,329.9 27.7,318.5 16.6,321 				"/>
				<polygon class="st4" points="5.4,323.4 16.6,321 16.9,309.5 5.8,312 				"/>
				<polygon class="st4" points="6.1,300.6 0,301.9 0,313.3 5.8,312 				"/>
				<polygon class="st4" points="60.5,333.9 60.2,343.3 64.9,337.6 60.5,333.9 				"/>
				<polygon class="st4" points="49.7,325 49.3,336.4 60.5,333.9 60.5,333.9 49.7,325 				"/>
				<polygon class="st4" points="38.9,316 38.5,327.4 49.7,325 49.7,325 38.9,316 				"/>
				<polygon class="st4" points="28.1,307.1 27.7,318.5 38.9,316 38.9,316 28.1,307.1 				"/>
				<polygon class="st4" points="17.3,298.1 16.9,309.5 28.1,307.1 28.1,307.1 17.3,298.1 				"/>
				<polygon class="st4" points="6.5,289.1 6.1,300.6 17.3,298.1 17.3,298.1 6.5,289.1 				"/>
				<polygon class="st4" points="6.5,289.1 2,285.5 0,287.9 0,290.6 6.5,289.1 				"/>
			</g>
			<path class="st5" d="M3.2,409.1c0.6,0.2,1.2,0.5,1.7,0.7c0.3,0.2,0.6,0.3,0.7,0.4c1,0.8,2.1,1.6,2.9,2.6c-1.7-2-3.8-3.7-5.9-5.5
				c-0.8-0.7-1.8-1.3-2.7-1.8v2.6c0.1,0,0.3,0.1,0.4,0.1C1.3,408.6,2.3,408.8,3.2,409.1z"/>
			<polygon class="st6" points="62.3,340.7 64.9,337.6 2,285.5 0,287.9 0,300.4 5.6,293.7 			"/>
			<polygon class="st5" points="27.6,306.6 0,339.9 0,364 39.4,316.4 			"/>
			<polygon class="st2" points="23.1,388.1 0,369 0,375.5 19.9,392 			"/>
			<polygon class="st1" points="24.4,392.6 0,372.3 0,396.7 12.5,407 			"/>
		</g>
		<g>
			<polygon class="st1" points="490.4,339.3 533,374.6 533,287.9 			"/>
			<g class="st2">
				<polygon class="st3" points="515.1,359.7 517.9,362 526.2,360.2 526.5,348.7 515.4,351.2 				"/>
				<polygon class="st3" points="493.7,335.3 493.5,341.8 496.3,344.1 504.6,342.3 504.9,330.8 495.7,332.9 				"/>
				<polygon class="st3" points="505.2,321.4 504.9,330.8 516.1,328.4 516.4,316.9 507.3,319 				"/>
				<polygon class="st3" points="504.3,350.7 507.1,353 515.4,351.2 515.7,339.8 504.6,342.3 				"/>
				<polygon class="st3" points="526.2,360.2 525.9,368.6 528.7,371 533,370 533,358.6 				"/>
				<polygon class="st3" points="526.9,337.3 526.5,348.7 533,347.3 533,336 				"/>
				<polygon class="st3" points="527.6,314.5 527.2,325.9 533,324.6 533,313.3 				"/>
				<polygon class="st3" points="515.7,339.8 526.9,337.3 527.2,325.9 516.1,328.4 				"/>
				<polygon class="st3" points="530.3,291.2 528.3,293.6 528,303 533,301.9 533,290.6 				"/>
				<polygon class="st3" points="516.7,307.5 516.4,316.9 527.6,314.5 528,303 518.8,305.1 				"/>
				<polygon class="st4" points="528.7,371 533,374.5 533,370 				"/>
				<polygon class="st4" points="525.9,368.6 526.2,360.2 517.9,362 				"/>
				<polygon class="st4" points="515.1,359.7 515.4,351.2 507.1,353 				"/>
				<polygon class="st4" points="504.3,350.7 504.6,342.3 496.3,344.1 				"/>
				<polygon class="st4" points="493.5,341.8 493.7,335.3 490.4,339.3 				"/>
				<polygon class="st4" points="526.5,348.7 526.2,360.2 533,358.6 533,347.3 				"/>
				<polygon class="st4" points="515.4,351.2 526.5,348.7 526.9,337.3 515.7,339.8 				"/>
				<polygon class="st4" points="504.6,342.3 515.7,339.8 516.1,328.4 504.9,330.8 				"/>
				<polygon class="st4" points="504.9,330.8 505.2,321.4 495.7,332.9 				"/>
				<polygon class="st4" points="527.2,325.9 526.9,337.3 533,336 533,324.6 				"/>
				<polygon class="st4" points="516.1,328.4 527.2,325.9 527.6,314.5 516.4,316.9 				"/>
				<polygon class="st4" points="516.4,316.9 516.7,307.5 507.3,319 				"/>
				<polygon class="st4" points="528,303 527.6,314.5 533,313.3 533,301.9 				"/>
				<polygon class="st4" points="528,303 528.3,293.6 518.8,305.1 				"/>
				<polygon class="st4" points="530.3,291.2 533,290.6 533,287.9 				"/>
			</g>
			<path class="st5" d="M525.7,403.3c-1.9-0.5-3.6-1.1-5.3-2c-0.4-0.6-0.8-1.2-1.2-1.9c-2.1-3.5-2.3-7.8-2.3-11.7
				c0-2.4,0.4-5-0.5-7.3c-0.2-0.4-0.5-0.9-0.8-1.3c0.2-0.3,0.4-0.7,0.6-1c0.2-0.3-5-4.2-4.9-4.3c-0.2,0.3-0.4,0.6-0.6,0.9
				c-5.4-4.8-11.1-9.4-18.1-11.5c-7.5-2.2-27.4-2.8-24.3,9.8c1.1,4.6,5.8,8.4,9.6,11c1.9,1.2,4,1.9,6.3,2.3
				c-1.6,1.3-3.1,2.6-4.5,4.1c-3.5,3.7-5.6,8.6-3.6,13.6c1.4,3.6,5.3,6.8,8.4,8.9c6.3,4.4,14-6.5,17-10.6c0.8-1.1,1.6-2.2,2.3-3.3
				c-0.8,1.9-1.3,3.9-1.3,6c0,2.5,0.6,5.6,2.9,7c1.2,0.7,2.8,1.2,4.2,1.6c2.2,0.8,4.9-1.3,6.2-2.9c1.7-2,1.7-4.9,1.6-7.4
				c-0.1-1.9-0.6-3.8-1.1-5.7c2,2.3,4.6,4.7,4.8,4.7c2,1.7,4,3.3,6.6,4.3c1.7,0.7,3.5,1.1,5.3,1.5v-2.6
				C530.7,404.5,528.2,403.9,525.7,403.3z M477.8,381.5c-1.2-0.3-2.3-0.7-3.3-1.2c-1.4-2.3-2-5.4-1.2-8c1.6-5.1,9-5.9,13.4-6.1
				c6.1-0.2,11.7,1,17.1,3.8c2.2,1.2,4.3,2.7,6.3,4.2c0.2,0.1,0.4,0.3,0.6,0.6c-0.1,0.2-0.2,0.4-0.4,0.5c-1-0.9-1.9-1.7-2-1.7
				c-5.9,2.1-12,4.7-17.6,8.1C486.5,382.4,482,382.4,477.8,381.5z M500.7,392.1c-2.5,3.9-5.1,7.7-8.2,11.1c-2.3,2.6-5.2,5.4-8.7,6.1
				c-0.8,0.2-1.5,0.1-2.2,0c-0.4-0.7-0.7-1.4-0.9-2.2c-1.6-4.8,1.3-9.5,4.5-12.9c3-3.2,6.5-5.8,10.4-8.1c3.1-0.4,6.8-1.2,10.1-2.6
				C504.1,386.4,502.5,389.3,500.7,392.1z M512.9,408.2c-0.9,1.9-3,3.6-5.2,3.9c-2.1-2.7-1.7-7.3-0.8-10.3c1-3.3,2.9-6.2,4.7-9.1
				c0.8,2.8,1.7,5.5,2,8.4C514.1,403.6,514,406,512.9,408.2z"/>
			<polygon class="st6" points="490.4,339.3 496.6,344.3 533,300.4 533,287.9 			"/>
			<polygon class="st5" points="529.2,368.6 533,364 533,339.9 517.3,358.8 			"/>
			<polygon class="st2" points="493.1,335.9 489.9,339.8 533,375.5 533,369 			"/>
			<polygon class="st1" points="488.5,335.4 476.6,349.9 533,396.7 533,372.3 			"/>
			
				<rect x="507.5" y="361.9" transform="matrix(0.6382 -0.7699 0.7699 0.6382 -98.5752 532.3564)" class="st7" width="19.2" height="18.2"/>
		</g>
		<g>
			<path class="st5" d="M377.9,242.3c-1.2-0.6-2.4-1.2-3.6-1.8c2,0.4,4,0.6,6,0.3c2.5-0.4,5.3-1.4,6.3-3.9c0.5-1.3,0.7-2.9,1-4.3
				c0.4-2.3-2-4.6-3.7-5.6c-2.2-1.3-5.1-0.9-7.4-0.4c-1.9,0.4-3.6,1.1-5.3,1.9c2-2.3,3.8-5.1,3.9-5.3c1.4-2.2,2.6-4.4,3.2-7
				c0.4-1.9,0.5-3.8,0.7-5.7c0.1-0.9,0.2-1.9,0.4-2.8c0.1-0.6,0.3-1.2,0.4-1.8c0.1-0.3,0.2-0.6,0.3-0.8c0.6-1.1,1.2-2.3,2-3.2
				c-1.7,2-3.1,4.3-4.4,6.5c-2,3.1-2.1,6.7-2.5,10.3c-0.2,1.9-0.6,3.7-1.2,5.4c-0.5,0.5-1.1,1-1.6,1.4c-3.1,2.5-7.2,3.4-11,4
				c-2.3,0.4-4.9,0.4-7,1.6c-0.4,0.2-0.8,0.6-1.1,0.9c-0.4-0.1-0.7-0.3-1.1-0.5c-0.3-0.1-3.3,5.5-3.5,5.4c0.3,0.2,0.6,0.3,0.9,0.4
				c-3.8,6-7.5,12.2-8.5,19.3c-1.1,7.6,1.4,27,13.2,22.1c4.3-1.8,7.3-6.9,9.2-11c0.9-2,1.3-4.2,1.3-6.4c1.5,1.3,3,2.6,4.7,3.7
				c4.2,2.8,9.2,4.1,13.7,1.5c3.3-1.9,5.8-6.2,7.4-9.5C394.1,250.4,382.3,244.6,377.9,242.3z M375,230.7c2.3-0.7,4.7-0.9,7-0.3
				c1.9,0.6,3.9,2.4,4.6,4.4c-2.3,2.5-6.9,2.8-9.9,2.3c-3.3-0.5-6.4-1.9-9.5-3.2C369.7,232.7,372.3,231.5,375,230.7z M361.3,268.5
				c-0.1,1.2-0.3,2.3-0.6,3.4c-2,1.7-5,2.8-7.6,2.4c-5.2-0.8-7.1-7.9-7.9-12.1c-1.1-5.9-0.8-11.5,1.2-17.1c0.8-2.4,1.9-4.6,3.1-6.8
				c0.1-0.2,0.3-0.4,0.4-0.7c0.2,0.1,0.4,0.2,0.6,0.3c-0.7,1.1-1.4,2.1-1.3,2.2c3,5.4,6.4,10.9,10.4,15.8
				C360.9,259.9,361.6,264.3,361.3,268.5z M387.7,260.7c-0.6,0.5-1.3,0.9-2,1.2c-4.5,2.3-9.4,0.2-13.2-2.4c-3.5-2.4-6.6-5.5-9.4-8.9
				c-0.9-3-2.2-6.4-4-9.4c3.1,1.1,6.1,2.2,9.1,3.5c4.1,1.8,8.2,3.8,12,6.3c2.9,1.9,6,4.2,7.2,7.5
				C387.7,259.2,387.8,259.9,387.7,260.7z"/>
			
				<rect x="269.5" y="176.3" transform="matrix(0.5132 -0.8583 0.8583 0.5132 -30.0208 368.1815)" class="st8" width="80.2" height="68.6"/>
			<g class="st2">
				<defs>
					
						<rect id="SVGID_1_" x="269.5" y="176.3" transform="matrix(0.5132 -0.8583 0.8583 0.5132 -30.0204 368.1824)" class="st2" width="80.2" height="68.6"/>
				</defs>
				<clipPath id="SVGID_2_">
					<use xlink:href="#SVGID_1_"  style="overflow:visible;"/>
				</clipPath>
				<g class="st9">
					<polygon class="st4" points="369.8,198.4 373.8,208.9 385,207.5 380.9,197.1 					"/>
					<polygon class="st4" points="362.7,210.2 366.8,220.7 377.9,219.3 373.8,208.9 					"/>
					<polygon class="st4" points="355.6,222.1 359.7,232.5 370.8,231.2 366.8,220.7 					"/>
					<polygon class="st4" points="348.6,233.9 352.6,244.3 363.8,243 359.7,232.5 					"/>
					<polygon class="st4" points="341.5,245.7 345.6,256.2 356.7,254.8 352.6,244.3 					"/>
					<polygon class="st4" points="334.4,257.5 338.5,268 349.6,266.6 345.6,256.2 					"/>
					<polygon class="st4" points="327.4,269.3 331.4,279.8 342.6,278.4 338.5,268 					"/>
					<polygon class="st4" points="354.6,189.3 358.6,199.8 369.8,198.4 365.7,188 					"/>
					<polygon class="st4" points="347.5,201.1 351.6,211.6 362.7,210.2 358.6,199.8 					"/>
					<polygon class="st4" points="340.4,213 344.5,223.4 355.6,222.1 351.6,211.6 					"/>
					<polygon class="st4" points="333.4,224.8 337.4,235.2 348.6,233.9 344.5,223.4 					"/>
					<polygon class="st4" points="326.3,236.6 330.4,247.1 341.5,245.7 337.4,235.2 					"/>
					<polygon class="st4" points="319.2,248.4 323.3,258.9 334.4,257.5 330.4,247.1 					"/>
					<polygon class="st4" points="312.2,260.2 316.2,270.7 327.4,269.3 323.3,258.9 					"/>
					<polygon class="st4" points="305.1,272.1 309.2,282.5 320.3,281.2 316.2,270.7 					"/>
					<polygon class="st4" points="339.4,180.2 343.4,190.7 354.6,189.3 350.5,178.9 					"/>
					<polygon class="st4" points="332.3,192 336.4,202.5 347.5,201.1 343.4,190.7 					"/>
					<polygon class="st4" points="325.2,203.9 329.3,214.3 340.4,213 336.4,202.5 					"/>
					<polygon class="st4" points="318.2,215.7 322.2,226.1 333.4,224.8 329.3,214.3 					"/>
					<polygon class="st4" points="311.1,227.5 315.2,238 326.3,236.6 322.2,226.1 					"/>
					<polygon class="st4" points="304,239.3 308.1,249.8 319.2,248.4 315.2,238 					"/>
					<polygon class="st4" points="296.9,251.2 301,261.6 312.2,260.2 308.1,249.8 					"/>
					<polygon class="st4" points="324.2,171.1 328.2,181.6 339.4,180.2 335.3,169.8 					"/>
					<polygon class="st4" points="317.1,183 321.2,193.4 332.3,192 328.2,181.6 					"/>
					<polygon class="st4" points="310,194.8 314.1,205.2 325.2,203.9 321.2,193.4 					"/>
					<polygon class="st4" points="302.9,206.6 307,217.1 318.2,215.7 314.1,205.2 					"/>
					<polygon class="st4" points="295.9,218.4 299.9,228.9 311.1,227.5 307,217.1 					"/>
					<polygon class="st4" points="288.8,230.2 292.9,240.7 304,239.3 299.9,228.9 					"/>
					<polygon class="st4" points="281.7,242.1 285.8,252.5 296.9,251.2 292.9,240.7 					"/>
					<polygon class="st4" points="274.7,253.9 278.7,264.3 289.9,263 285.8,252.5 					"/>
					<polygon class="st4" points="308.9,162 313,172.5 324.2,171.1 320.1,160.7 					"/>
					<polygon class="st4" points="301.9,173.9 305.9,184.3 317.1,183 313,172.5 					"/>
					<polygon class="st4" points="294.8,185.7 298.9,196.1 310,194.8 305.9,184.3 					"/>
					<polygon class="st4" points="287.7,197.5 291.8,208 302.9,206.6 298.9,196.1 					"/>
					<polygon class="st4" points="280.7,209.3 284.7,219.8 295.9,218.4 291.8,208 					"/>
					<polygon class="st4" points="273.6,221.1 277.7,231.6 288.8,230.2 284.7,219.8 					"/>
					<polygon class="st4" points="266.5,233 270.6,243.4 281.7,242.1 277.7,231.6 					"/>
					<polygon class="st4" points="293.7,152.9 297.8,163.4 308.9,162 304.9,151.6 					"/>
					<polygon class="st4" points="286.7,164.8 290.7,175.2 301.9,173.9 297.8,163.4 					"/>
					<polygon class="st4" points="279.6,176.6 283.7,187 294.8,185.7 290.7,175.2 					"/>
					<polygon class="st4" points="272.5,188.4 276.6,198.9 287.7,197.5 283.7,187 					"/>
					<polygon class="st4" points="265.5,200.2 269.5,210.7 280.7,209.3 276.6,198.9 					"/>
					<polygon class="st4" points="258.4,212 262.5,222.5 273.6,221.1 269.5,210.7 					"/>
					<polygon class="st4" points="251.3,223.9 255.4,234.3 266.5,233 262.5,222.5 					"/>
					<polygon class="st4" points="244.3,235.7 248.3,246.1 259.5,244.8 255.4,234.3 					"/>
					<polygon class="st4" points="278.5,143.9 282.6,154.3 293.7,152.9 289.7,142.5 					"/>
					<polygon class="st4" points="271.5,155.7 275.5,166.1 286.7,164.8 282.6,154.3 					"/>
					<polygon class="st4" points="264.4,167.5 268.5,178 279.6,176.6 275.5,166.1 					"/>
					<polygon class="st4" points="257.3,179.3 261.4,189.8 272.5,188.4 268.5,178 					"/>
					<polygon class="st4" points="250.3,191.1 254.3,201.6 265.5,200.2 261.4,189.8 					"/>
					<polygon class="st4" points="243.2,203 247.3,213.4 258.4,212 254.3,201.6 					"/>
					<polygon class="st4" points="236.1,214.8 240.2,225.2 251.3,223.9 247.3,213.4 					"/>
					<polygon class="st4" points="263.3,134.8 267.4,145.2 278.5,143.9 274.5,133.4 					"/>
					<polygon class="st4" points="256.2,146.6 260.3,157 271.5,155.7 267.4,145.2 					"/>
					<polygon class="st4" points="249.2,158.4 253.3,168.9 264.4,167.5 260.3,157 					"/>
					<polygon class="st4" points="242.1,170.2 246.2,180.7 257.3,179.3 253.3,168.9 					"/>
					<polygon class="st4" points="235,182 239.1,192.5 250.3,191.1 246.2,180.7 					"/>
					<polygon class="st4" points="228,193.9 232,204.3 243.2,203 239.1,192.5 					"/>
					<polygon class="st4" points="220.9,205.7 225,216.1 236.1,214.8 232,204.3 					"/>
					<polygon class="st4" points="213.8,217.5 217.9,228 229,226.6 225,216.1 					"/>
				</g>
			</g>
			<polygon class="st6" points="304.2,160.6 300.7,158.5 259.6,227.4 318.4,262.6 322.4,255.9 267,222.7 			"/>
			
				<rect x="301.1" y="176.8" transform="matrix(0.5132 -0.8583 0.8583 0.5132 -29.9945 367.1543)" class="st5" width="15.1" height="66.5"/>
			
				<rect x="297.3" y="224.8" transform="matrix(0.5132 -0.8583 0.8583 0.5132 -30.7519 400.297)" class="st2" width="80.3" height="4.9"/>
			
				<rect x="301.5" y="222.8" transform="matrix(0.5132 -0.8582 0.8582 0.5132 -30.9735 409.4303)" class="st8" width="87.9" height="18.4"/>
			
				<rect x="336.3" y="222.5" transform="matrix(0.5133 -0.8582 0.8582 0.5133 -30.9742 409.2138)" class="st7" width="17.9" height="18.8"/>
		</g>
		<g>
			<polygon class="st10" points="87.7,200.8 0,170 0,199.5 78.5,227 			"/>
			<g class="st11">
				<polygon class="st3" points="18.3,178.7 26.9,181.7 29.6,180.4 17,176 				"/>
				<polygon class="st3" points="3.6,198.9 3.2,198 4.1,197.6 6.9,189.6 0,193 0,199.5 3.1,200.6 				"/>
				<polygon class="st3" points="85,208.6 87.7,200.8 79.9,198 				"/>
				<polygon class="st3" points="25.1,192.8 25.6,193.7 24.6,194.2 21.9,202.1 33.5,196.5 27.9,184.9 				"/>
				<polygon class="st3" points="1.3,170.5 8.4,185.3 11.2,177.3 10.8,176.4 13.9,174.9 				"/>
				<polygon class="st3" points="0,181.2 0,186.5 2.1,185.5 				"/>
				<polygon class="st3" points="78.5,227 81.3,219.2 70.7,224.3 				"/>
				<polygon class="st3" points="73.7,198.5 76.8,196.9 64.2,192.5 72.7,210.3 55,218.8 67.6,223.2 66.1,220.1 80.7,213 				"/>
				<polygon class="st3" points="42.2,187.4 45.4,185.9 32.8,181.5 41.3,199.2 23.5,207.8 36.2,212.2 34.6,209 49.2,202 				"/>
				<polygon class="st3" points="20.3,206.6 20.4,206.7 20.3,206.5 				"/>
				<polygon class="st3" points="57.9,193 61.1,191.4 48.5,187 57,204.8 39.3,213.3 51.9,217.7 50.4,214.6 64.9,207.5 				"/>
				<polygon class="st4" points="76.8,196.9 73.7,198.5 80.7,213 66.1,220.1 67.6,223.2 70.7,224.3 81.3,219.2 85,208.6 79.9,198 
									"/>
				<polygon class="st4" points="61.1,191.4 57.9,193 64.9,207.5 50.4,214.6 51.9,217.7 55,218.8 72.7,210.3 64.2,192.5 				"/>
				<polygon class="st4" points="45.4,185.9 42.2,187.4 49.2,202 34.6,209 36.2,212.2 39.3,213.3 57,204.8 48.5,187 				"/>
				<polygon class="st4" points="29.6,180.4 26.9,181.7 28.8,182.4 27.9,184.9 33.5,196.5 21.9,202.1 20.3,206.5 20.4,206.7 
					23.5,207.8 41.3,199.2 32.8,181.5 				"/>
				<polygon class="st4" points="3.6,198.9 4.1,197.6 3.2,198 				"/>
				<polygon class="st4" points="13.9,174.9 10.8,176.4 11.2,177.3 11.6,176.3 18.3,178.7 17,176 				"/>
				<polygon class="st4" points="24.6,194.2 25.6,193.7 25.1,192.8 				"/>
				<polygon class="st4" points="8.4,185.3 1.3,170.5 0,170 0,181.2 2.1,185.5 0,186.5 0,193 6.9,189.6 				"/>
				<polygon class="st12" points="18.3,178.7 11.6,176.3 11.2,177.3 8.4,185.3 6.9,189.6 4.1,197.6 3.6,198.9 3.1,200.6 20.3,206.6 
					20.3,206.5 21.9,202.1 24.6,194.2 25.1,192.8 27.9,184.9 28.8,182.4 26.9,181.7 				"/>
			</g>
			<path class="st12" d="M56.8,155.5c0-2.3,0-5.6-3-6.2c-3.2-0.5-6.8,0.8-9.5,2.3c-2.2,1.3-4.2,2.8-6.2,4.5
				c2.2-4.2,4.7-8.8,4.8-13.6c0.1-3.9,0.8-9-0.8-12.7c-1.9-4.1-5.7-4.8-9.4-2.4c-6.4,4.1-8.8,12-9.8,19.1c-0.2,1.5-0.4,3.1-0.5,4.6
				c-1.1-4.5-2.6-8.8-5.2-12.5c-1.8-2.6-4.5-5.8-7.9-6.2c-3.5-0.4-7.2,2.2-8.2,5.6c-1,3.4-0.5,7.4-0.4,10.9c0.1,3.2,1.9,6.2,3.8,8.6
				c5.3,6.8,12.9,10.2,20,14.7c0.1,0.3,0.1,0.6,0.2,0.9c-0.1-0.3-0.1-0.6-0.1-0.9c0,0,0,0,0,0c0,0.3,0.1,0.6,0.1,0.8
				c0-0.3,0-0.5,0-0.8c0.3,0.2,0.6,0.4,0.9,0.5c-0.3-0.2,0.1-3.7,0.1-4.1c0-0.4,0.4-3.8,0-4.1c-0.3-0.2-0.6-0.4-1-0.6
				c-0.4-3.4-0.9-7-1.6-10.6c0.2-1.1,0.4-2.1,0.6-3.2c1.4-5.8,4.1-12.6,9.9-15.4c2.9-1.4,6.3-1.4,8,1.7c0.3,0.6,0.6,1.1,0.8,1.8
				c-0.2,0.7-0.4,1.3-0.7,2c-3.3,8.3-8.3,15.8-12.6,23.6c-0.1,0.2-0.2,0.5-0.2,0.8c-0.8,0-1.6-0.1-2.4-0.1c0,0-0.2,8.1,0,8.1
				c7.2,0.3,15.2,1.7,22-1.3c3-1.3,6.2-3.3,7.5-6.5c0.5-1.3,1.1-5.1,0.9-8.6C56.8,156.1,56.8,155.8,56.8,155.5z M5.7,150.8
				c-1.5-1.8-3.1-3.8-4-6.1c0.7-1.2,1.6-2.2,2.7-3c5.9-3.8,11.6,2,14.1,7.1c2,4,3.2,8.1,4.2,12.3c0.1,0.6,0.1,1.2,0.2,1.9
				C16.9,159.4,10.4,156.3,5.7,150.8z M53.2,160.6c-2.4,1.9-5.2,3.3-8.3,4c-2.7,0.6-5.4,0.7-8.1,0.7c1.8-1.6,3.6-3.1,5.6-4.4
				c2.4-1.6,9.9-5.4,13-2.8C54.7,159,54.1,159.9,53.2,160.6z"/>
			<polygon class="st2" points="80,222.9 0,194.9 0,199.5 78.5,227 			"/>
			<polygon class="st2" points="88,200 0,169.1 0,175.4 86.1,205.6 			"/>
			<polygon class="st10" points="95.2,186.5 0,153.2 0,172.3 89.2,203.6 			"/>
			
				<rect x="14.1" y="160" transform="matrix(0.3307 -0.9437 0.9437 0.3307 -145.7301 136.1958)" class="st1" width="18" height="21.7"/>
		</g>
		<g>
			<polygon class="st10" points="487,153.9 477.8,180.2 533,199.5 533,170 			"/>
			<g class="st11">
				<polygon class="st3" points="496.1,159.7 499.2,158.2 487,153.9 486.9,154.3 495.1,171.5 477.9,179.8 477.8,180.2 490,184.5 
					488.5,181.3 503.1,174.3 				"/>
				<polygon class="st3" points="525.1,196.8 533,199.5 533,193 				"/>
				<polygon class="st3" points="512.3,165.4 515.5,163.9 502.3,159.3 510.8,177 493.1,185.5 506.3,190.2 504.8,187 519.3,180 				
					"/>
				<polygon class="st3" points="531.2,169.4 518.6,165 527.1,182.7 509.4,191.2 522,195.7 520.5,192.5 533,186.5 533,181.2 
					528.1,170.9 				"/>
				<polygon class="st3" points="480.7,172 487.3,168.8 484.1,162.1 				"/>
				<polygon class="st4" points="528.1,170.9 533,181.2 533,170 531.2,169.4 				"/>
				<polygon class="st4" points="520.5,192.5 522,195.7 525.1,196.8 533,193 533,186.5 				"/>
				<polygon class="st4" points="515.5,163.9 512.3,165.4 519.3,180 504.8,187 506.3,190.2 509.4,191.2 527.1,182.7 518.6,165 				
					"/>
				<polygon class="st4" points="499.2,158.2 496.1,159.7 503.1,174.3 488.5,181.3 490,184.5 493.1,185.5 510.8,177 502.3,159.3 
									"/>
				<polygon class="st4" points="484.1,162.1 487.3,168.8 480.7,172 477.9,179.8 495.1,171.5 486.9,154.3 				"/>
			</g>
			<polygon class="st2" points="484.2,177.8 491.9,155.6 487,153.9 477.8,180.2 533,199.5 533,194.9 			"/>
			<polygon class="st2" points="487.3,153.1 485.3,158.7 533,175.4 533,169.1 			"/>
			<polygon class="st10" points="490.1,138.1 484.1,155.1 533,172.3 533,153.2 			"/>
		</g>
		<g>
			
				<rect x="174.1" y="322" transform="matrix(0.6792 -0.734 0.734 0.6792 -204.1748 264.246)" class="st13" width="52.2" height="87.3"/>
			<g class="st14">
				<defs>
					
						<rect id="SVGID_3_" x="173.9" y="322.1" transform="matrix(0.6792 -0.7339 0.7339 0.6792 -204.1143 264.0701)" class="st14" width="52.2" height="86.9"/>
				</defs>
				<clipPath id="SVGID_4_">
					<use xlink:href="#SVGID_3_"  style="overflow:visible;"/>
				</clipPath>
				
					<rect x="206" y="303.5" transform="matrix(0.6792 -0.734 0.734 0.6792 -191.7063 267.2342)" class="st15" width="7.7" height="98.8"/>
				
					<rect x="196.3" y="314" transform="matrix(0.6792 -0.7339 0.7339 0.6792 -202.5202 263.4672)" class="st15" width="7.7" height="98.8"/>
				
					<rect x="186.6" y="324.5" transform="matrix(0.6792 -0.734 0.734 0.6792 -213.3374 259.7134)" class="st15" width="7.7" height="98.8"/>
				
					<rect x="176.9" y="335" transform="matrix(0.6792 -0.7339 0.7339 0.6792 -224.1508 255.9474)" class="st15" width="7.7" height="98.8"/>
			</g>
			
				<rect x="174.4" y="358.1" transform="matrix(0.6792 -0.7339 0.7339 0.6792 -204.7743 264.0288)" class="st12" width="50.6" height="16.4"/>
			
				<rect x="213.9" y="304.2" transform="matrix(0.6792 -0.7339 0.7339 0.6792 -185.8656 270.5495)" class="st2" width="5.4" height="87.5"/>
			<polygon class="st6" points="210.3,406.5 152.5,352.9 150.4,355.2 214.5,414.5 250,376.2 243.7,370.4 			"/>
			<path class="st12" d="M273.1,359.6c-0.3-0.1-2.4-1.2-2.7-1c-2.7,1.9-5.6,3.3-8.8,4c-1.7,0.4-3.4,0.4-5.1,0.3c-0.1,0-0.1,0-0.2,0
				c-0.4-0.2-0.7-0.5-1.1-0.8c-2.6-2.2-3.2-6-4.5-9c-0.9-2-2.3-3.6-3.8-5.1c-1.7-1.8-3.7-3.4-5.7-4.8c1.1,0,2.2,0,3.3,0
				c6.6-0.2,14.6-1.7,18.6-7.5c2.9-4.2,2.8-11.2-2.4-13.4c-0.5-0.2-1.1-0.5-1.6-0.7c-1.5-0.7-5.3-1.7-6.8-1.7c-2.6,0.1-5.2,1-7.7,2
				c-2.3,0.9-4.5,2-6.6,3.2c3-4.1,6.1-8.9,6.3-14c0.3-6.6-6.8-8.6-11.8-10.4c-4.8-1.8-8.2,0.7-9.9,5.3c-2.2,5.9-1.9,12.7-1.2,18.8
				c0.3,3.1,0.9,6.1,1.8,9c0.1,0.3,0.2,0.6,0.3,0.9c-0.5,0.6-0.9,1.2-1.4,1.8c0.6,0.2,1.2,0.5,1.7,0.7c-0.6,0.3-1.2,0.8-1.6,1.5
				c0,0,1.9,0.8,1.9,0.8c0.8,0.3,1.5,0.6,2.3,0.9c0.4,0.2,0.7,0.3,1.1,0.5c0,0,0,0,0-0.1c3.6,1.2,7.2,2,10.9,2.3
				c2.3,1.8,4.4,3.8,5.7,6.1c1.7,2.8,2.3,6,4,8.8c1.8,3.1,5.5,4.3,8.7,5.6c3.2,1.3,6,1.9,9.4,1.3c3.4-0.5,6.6-2.1,9.3-4.1
				C275.5,360.8,273.3,359.7,273.1,359.6z M227.3,330c-0.1-0.9-0.2-1.7-0.3-2.5c-0.8-6-0.9-12.5,0.8-18.4c1.2-4,3.8-7.5,8-7
				c0.3,0.2,0.7,0.5,1,0.8c0.9,0.8,1.6,1.8,2,2.9c0.9,2.2,0.5,4.7-0.2,6.9C236.4,319.2,231.8,324.6,227.3,330z M234.3,340.9
				c-1.2-0.1-2.4-0.2-3.6-0.3c-0.3-0.5-0.6-1-0.9-1.5c0.6-0.2,1.3-0.3,2.1-0.2c0.3,0,0.6,0.1,0.9,0.1c0.6,0.4,1.2,0.7,1.8,1.1
				c0.5,0.3,0.9,0.6,1.4,0.9C235.4,340.9,234.8,340.9,234.3,340.9z M237.9,341c-1-0.6-2-1.1-3.1-1.5c-0.1,0-0.1-0.1-0.2-0.1
				c0,0-0.5-0.2-1.1-0.5c-1.3-0.6-2.9-1.3-4.5-1.8c3-2.8,6.5-5.1,9.9-7.2c5-3.2,10.5-6.3,16.4-7.6c1-0.2,2.1-0.4,3.1-0.4
				c1,1.3,1.3,3.1,1.4,4.7c0.3,7.4-6,11.6-12.4,13.2C244.2,340.6,241,340.9,237.9,341z M255.5,362.7c-1.7-0.3-2.6-1.4,0.5,0.1
				C255.8,362.7,255.7,362.7,255.5,362.7z"/>
			
				<rect x="214" y="294.1" transform="matrix(0.6792 -0.734 0.734 0.6792 -179.7385 272.7437)" class="st13" width="16.2" height="95.7"/>
			
				<rect x="214" y="332.2" transform="matrix(0.6792 -0.7339 0.7339 0.6792 -179.7373 272.7359)" class="st1" width="16.2" height="19.5"/>
		</g>
		<g>
			<polygon class="st13" points="25.4,0 0,0 0,11 25.9,9.7 			"/>
			<g class="st14">
				<polygon class="st3" points="25.6,3.7 0,5 0,11 25.9,9.7 				"/>
				<polygon class="st4" points="25.4,0 0,0 0,5 25.6,3.7 				"/>
			</g>
			<polygon class="st2" points="25.8,5.3 0,6.6 0,11.7 26.1,10.5 			"/>
			<path class="st12" d="M8.8,42.4C6.9,38.3,3.5,34.7,0,31.6V39c1.2,1.5,2.3,3,3.2,4.6c2,3.5,2.6,7.6-0.5,10.2
				c-0.4,0.1-0.8,0.1-1.2,0.2c-0.5,0-1,0-1.5-0.1v1.4c2-0.7,4-1.7,5.7-2.5C10.2,50.7,10.8,46.6,8.8,42.4z"/>
			<polygon class="st13" points="29.8,7.7 0,9.2 0,24.8 30.6,23.2 			"/>
		</g>
		<g>
			<polygon class="st13" points="0,494 0,533 25.4,533 23.4,492.8 			"/>
			<g class="st14">
				<polygon class="st3" points="24.9,523 0,524.3 0,530.6 25.2,529.4 				"/>
				<polygon class="st3" points="24.3,509.4 0,510.6 0,516.9 24.6,515.7 				"/>
				<polygon class="st3" points="23.6,495.7 0,496.9 0,503.2 23.9,502 				"/>
				<polygon class="st4" points="0,530.6 0,533 25.4,533 25.2,529.4 				"/>
				<polygon class="st4" points="24.6,515.7 0,516.9 0,524.3 24.9,523 				"/>
				<polygon class="st4" points="23.9,502 0,503.2 0,510.6 24.3,509.4 				"/>
				<polygon class="st4" points="23.4,492.9 0,494 0,496.9 23.6,495.7 				"/>
			</g>
			<polygon class="st6" points="23.4,492.8 0,494 0,496.9 23.6,495.7 			"/>
		</g>
		<g>
			<polygon class="st13" points="533,11 533,0 474.7,0 475.4,13.8 			"/>
			<g class="st14">
				<polygon class="st3" points="484.4,0 474.7,0 474.8,0.5 				"/>
				<polygon class="st3" points="475.4,13.9 533,11 533,5 475.1,7.8 				"/>
				<polygon class="st4" points="475.1,7.8 533,5 533,0 484.4,0 474.8,0.5 				"/>
			</g>
			<polygon class="st6" points="483.6,13.4 482.9,0 474.7,0 475.4,13.8 			"/>
			<polygon class="st12" points="524.9,9.9 524.5,0 508.7,0 509.2,10.7 			"/>
			<polygon class="st2" points="475.5,14.6 533,11.7 533,6.6 475.2,9.5 			"/>
			<path class="st12" d="M531.2,53.3c-2.1-0.9-3.5-2.8-4.5-4.7c-3.2-5.9-3.8-12.7-4.4-19.3c0.7,0.5,1.3,1,1.9,1.4
				c3.2,2.4,6.3,5.1,8.9,8.2v-7.3c-1.1-0.9-2.2-1.8-3.3-2.7c-2.3-1.8-4.8-3.5-7.4-4.8c-0.2-0.1-0.5-0.3-0.8-0.4
				c-0.1-0.7-0.2-1.5-0.3-2.2c-0.5,0.2-1.1,0.5-1.6,0.7c0.2-0.6,0.3-1.3,0.1-2.1c0,0-1.8,0.8-1.9,0.8c-0.7,0.3-1.4,0.6-2.1,1
				c-0.4,0.1-0.7,0.3-1,0.4c0,0,0,0.1,0,0.1c-3.2,1.7-6.2,3.6-8.9,5.9c-2.7,0.4-5.5,0.4-8-0.2c-3-0.7-5.7-2.5-8.7-3.2
				c-3.4-0.8-6.7,0.9-9.6,2.2c-3,1.3-5.3,2.9-7.2,5.6c-1.9,2.7-3,5.9-3.5,9.1c0-0.2,2.3-1,2.5-1.1c0.2-0.1,2.5-0.8,2.5-1.1
				c0.5-3.1,1.5-6,3.2-8.7c0.9-1.4,2-2.6,3.2-3.7c0.1,0,0.1-0.1,0.2-0.1c0.4-0.1,0.8-0.1,1.3-0.2c3.3-0.3,6.2,1.8,9.2,2.9
				c1.9,0.7,4,0.9,6,0.9c2.4,0,4.8-0.2,7.1-0.7c-0.8,0.7-1.5,1.5-2.2,2.3c-4.2,4.6-8.6,11.2-7.3,17.8c0.9,4.8,5.8,9.5,10.7,7.3
				c0.5-0.2,1-0.4,1.6-0.6c1.5-0.6,4.7-2.5,5.7-3.5c1.7-1.9,2.8-4.3,3.8-6.6c0.9-2.2,1.6-4.4,2.3-6.7c0.8,4.8,2,10.1,5.4,13.7
				c2.7,2.9,6,2.6,9.3,1.5v-1.4C532.4,53.8,531.8,53.6,531.2,53.3z M480.6,27c0.1-0.1,0.2-0.2,0.4-0.3
				C482.3,25.8,483.7,25.9,480.6,27z M510.1,26.8c0.9-0.8,1.8-1.5,2.7-2.3c0.5,0.1,1.1,0.2,1.6,0.4c-0.3,0.6-0.7,1.1-1.2,1.6
				c-0.2,0.2-0.4,0.4-0.7,0.5c-0.7,0.2-1.3,0.4-2,0.5c-0.5,0.1-1,0.2-1.6,0.3C509.3,27.5,509.7,27.1,510.1,26.8z M514.5,37.3
				c-1.2,5.6-2.8,11.4-5.8,16.3c-0.5,0.9-1.1,1.7-1.8,2.4c-1.6-0.2-3-1.2-4.1-2.2c-5.3-4.8-3.9-11.8-0.7-17.4c1.5-2.6,3.4-5,5.5-7.2
				c1.1-0.3,2.1-0.7,3.1-1.1c0.1,0,0.1-0.1,0.2-0.1c0.1,0,0.5-0.2,1.1-0.4c1.3-0.5,2.9-1.1,4.2-1.9
				C516.1,29.6,515.3,33.5,514.5,37.3z"/>
			<polygon class="st13" points="472.1,27.8 533,24.8 533,9.2 471.3,12.2 			"/>
			
				<rect x="508.1" y="10" transform="matrix(0.9988 -4.932095e-002 4.932095e-002 0.9988 -0.245 25.543)" class="st1" width="18.7" height="15.6"/>
		</g>
		<g>
			<polygon class="st13" points="533,494 472.9,496.9 474.7,533 533,533 			"/>
			<g class="st14">
				<polygon class="st3" points="533,524.3 474.4,527.1 474.7,533 484.4,533 533,530.6 				"/>
				<polygon class="st3" points="474.1,519.8 533,516.9 533,510.6 473.8,513.5 				"/>
				<polygon class="st3" points="473.4,506.1 533,503.2 533,496.9 473.1,499.8 				"/>
				<polygon class="st4" points="533,530.6 484.4,533 533,533 				"/>
				<polygon class="st4" points="474.4,527.1 533,524.3 533,516.9 474.1,519.8 				"/>
				<polygon class="st4" points="473.8,513.5 533,510.6 533,503.2 473.4,506.1 				"/>
				<polygon class="st4" points="473.1,499.8 533,496.9 533,494 473,497 				"/>
			</g>
			<polygon class="st6" points="533,496.9 533,494 473,496.9 474.7,533 482.9,533 481.2,499.4 			"/>
			<polygon class="st12" points="506.8,495.3 508.7,533 524.5,533 522.6,494.5 			"/>
		</g>
		<g>
			<polygon class="st16" points="354.3,40.1 366.5,0 287.3,0 281.8,18.1 			"/>
			<g class="st14">
				<path class="st3" d="M314.1,27.6c-0.4-1.5-0.4-3.2,0.1-4.8c1.4-4.7,7.8-7,12.5-5.5c4.7,1.4,6,6,4.5,10.7c-0.5,1.6-1.4,3-2.6,4
					l25.6,7.8l4.6-15.2c-1,0.2-2,0.2-3-0.1c-3.1-0.9-5.9-5.2-5-8.3c0.9-3.1,5.3-3.9,8.4-2.9c1,0.3,1.9,0.9,2.5,1.6L366.4,0H318
					c0,0,0,0.1,0,0.1c-0.3,0.9,0,4.2-5,2.7c-1.4-0.4-2.3-1.5-2.7-2.8h-23l-5.4,17.8L314.1,27.6z"/>
				<path class="st4" d="M326.8,17.3c-4.7-1.4-11.1,0.8-12.5,5.5c-0.5,1.6-0.5,3.3-0.1,4.8l14.6,4.4c1.2-1.1,2.1-2.4,2.6-4
					C332.7,23.3,331.5,18.7,326.8,17.3z"/>
				<path class="st4" d="M351,16.3c-0.9,3.1,1.9,7.3,5,8.3c1,0.3,2,0.3,3,0.1l3-9.7c-0.7-0.7-1.5-1.3-2.5-1.6
					C356.2,12.4,351.9,13.2,351,16.3z"/>
				<path class="st4" d="M313,2.8c5,1.5,4.7-1.8,5-2.7c0,0,0-0.1,0-0.1h-7.7C310.6,1.3,311.6,2.4,313,2.8z"/>
			</g>
			<polygon class="st2" points="283,13.5 281.7,17.7 354.2,39.8 366.3,0 358.5,0 348.4,33.4 			"/>
			<polygon class="st13" points="325.8,31.1 335.3,0 314.5,0 306.8,25.3 			"/>
		</g>
		<g>
			<polygon class="st16" points="303.9,478.6 287.3,533 366.5,533 376.3,500.7 			"/>
			<g class="st14">
				<path class="st3" d="M303.9,478.3l-11,36.2c0,0,0,0,0,0c4.3,1.3,7.2,4.2,5.9,8.6c-1.3,4.3-6.4,8.4-10.7,7.1c0,0,0,0,0,0
					l-0.9,2.9h23c-0.2-0.7-0.2-1.5,0-2.2c0.6-2.1,2.9-3.3,5-2.7c2.1,0.6,3.3,2.8,2.7,4.9h48.4l9.9-32.7L303.9,478.3z M329.8,504.6
					c-1.4,4.8-4.5,7.8-9.3,6.4c-4.8-1.4-9.4-6.8-8-11.6c1.4-4.8,6.5-7.4,11.2-6C328.5,494.8,331.2,499.9,329.8,504.6z M346.8,527.7
					c-0.9,3.1-4.2,4.8-7.3,3.9c-3.1-0.9-4.3-5.9-3.4-9c0.9-3.1,3.7-3.1,6.8-2.2C346,521.4,347.7,524.6,346.8,527.7z M365,519.1
					c-1.8-0.5-4-2.8-3.5-4.6c0.5-1.8,3.7-2.4,5.5-1.9c1.8,0.5,2.8,2.4,2.3,4.2C368.7,518.6,366.8,519.7,365,519.1z"/>
				<path class="st4" d="M323.8,493.4c-4.8-1.4-9.8,1.2-11.2,6c-1.4,4.8,3.2,10.2,8,11.6c4.8,1.4,7.8-1.6,9.3-6.4
					C331.2,499.9,328.5,494.8,323.8,493.4z"/>
				<path class="st4" d="M342.9,520.4c-3.1-0.9-5.8-0.9-6.8,2.2c-0.9,3.1,0.3,8,3.4,9c3.1,0.9,6.4-0.8,7.3-3.9
					C347.7,524.6,346,521.4,342.9,520.4z"/>
				<path class="st4" d="M367,512.6c-1.8-0.5-4.9,0.1-5.5,1.9c-0.5,1.8,1.7,4.1,3.5,4.6c1.8,0.5,3.7-0.5,4.2-2.3
					C369.8,515.1,368.8,513.2,367,512.6z"/>
				<path class="st4" d="M292.9,514.6C292.9,514.5,292.9,514.5,292.9,514.6l-4.8,15.6c0,0,0,0,0,0c4.3,1.3,9.4-2.7,10.7-7.1
					C300.1,518.8,297.2,515.9,292.9,514.6z"/>
				<path class="st4" d="M315.3,528.1c-2.1-0.6-4.3,0.5-5,2.7c-0.2,0.7-0.2,1.5,0,2.2h7.7C318.6,530.9,317.4,528.8,315.3,528.1z"/>
			</g>
			<path class="st13" d="M377.4,476.4c-5-2.8-10.8-4.1-16.4-4.6c-2.5-0.2-5-0.3-7.5-0.3c0.7-0.3,1.5-0.7,2.2-1
				c3.9-1.7,7.9-3.1,11.7-4.8c3.5-1.6,7-3.8,9-7.3c1.8-3.1,2-8.3-0.7-10.9c-1.8-1.7-5.5-2.6-7.8-3.3c-4.4-1.4-9.7,1.8-13.1,4.1
				c-2.7,1.8-5,3.9-7.1,6.3c0.5-3.3,0.8-6.6,0.6-10c-0.2-3.7-1-7.7-3.9-10.2c-1.9-1.6-5-2.4-7.3-3.2c-2.9-1-5.5,1.1-7.2,3.2
				c-2.8,3.5-4,8.1-4.1,12.5c-0.1,4.4,1,8.9,2.8,13c-1.3-0.9-2.6-1.8-4-2.5c-2.7-1.4-7.3-4-10.4-3.1c-3.9,1.1-3.3,6.1-0.8,8.2
				c3.2,2.7,8.2,4.1,12.2,5.4c2,0.7,4,1.2,6.1,1.8c0.2,0.1,0.4,0.1,0.7,0.2c0,0,0.1,0.1,0.1,0.1c0.9,0.6,1.8,1.3,2.7,2
				c1.9,1.3,4.4,2,6.5,2.8c1.1,0.4,2.2,0.5,3.3,0.4c9.3,3.1,18.5,6.5,28.1,8.8c2.3,0.6,5.4,1.2,7.5-0.4
				C383,481.4,379.2,477.5,377.4,476.4z M334.8,470.6c0.4,0-2.6-1.3-3.1-1.2c-2.3-0.9-4.5-1.6-6.9-2.2c-1.4-0.4-2.9-0.8-4.3-1.2
				c-0.6-0.3-1.2-0.7-1.8-1.2c-2.2-1.7-2.6-4-1.3-6.3c0.8-1.5,2.1-2,3.6-2c0.3,0.2,0.6,0.4,0.8,0.6c1.4,1,2.7,2.2,4,3.3
				c2.6,2.4,5,4.9,7.2,7.6c0.7,1,1.5,2,2.3,2.9C335.2,470.8,335,470.7,334.8,470.6z M338.5,469.9c-0.1-0.1-0.1-0.2-0.2-0.3
				c-3.3-4.8-5.7-10.2-6.7-16c-1.1-6.7,0.6-16.6,7.4-19.9c0.3-0.2,0.7-0.3,1-0.3c0.3,0.3,0.5,0.7,0.7,1.1c2,3.1,2.1,7.4,2.1,11
				C342.7,453.7,340,461.7,338.5,469.9z M354.7,455.2c3.8-4,10.1-8.8,16.1-8.9c1.7,2.4,1.3,5.9,0.4,8.7c-1.3,3.9-5.2,6.4-8.7,8.1
				c-3.8,1.9-7.8,3.2-11.7,4.9c-1.8,0.8-3.7,1.7-5.6,2.4C347.4,464.8,350.5,459.6,354.7,455.2z M369.9,482.1
				c-4.9-0.4-9.9-2.4-14.5-3.9c-3.3-1.1-6.6-2.2-9.8-3.3c1.5-0.2,3-0.6,4.4-0.8c6.8-1.1,14.2-0.5,21,0.4c0.7,0.1,1.4,0.2,2,0.4
				c0,0,0,0,0,0c1,0.8,1.8,1.9,2.2,3.1C376.5,481.8,372.5,482.3,369.9,482.1z"/>
			<polygon class="st2" points="369.1,498.2 358.5,533 366.3,533 376.2,500.3 			"/>
			<polygon class="st13" points="328.2,488.1 314.5,533 335.3,533 347.2,493.9 			"/>
			
				<rect x="336.1" y="453.6" transform="matrix(0.2909 -0.9567 0.9567 0.2909 -229.6499 673.1496)" class="st2" width="6.5" height="75.7"/>
			
				<rect x="332.4" y="442.8" transform="matrix(0.2909 -0.9567 0.9567 0.2909 -218.6446 669.2231)" class="st16" width="19.6" height="78.7"/>
			
				<rect x="330.9" y="469.9" transform="matrix(0.2909 -0.9568 0.9568 0.2909 -219.2394 667.5569)" class="st17" width="19.6" height="23.5"/>
		</g>
		<path class="st18" d="M437,72.9c-15.8,0-26.6,12.6-26.6,28.4c0,15.8,14.9,28.4,30.7,28.4c15.8,0,27-15.3,27-31.1
			C468,82.8,452.7,72.9,437,72.9z"/>
		<path class="st18" d="M140.1,218.8c-7.1,0-12.9,7.1-12.9,14.2c0,7.1,8.1,12.9,15.2,12.9c7.1,0,10.6-5.8,10.6-12.9
			C153,225.9,147.3,218.8,140.1,218.8z"/>
		<path class="st18" d="M191.3,81.1c-7.1,0-12.8,5.7-12.8,12.8c0,7.1,7.5,12.8,14.6,12.8s11.1-7.9,11.1-15
			C204.1,84.6,198.4,81.1,191.3,81.1z"/>
		<path class="st18" d="M211.2,179.3c-3.9,0-7.1,3.2-7.1,7.1s4.2,7.1,8.1,7.1c3.9,0,6.2-4.4,6.2-8.3S215.2,179.3,211.2,179.3z"/>
		<path class="st18" d="M437,297.1c-8.4,0-15.2,5.2-15.2,13.6c0,8.4,6.8,16.9,15.2,16.9c8.4,0,16.3-6.8,16.3-15.2
			C453.3,303.9,445.4,297.1,437,297.1z"/>
		<path class="st18" d="M255.5,425c-5.3,0-9.7,4.3-9.7,9.7c0,5.3,5.8,11,11.1,11c5.3,0,10.3-6.7,10.3-12S260.9,425,255.5,425z"/>
		<path class="st18" d="M127.1,370.2c-6,0-10.9,3-10.9,9S121,392,127.1,392c6,0,12.2-3.6,12.2-9.6S133.1,370.2,127.1,370.2z"/>
		<path class="st18" d="M349.4,339.4c-3.5-2.8-10-2.2-12.9,1.3c-2.8,3.5-3.4,7.8,0.1,10.6c3.5,2.8,9.8,3.2,12.6-0.3
			C352.1,347.5,352.9,342.2,349.4,339.4z"/>
		<path class="st18" d="M506.5,72.9c-3.9,0-7.1,3.2-7.1,7.1c0,3.9-0.7,7.1,3.2,7.1c3.9,0,11-3.2,11-7.1
			C513.6,76,510.4,72.9,506.5,72.9z"/>
		<path class="st18" d="M82.3,253.6c-4.7,0-9.2,4.3-9.2,9.1c0,4.7,5,9.7,9.7,9.7c4.7,0,8.6-3.8,8.6-8.6
			C91.5,259.1,87,253.6,82.3,253.6z"/>
		<circle class="st18" cx="39.9" cy="48.8" r="10.2"/>
		<path class="st18" d="M284.8,48.8c-4.6,0-8.3,3.7-8.3,8.3s8.3,8.3,12.8,8.3c4.6,0,5.6-5.7,5.6-10.2S289.4,48.8,284.8,48.8z"/>
		<g>
			<path class="st12" d="M235.9,85.7C235.9,85.6,235.9,85.6,235.9,85.7c-0.5-0.8-1-1.6-1.5-2.4c-1.7,1-3.3,2.2-4.8,3.6
				c-1.7,1.6-2.6,3.8-3,6c0,0.6,0.1,1.3,0.2,1.8C228,90.6,231.7,87.5,235.9,85.7z"/>
			<path class="st12" d="M226.9,94.7c-0.1-0.6-0.2-1.2-0.2-1.8c0,0,0,0.1,0,0.1c0,1,0,1.9,0,2.9C226.7,95.5,226.8,95.1,226.9,94.7z"
				/>
			<path class="st12" d="M234.5,80c-2.5-3.5-6-6.4-10.3-7.2c-5.2-1.1-10,2-13.5,5.6c-0.6,0.6,0.5,2.8,0,3.3c3.9-4,8.9-6.8,14.6-5.3
				c3.8,1,6.9,3.7,9.2,6.9c0.5-0.3,1-0.6,1.6-0.8C235.5,81.6,235,80.7,234.5,80z"/>
			<path class="st12" d="M226.6,92.6c0,0.1,0,0.2,0,0.4c0,0,0-0.1,0-0.1C226.7,92.8,226.6,92.7,226.6,92.6z"/>
			<path class="st12" d="M238.7,93c0,0.4,0,0.8,0,1.3C238.8,94.3,238.8,93.2,238.7,93z"/>
			<path class="st12" d="M263.5,91.2c-2.7-6.3-9-9.8-15.6-10.8c-4.1-0.6-8.2,0.2-11.9,2c0.5,0.9,0.9,1.8,1.3,2.7
				c2.5-0.9,5-1.5,7.3-1.6c7.6-0.3,15.9,3.9,18.9,11C263.1,93.6,263.9,92.1,263.5,91.2z"/>
			<path class="st12" d="M234.4,83.2c0.6,0.8,1.1,1.6,1.5,2.4c0,0,0,0,0,0c0.4-0.2,0.9-0.4,1.3-0.6c-0.4-0.9-0.8-1.8-1.3-2.7
				C235.4,82.6,234.9,82.9,234.4,83.2z"/>
			<path class="st12" d="M238.5,93.4c0-0.1,0-0.1,0-0.2c0,0.1,0,0.2-0.1,0.4c-0.1,0.9-0.5,1.7-1,2.5c-0.9,1.5-2.5,2.3-4.2,2.6
				c-3.7,0.7-5.7-1.1-6.4-4.1c-0.1,0.4-0.2,0.8-0.3,1.2c0-1,0-1.9,0-2.9c-0.3,2.1-0.1,4.2,0.5,6.2c1.3,4.7,8.2,3.6,10.4,0.3
				c1-1.5,1.2-3.4,1.2-5.2C238.7,94.2,238.6,94,238.5,93.4z"/>
			<path class="st12" d="M238.3,92c0.1,0.4,0.1,0.8,0.2,1.3c0.1-0.3,0.1-0.4,0.2-0.3c0-0.7-0.1-1.3-0.1-1.9c-0.1-2-0.6-4.1-1.3-6
				c-0.4,0.2-0.9,0.4-1.3,0.6C237.1,87.6,237.9,89.8,238.3,92z"/>
			<path class="st12" d="M238.5,93.3c0,0.1,0,0.1,0,0.2c0.1,0.6,0.1,0.8,0.2,0.8c0-0.4,0-0.8,0-1.3
				C238.7,92.9,238.6,92.9,238.5,93.3z"/>
		</g>
		<g>
			<path class="st10" d="M134.1,247.9c-0.7,4.5-0.1,9.3,2.1,13.2c4,7,13,11.1,20.8,11.3c0,0,0-3.3,0-3.3c-6.3-0.1-12.3-2.6-17-6.8
				c-2.3-2-4.1-4.6-5.2-7.5c-0.2-0.6-0.7-4-0.8-2.7c0,0.1,0,0.3,0,0.4c0-0.2,0-0.3,0-0.4c0.1-1.7,0.5-3.4,1-5
				c0.8-2.9,1.8-5.6,3.5-7.6c-0.4-0.6-0.8-1.3-1.1-1.9C135.4,240.8,134.5,244.8,134.1,247.9z"/>
			<path class="st10" d="M134,252.2c0,0.1,0,0.2,0,0.4C133.9,252.5,134,252.3,134,252.2z"/>
			<path class="st10" d="M159.1,242c0-0.3,0-0.5,0-0.8c0,0.1,0,0.3-0.1,0.4C159.1,241.8,159.1,241.9,159.1,242z"/>
			<path class="st10" d="M166.3,199.8c-13-0.5-28.4,7.6-31.5,21.1c-1.2,5.4-0.3,11.7,2.4,16.8c0.3-0.5,0.7-1,1-1.5
				c-2.8-3.9-4.3-8.8-3.1-13.5c3.4-12.6,18.9-20,31.1-19.6C166.3,203.1,166.4,199.8,166.3,199.8z"/>
			<path class="st10" d="M158.8,240.5c0.1,0.4,0.2,0.8,0.3,1.2c0-0.1,0-0.3,0.1-0.4c0-0.8,0-1.7,0-2.5
				C159.1,239.4,159,240,158.8,240.5z"/>
			<path class="st10" d="M145.1,236c4.5-0.5,11.8-0.3,13.7,4.4c0.2-0.5,0.3-1.1,0.4-1.7c0,0.8,0,1.7,0,2.5c0.1-0.8,0.1-1.7,0-2.6
				c-0.7-6.8-10.3-6.6-15.4-5.8c-2.3,0.3-4,1.6-5.4,3.3c0.5,0.7,1,1.3,1.6,2C141.3,237,143,236.3,145.1,236z"/>
			<path class="st10" d="M151.5,244.7c-3.4,0-6.7-2.3-9.3-4.4c-0.8-0.7-1.6-1.4-2.3-2.2c-0.5,0.4-1.1,0.9-1.5,1.5
				c2.9,4.5,7.4,7.9,13.1,8.4c4.6,0.4,7-2.6,7.6-6.4c-0.1-0.4-0.2-0.8-0.3-1.2C157.7,243.3,154.5,244.7,151.5,244.7z"/>
			<path class="st10" d="M138.4,239.6c0.5-0.5,1-1,1.5-1.5c-0.6-0.6-1.1-1.3-1.6-2c-0.4,0.5-0.7,1-1,1.5
				C137.7,238.3,138,239,138.4,239.6z"/>
		</g>
		<g>
			<path class="st16" d="M471.8,269.7c0,0.1,0,0.1,0,0.2C471.8,269.4,471.8,269.4,471.8,269.7z"/>
			<path class="st16" d="M483.7,245.5c-8.7-0.8-16,5.7-18.5,13.7c0.4,0.1,0.8,0.2,1.2,0.3c3.2-6.6,9.7-11.4,17.3-10.7
				C483.6,248.8,483.8,245.5,483.7,245.5z"/>
			<path class="st16" d="M458.3,260c-8.3,2.9-10.7,11.5-9.3,19.5c0.3,1.4,0.8,2.7,1.3,4c-0.4-0.9,0.4-2.4,0-3.3
				c-1.7-3.8-1.9-6.9,0.2-10.6c1.7-2.9,4.6-5.1,7.7-6.3c2.1-0.8,4.2-1.1,6.2-0.8c0.1-1.1,0.4-2.2,0.7-3.3
				C462.9,258.8,460.4,259.3,458.3,260z"/>
			<path class="st16" d="M464.6,265.7c0,0.1,0,0.2-0.1,0.5C464.5,266,464.5,265.8,464.6,265.7z"/>
			<path class="st16" d="M464.5,262.6c0.2,0,0.5,0.1,0.7,0.1c0.2-0.5,0.3-1,0.5-1.5c0.2-0.5,0.4-1.1,0.7-1.6
				c-0.4-0.1-0.8-0.2-1.2-0.3C464.9,260.3,464.7,261.4,464.5,262.6z"/>
			<path class="st16" d="M465.2,262.7c3.3,0.7,5.9,3,6.5,7c0-0.3,0-0.3,0,0.2c0-0.1,0-0.1,0-0.2c0,0.1,0,0.3,0,0.5
				c-0.3,0.1-0.7,0.2-1,0.2c-0.7,0.1-1.4,0.1-2.2,0.1c-1.2-0.1-2.2-0.8-2.9-1.7c-0.4-0.5-0.6-1.1-0.8-1.6c-0.1-0.4-0.2-1.6-0.3-1.4
				c0,0.2-0.1,0.3-0.1,0.5c0-0.3,0-0.4,0.1-0.5C464.7,264.7,464.9,263.7,465.2,262.7c-0.2,0-0.5-0.1-0.7-0.1c0,0.2-0.1,0.5-0.1,0.7
				c-0.2,2.7-0.4,6.1,1,8.5c0.7,1.3,2.1,1.9,3.5,2.1c0.9,0.1,1.9-0.1,2.8-0.3c0.2-0.1,0.2-2.4,0.2-2.7c0-3.6,0-7.3-2.9-9.8
				c-0.7-0.6-1.6-1.1-2.5-1.4c-0.3,0.5-0.5,1.1-0.7,1.6C465.6,261.7,465.4,262.2,465.2,262.7z"/>
		</g>
		<g>
			<path class="st13" d="M433.9,106.2c-2.9-1.1-4.4-5-4.7-7.8c-0.2-2.1,0.1-4.3,0.7-6.4c-0.5-0.8-1.1-1.6-1.8-2.3
				c-1.5,3.1-2.2,6.5-2.1,9.9c0.2,4,2.4,7.6,6.6,8c1,0.1,2.6-0.3,3.5-1.1c-0.9,0.4-1.9,0.7-2.8,1.1
				C433.7,107.3,433.8,106.8,433.9,106.2z"/>
			<path class="st13" d="M433.9,106.2c-0.1,0.6-0.2,1.1-0.6,1.3c0.9-0.4,1.9-0.7,2.8-1.1c0,0,0.1-0.1,0.1-0.1
				C435.4,106.5,434.6,106.4,433.9,106.2z"/>
			<path class="st13" d="M436.4,106.3c-0.1,0-0.1,0-0.2,0c0,0-0.1,0.1-0.1,0.1C436.2,106.4,436.3,106.4,436.4,106.3z"/>
			<path class="st13" d="M410.1,89.1c0.9-0.6,2.2-0.6,3.1-1.2c5.7-3.5,11.1-2.4,15,1.7c0.5-1,1-1.9,1.6-2.8
				C424,82.3,415.7,85.6,410.1,89.1z"/>
			<path class="st13" d="M431,93.7c1.4,2.7,2.2,5.8,2.6,8.8c0.1,0.6,0.4,2.3,0.3,3.6c0.7,0.3,1.5,0.4,2.4,0.2
				c0.3-0.3,0.5-0.7,0.6-1.1c0.8-5.6-1.8-12.7-5.5-16.9c-0.6,1.1-1.1,2.3-1.4,3.5C430.3,92.5,430.6,93.1,431,93.7z"/>
			<path class="st13" d="M429.8,86.9c-0.6,0.9-1.2,1.8-1.6,2.8c0.6,0.7,1.2,1.5,1.8,2.3c0.4-1.2,0.8-2.4,1.4-3.5
				c-0.1-0.1-0.2-0.3-0.4-0.4C430.6,87.6,430.2,87.2,429.8,86.9z"/>
			<path class="st13" d="M455,70.6c-4.6,1.6-8.2,3.7-10.3,8.3c1,0,1.9,0.1,2.8,0.3c0.5-2.6,1.9-4.8,4.4-6.8c1.9-1.5,3.8-1.8,7.3-1.7
				c3.2,0.1,6.3,1,9.1,2.4c5.1,2.5,9.1,7.2,9.5,12.9c0-0.3,3.1-0.8,3.1-1.2C480.1,72.9,465.3,67,455,70.6z"/>
			<path class="st13" d="M447.9,81.9c4.1,3.2,7.5,8.4,8.9,13.4c0.5,1.8,0.6,3.9-0.6,5.4c0,0,0,0,0,0c0.2,0,0.5,0,0.7,0
				c-0.4,0.1-0.7,0.1-0.9,0.2c-0.5,0.4-0.9,0.3,0,0c0.1-0.1,0.1-0.1,0.2-0.2c-0.2,0-0.3,0-0.5-0.1c-1-0.2-1.9-0.9-2.6-1.6
				c-3.5-3.4-4.8-9.5-5.5-14.1c-0.2-1.2-0.3-2.4-0.2-3.5c-1-0.6-2-1.1-3-1.3c-1,3.8,0.6,8.7,1.6,12.2c1.1,3.5,3.4,9.8,8,9.5
				c2.9-0.2,6.3-2,6.5-5.1c0.3-5-3.9-10.5-7.1-14c-1.7-1.9-3.6-3-5.7-3.6c-0.1,0.7-0.2,1.5-0.3,2.2
				C447.5,81.6,447.7,81.7,447.9,81.9z"/>
			<path class="st13" d="M444.6,79.2c-0.1,0.3-0.2,0.6-0.3,1c1,0.2,2.1,0.6,3,1.3c0-0.8,0.1-1.5,0.3-2.2c-0.9-0.2-1.9-0.3-2.8-0.3
				C444.7,79,444.6,79.1,444.6,79.2z"/>
			<path class="st13" d="M456,100.9c0.2-0.1,0.5-0.1,0.9-0.2c-0.2,0-0.5,0-0.7,0C456.2,100.8,456.1,100.9,456,100.9z"/>
			<path class="st13" d="M444.7,78.9c-1.5,0-3,0.3-4.6,0.9c-3.8,1.3-7.1,2.9-9.7,6.2c-0.2,0.3-0.5,0.6-0.7,0.9
				c0.4,0.3,0.8,0.7,1.2,1.1c0.1,0.1,0.2,0.3,0.4,0.4c0.8-1.7,1.9-3.2,3.1-4.6c2.6-2.9,6.3-4.4,9.8-3.6c0.1-0.3,0.2-0.7,0.3-1
				C444.6,79.1,444.7,79,444.7,78.9z"/>
		</g>
		<g>
			<path class="st13" d="M462.9,451.7c1,1.9-0.1,4.7-1.3,6.3c-0.9,1.2-2.1,2.2-3.4,3c-0.1,0.7-0.2,1.4-0.2,2
				c2.2-0.9,4.2-2.3,5.7-4.1c1.8-2.2,2.3-5.1,0.3-7.3c-0.5-0.5-1.4-1.1-2.3-1.1c0.7,0.3,1.3,0.5,2,0.8
				C463.5,451.2,463.2,451.4,462.9,451.7z"/>
			<path class="st13" d="M445.2,460.3c-0.4-0.6-0.8-1.3-1-2.1c-0.4,0.4-0.8,0.7-1.2,1c0.4,0.5,0.8,1.1,1.3,1.5
				c0.1,0,0.1-0.1,0.2-0.1C444.8,460.5,445,460.4,445.2,460.3z"/>
			<path class="st13" d="M458,463c-0.7,0.3-1.4,0.5-2.2,0.7c0.8,5.1,6.7,7.3,11.3,8.2c-0.7-0.1-1.4-0.7-2.2-0.9
				C460.4,470,458.1,466.9,458,463z"/>
			<path class="st13" d="M458.5,459.5c0.6-2.1,1.6-4,2.8-5.8c0.2-0.3,0.9-1.4,1.5-2c-0.2-0.5-0.6-0.9-1.1-1.2
				c-0.3,0-0.6,0.1-0.8,0.3c-3,2.5-5,7.4-5.1,11.4c0.8-0.3,1.6-0.7,2.4-1.2C458.3,460.5,458.4,460,458.5,459.5z"/>
			<path class="st13" d="M461.6,450.4c0,0,0.1,0.1,0.1,0.1c0,0,0.1,0,0.1,0C461.8,450.4,461.7,450.4,461.6,450.4z"/>
			<path class="st13" d="M462.9,451.7c0.3-0.3,0.6-0.5,0.9-0.4c-0.7-0.3-1.3-0.5-2-0.8c0,0-0.1,0-0.1,0
				C462.3,450.8,462.6,451.2,462.9,451.7z"/>
			<path class="st13" d="M443,459.2c-1.5,1.1-3.3,1.6-5.5,1.5c-1.7-0.1-2.9-0.9-4.6-2.5c-1.6-1.5-2.8-3.5-3.6-5.5
				c-1.5-3.7-1.3-8,1.2-11.2c-0.1,0.2-2-1.1-2.2-0.9c-5.2,6.6-0.3,16.7,6.8,19.6c3.1,1.3,6,2,9.3,0.6
				C443.8,460.3,443.4,459.8,443,459.2z"/>
			<path class="st13" d="M444.2,458.2c0-0.2-0.1-0.4-0.1-0.5c-0.6-3.6,0.1-7.9,1.7-11.2c0.6-1.2,1.5-2.3,2.9-2.5c0,0,0,0,0,0
				c-0.1-0.1-0.2-0.3-0.4-0.3c0.3,0.2,0.5,0.3,0.6,0.3c0.4,0,0.5,0.3,0,0c-0.1,0-0.1,0-0.2,0c0.1,0.1,0.2,0.2,0.2,0.3
				c0.5,0.6,0.6,1.4,0.6,2.1c0.2,3.4-2,7.2-3.8,9.9C445.3,457,444.8,457.6,444.2,458.2c0.2,0.8,0.5,1.5,1,2.1
				c2.3-1.5,3.8-4.8,4.9-7.1c1.1-2.3,2.9-6.7,0.4-8.7c-1.6-1.3-4.2-1.9-5.8-0.4c-2.5,2.5-2.9,7.3-2.9,10.6c0,1.8,0.4,3.3,1.3,4.5
				C443.5,458.9,443.9,458.6,444.2,458.2z"/>
			<path class="st13" d="M455.8,462.1c-1.2,0.5-2.5,0.8-3.8,0.9c-2.7,0.3-5.3-0.7-6.8-2.8c-0.2,0.1-0.4,0.3-0.6,0.4
				c-0.1,0-0.1,0.1-0.2,0.1c0.8,0.7,1.7,1.2,2.8,1.7c2.6,1.1,5.1,1.8,7.9,1.4c0.3,0,0.5-0.1,0.8-0.2c-0.1-0.4-0.1-0.7-0.1-1.1
				C455.8,462.4,455.8,462.2,455.8,462.1z"/>
			<path class="st13" d="M458.2,460.9c-0.8,0.5-1.6,0.9-2.4,1.2c0,0.1,0,0.3,0,0.4c0,0.4,0,0.8,0.1,1.1c0.7-0.2,1.5-0.4,2.2-0.7
				C458,462.3,458.1,461.6,458.2,460.9z"/>
			<path class="st13" d="M448.3,443.6c0.1,0.1,0.3,0.2,0.4,0.3c0.1,0,0.2,0,0.2,0C448.8,443.9,448.6,443.8,448.3,443.6z"/>
		</g>
		<g>
			<path class="st19" d="M233.9,462.9c2.1,0.6,4.2,1.6,6,2.8c0.4,0.2,1.4,0.9,2.1,1.5c0.5-0.3,0.9-0.6,1.2-1.2
				c0-0.3-0.1-0.6-0.3-0.8c-2.6-3-7.7-5-11.7-5c0.3,0.8,0.8,1.7,1.3,2.4C232.9,462.6,233.4,462.7,233.9,462.9z"/>
			<path class="st19" d="M242,467.1c-1.9,1.1-4.8,0-6.4-1.2c-1.2-0.9-2.3-2.1-3.1-3.4c-0.7-0.1-1.4-0.1-2.1-0.1
				c1,2.2,2.5,4.3,4.4,5.8c2.3,1.8,5.2,2.3,7.4,0.2c0.5-0.5,1-1.5,1.1-2.4c-0.3,0.7-0.5,1.3-0.8,2
				C242.5,467.8,242.3,467.5,242,467.1z"/>
			<path class="st19" d="M242,467.1c0.3,0.3,0.5,0.7,0.5,0.9c0.3-0.7,0.5-1.3,0.8-2c0,0,0-0.1,0-0.1
				C242.8,466.5,242.4,466.9,242,467.1z"/>
			<path class="st19" d="M243.3,465.8c0,0-0.1,0.1-0.1,0.1c0,0,0,0.1,0,0.1C243.2,466,243.2,465.9,243.3,465.8z"/>
			<path class="st19" d="M221.5,472c0.1-0.8,0.7-1.5,0.8-2.2c0.8-4.7,3.9-7.2,8-7.3c-0.3-0.7-0.5-1.5-0.7-2.2
				C224.4,461.2,222.3,467.3,221.5,472z"/>
			<path class="st19" d="M232.3,448.4c0,0.1,0.1,0.1,0.1,0.2c0.1,0.2,0.2,0.4,0.4,0.6c0.6-0.5,1.3-0.8,2.1-1
				c-0.4-0.4-0.8-0.8-1.1-1.2C233.3,447.4,232.8,447.9,232.3,448.4z"/>
			<path class="st19" d="M234.9,448.2c0.2-0.1,0.4-0.1,0.5-0.1c3.7-0.7,8.1-0.1,11.5,1.5c1.2,0.6,2.4,1.5,2.6,2.9c0,0,0,0,0,0
				c0.1-0.1,0.3-0.3,0.3-0.4c-0.2,0.3-0.3,0.5-0.3,0.6c0,0.5-0.3,0.6,0,0c0-0.1,0-0.1,0-0.2c-0.1,0.1-0.2,0.2-0.3,0.2
				c-0.6,0.5-1.4,0.6-2.1,0.7c-3.5,0.3-7.4-1.9-10.3-3.7C236.2,449.2,235.5,448.7,234.9,448.2c-0.8,0.2-1.5,0.6-2.1,1
				c1.6,2.3,5,3.8,7.4,4.9c2.4,1.1,6.9,2.8,8.9,0.2c1.3-1.7,1.9-4.4,0.3-5.9c-2.6-2.5-7.6-2.8-10.9-2.7c-1.8,0-3.4,0.5-4.6,1.4
				C234.1,447.4,234.5,447.8,234.9,448.2z"/>
			<path class="st19" d="M252.6,431.5c-6.9-5.1-17.1,0.1-19.9,7.4c-1.3,3.2-1.9,6.2-0.4,9.5c0.4-0.5,1-1,1.5-1.4
				c-1.1-1.5-1.7-3.3-1.6-5.6c0.1-1.7,0.8-2.9,2.5-4.8c1.5-1.7,3.5-2.9,5.6-3.8c3.8-1.6,8.2-1.5,11.5,0.9
				C251.6,433.7,252.8,431.7,252.6,431.5z"/>
			<path class="st19" d="M249.9,452.1c-0.1,0.2-0.2,0.3-0.3,0.4c0,0.1,0,0.1,0,0.2C249.7,452.5,249.8,452.3,249.9,452.1z"/>
			<path class="st19" d="M232.3,448.4c-0.7,0.8-1.2,1.8-1.7,2.9c-1.1,2.7-1.7,5.2-1.2,8.2c0,0.3,0.1,0.5,0.2,0.8
				c0.4-0.1,0.7-0.1,1.1-0.1c0.1,0,0.3,0,0.4,0c-0.5-1.2-0.9-2.6-1-3.8c-0.4-2.8,0.6-5.5,2.7-7c-0.1-0.2-0.3-0.4-0.4-0.6
				C232.4,448.5,232.3,448.5,232.3,448.4z"/>
			<path class="st19" d="M229.6,460.3c0.2,0.7,0.4,1.5,0.7,2.2c0.7,0,1.4,0,2.1,0.1c-0.5-0.8-0.9-1.6-1.3-2.4c-0.1,0-0.3,0-0.4,0
				C230.3,460.1,229.9,460.2,229.6,460.3z"/>
		</g>
		<path class="st1" d="M149.6,145.2c-3.6,0-6.6,3.1-6.6,6.9c0,3.8,3,6.9,6.6,6.9c3.6,0,7.6-3.1,7.6-6.9
			C157.2,148.3,153.2,145.2,149.6,145.2z"/>
		<path class="st10" d="M397,375.7c-3.4,2.4-4.9,6.1-2.4,9.5c2.4,3.4,7.2,4.1,10.5,1.7c3.4-2.4,4.1-7.2,1.7-10.5
			C404.3,373,400.3,373.3,397,375.7z"/>
		<path class="st7" d="M383.7,101c-5,0-10.6,4-10.6,9c0,5,5.6,9,10.6,9c5,0,9-4,9-9C392.7,105.1,388.7,101,383.7,101z"/>
		<path class="st8" d="M88.7,428.9c-3.6,0-6.4,2.9-6.4,6.4c0,3.6,2.9,6.4,6.4,6.4c3.6,0,7.6-3.5,7.6-7.1
			C96.3,431.1,92.3,428.9,88.7,428.9z"/>
		<rect class="st3" width="533" height="533"/>
		<rect class="st3" width="533" height="533"/>
		<rect class="st3" width="533" height="533"/>
		<rect class="st3" width="533" height="533"/>
		<g>
			<polygon class="st7" points="97.3,66.5 188.9,48.1 179.3,0 144.8,0 86.3,11.8 			"/>
			<g class="st14">
				
					<rect x="89" y="17.1" transform="matrix(0.9804 -0.1971 0.1971 0.9804 -1.4138 27.1521)" class="st3" width="93.5" height="7.1"/>
				<polygon class="st3" points="87.6,18.4 178.9,0 144.6,0 86.2,11.7 				"/>
				
					<rect x="92" y="32.1" transform="matrix(0.9804 -0.1971 0.1971 0.9804 -4.3115 28.0339)" class="st3" width="93.5" height="7.1"/>
				<rect x="95" y="47.1" transform="matrix(0.9804 -0.197 0.197 0.9804 -7.2074 28.9126)" class="st3" width="93.5" height="7.1"/>
				<polygon class="st4" points="89.2,26.4 180.8,8 179.2,0 178.9,0 87.6,18.4 				"/>
				
					<rect x="90.5" y="24.1" transform="matrix(0.9804 -0.1971 0.1971 0.9804 -2.8628 27.5907)" class="st4" width="93.5" height="8.2"/>
				
					<rect x="93.5" y="39.1" transform="matrix(0.9804 -0.1971 0.1971 0.9804 -5.7612 28.4887)" class="st4" width="93.5" height="8.2"/>
				
					<rect x="96" y="54.1" transform="matrix(0.9804 -0.1971 0.1971 0.9804 -8.1819 29.2288)" class="st4" width="93.5" height="3.2"/>
			</g>
			<polygon class="st6" points="96.6,63.3 97.2,66.5 188.9,48.1 179.2,0 169.9,0 179.3,46.7 			"/>
			
				<rect x="128.9" y="3.7" transform="matrix(0.9804 -0.197 0.197 0.9804 -3.3548 27.7392)" class="st8" width="17.6" height="54.1"/>
			<polygon class="st2" points="87.1,16.6 169.5,0 140.4,0 85.9,11 			"/>
			<polygon class="st7" points="154.9,0 79.3,0 82.2,14.6 			"/>
			<polygon class="st16" points="142.7,2.5 142.2,0 120.9,0 122.2,6.6 			"/>
		</g>
		<g>
			<polygon class="st7" points="144.8,533 179.3,533 177.9,526.4 			"/>
			<g class="st14">
				<polygon class="st3" points="177.9,526.3 144.6,533 178.9,533 179.2,532.9 				"/>
				<polygon class="st4" points="178.9,533 179.2,533 179.2,532.9 				"/>
			</g>
			<polygon class="st6" points="168.9,528.2 169.9,533 179.2,533 177.9,526.4 			"/>
			<polygon class="st2" points="177.7,525.5 140.4,533 169.5,533 178.8,531.1 			"/>
			<path class="st8" d="M178,495.8c-0.3,0.2-2.6,1.3-2.6,1.7c0,3.5-0.7,6.9-2.1,10.2c-0.7,1.7-1.7,3.2-3,4.6c0,0.1-0.1,0.1-0.1,0.1
				c-0.4,0.2-0.9,0.3-1.4,0.4c-3.6,0.9-7.2-1-10.6-1.7c-2.3-0.5-4.5-0.3-6.8,0c-2.6,0.4-5.2,1-7.8,1.9c0.7-0.9,1.4-1.9,2.1-2.9
				c3.9-5.8,7.7-13.8,5.1-20.9c-1.8-5.1-8-9.5-13.1-6.3c-0.5,0.3-1.1,0.7-1.6,1c-1.5,0.9-4.8,3.5-5.7,4.8c-1.5,2.4-2.4,5.2-3.1,7.9
				c-0.6,2.5-1.1,5.1-1.4,7.7c-1.7-5.2-3.9-10.8-8.2-14.2c-5.5-4.4-11.7,0.5-16.4,3.7c-4.6,3-4.5,7.6-1.7,11.9
				c3.7,5.6,9.8,9.7,15.6,12.9c2.9,1.6,5.9,3,9,4.1c0.3,0.1,0.6,0.2,0.9,0.3c0.2,0.8,0.5,1.6,0.7,2.4c0.6-0.4,1.1-0.7,1.7-1.1
				c-0.1,0.7-0.1,1.5,0.2,2.4c0,0,1.8-1.1,1.9-1.2c0.7-0.5,1.5-0.9,2.2-1.4c0.4-0.2,0.7-0.4,1.1-0.7c0,0,0-0.1,0-0.1
				c3.3-2.4,6.2-5,8.9-8c3-0.8,6.1-1.4,8.9-1.1c3.5,0.3,6.7,1.8,10.2,2.1c3.9,0.4,7.2-2.1,10.3-4c3.1-2,5.4-4,7-7.3
				c1.6-3.3,2.3-7,2.3-10.7C180.6,494.5,178.2,495.7,178,495.8z M121.2,515.7c-5.7-3.1-11.5-7-15.5-12.2c-2.8-3.5-4.1-8-1.1-11.3
				c0.4-0.2,0.9-0.3,1.3-0.4c1.2-0.3,2.5-0.2,3.7,0.1c2.4,0.6,4.3,2.5,5.8,4.5c4.5,6,6.3,13.4,8.1,20.6
				C122.7,516.6,121.9,516.2,121.2,515.7z M137.4,517.8c-0.8,1-1.7,2-2.6,2.9c-0.6,0-1.2-0.1-1.9-0.2c0.2-0.7,0.6-1.3,1.1-2
				c0.2-0.2,0.4-0.5,0.7-0.7c0.7-0.3,1.4-0.6,2.1-0.9c0.5-0.2,1.1-0.4,1.7-0.6C138.1,516.8,137.8,517.3,137.4,517.8z M139.7,514.7
				c-1.1,0.5-2.2,1.1-3.2,1.8c-0.1,0-0.1,0.1-0.2,0.1c-0.1,0-0.5,0.3-1.1,0.6c-1.3,0.8-3,1.7-4.4,2.8c-0.5-4.3-0.3-8.8,0-13.1
				c0.4-6.4,1.2-13.1,3.7-19c0.4-1,1-2,1.6-2.9c1.8,0,3.5,0.8,4.9,1.7c6.6,4.4,6.3,12.4,3.7,19.1C143.4,509,141.7,511.9,139.7,514.7
				z M169.6,513c-1.4,1.3-2.9,1.4,0.4-0.4C169.8,512.8,169.7,512.9,169.6,513z"/>
			<polygon class="st7" points="179.2,510.4 78.8,530.6 79.3,533 154.9,533 182.7,527.4 			"/>
			<polygon class="st16" points="118.8,522.5 120.9,533 142.2,533 139.3,518.4 			"/>
		</g>
	</g>
	<g class="st20">
		<g class="st21">
			<path class="st22" d="M188.7,519.5v-0.2c-0.2,0.3-0.5,0.5-0.7,0.7c-0.2,0.2-0.5,0.3-0.8,0.4c-0.3,0.1-0.6,0.1-0.9,0.1
				c-0.4,0-0.8-0.1-1.2-0.3c-0.4-0.2-0.7-0.4-1-0.8c-0.3-0.3-0.5-0.7-0.6-1.2c-0.1-0.5-0.2-1-0.2-1.5c0-1.1,0.3-2,0.8-2.6
				c0.6-0.6,1.3-0.9,2.2-0.9c0.5,0,1,0.1,1.3,0.3c0.4,0.2,0.7,0.5,1,0.8v-2.7c0-0.4,0.1-0.7,0.2-0.8c0.1-0.2,0.4-0.3,0.6-0.3
				c0.3,0,0.5,0.1,0.6,0.3c0.1,0.2,0.2,0.4,0.2,0.8v8c0,0.3-0.1,0.6-0.2,0.8s-0.4,0.3-0.6,0.3c-0.2,0-0.5-0.1-0.6-0.3
				C188.8,520.1,188.7,519.9,188.7,519.5z M185.2,516.9c0,0.5,0.1,0.9,0.2,1.3c0.2,0.3,0.4,0.6,0.6,0.8c0.3,0.2,0.6,0.3,0.9,0.3
				c0.3,0,0.6-0.1,0.9-0.2c0.3-0.2,0.5-0.4,0.6-0.8c0.2-0.3,0.2-0.8,0.2-1.3c0-0.5-0.1-0.9-0.2-1.2c-0.2-0.3-0.4-0.6-0.6-0.8
				c-0.3-0.2-0.6-0.3-0.9-0.3c-0.3,0-0.6,0.1-0.9,0.3c-0.3,0.2-0.5,0.5-0.6,0.8C185.2,516,185.2,516.4,185.2,516.9z"/>
			<path class="st22" d="M196.7,517.3h-3.5c0,0.4,0.1,0.8,0.2,1.1c0.2,0.3,0.4,0.6,0.6,0.7c0.3,0.2,0.6,0.2,0.9,0.2
				c0.2,0,0.4,0,0.6-0.1c0.2-0.1,0.4-0.1,0.5-0.2c0.2-0.1,0.3-0.2,0.5-0.3c0.1-0.1,0.3-0.3,0.6-0.5c0.1-0.1,0.2-0.1,0.4-0.1
				c0.2,0,0.3,0.1,0.4,0.2c0.1,0.1,0.2,0.2,0.2,0.4c0,0.2-0.1,0.4-0.2,0.6c-0.1,0.2-0.3,0.4-0.6,0.6c-0.3,0.2-0.6,0.4-1,0.5
				c-0.4,0.1-0.8,0.2-1.3,0.2c-1.2,0-2.1-0.3-2.7-1c-0.6-0.7-1-1.6-1-2.7c0-0.5,0.1-1,0.2-1.5s0.4-0.8,0.7-1.2
				c0.3-0.3,0.7-0.6,1.1-0.8c0.4-0.2,0.9-0.3,1.5-0.3c0.7,0,1.3,0.1,1.8,0.4c0.5,0.3,0.9,0.7,1.1,1.2c0.3,0.5,0.4,1,0.4,1.4
				c0,0.5-0.1,0.7-0.4,0.9C197.5,517.3,197.2,517.3,196.7,517.3z M193.2,516.3h3.3c0-0.6-0.2-1.1-0.5-1.4c-0.3-0.3-0.7-0.5-1.1-0.5
				c-0.5,0-0.8,0.2-1.1,0.5C193.4,515.2,193.2,515.7,193.2,516.3z"/>
			<path class="st22" d="M204.9,518.2c0,0.5-0.1,0.9-0.4,1.3c-0.2,0.4-0.6,0.6-1.1,0.8c-0.5,0.2-1.1,0.3-1.7,0.3
				c-0.6,0-1.2-0.1-1.7-0.3c-0.5-0.2-0.8-0.4-1-0.7c-0.2-0.3-0.3-0.6-0.3-0.9c0-0.2,0.1-0.4,0.2-0.5c0.1-0.1,0.3-0.2,0.5-0.2
				c0.2,0,0.3,0,0.4,0.1c0.1,0.1,0.2,0.2,0.3,0.4c0.2,0.3,0.4,0.6,0.7,0.7c0.3,0.2,0.6,0.2,1.1,0.2c0.4,0,0.7-0.1,0.9-0.2
				c0.2-0.2,0.3-0.3,0.3-0.6c0-0.3-0.1-0.5-0.4-0.7c-0.2-0.1-0.6-0.3-1.2-0.4c-0.6-0.2-1.1-0.3-1.5-0.5c-0.4-0.2-0.7-0.4-0.9-0.7
				c-0.2-0.3-0.4-0.6-0.4-1c0-0.4,0.1-0.7,0.3-1c0.2-0.3,0.5-0.6,1-0.8c0.4-0.2,0.9-0.3,1.5-0.3c0.5,0,0.9,0,1.3,0.1
				c0.4,0.1,0.7,0.2,0.9,0.4c0.2,0.2,0.4,0.3,0.6,0.5c0.1,0.2,0.2,0.4,0.2,0.6c0,0.2-0.1,0.4-0.2,0.5c-0.1,0.1-0.3,0.2-0.6,0.2
				c-0.2,0-0.3-0.1-0.5-0.2c-0.1-0.1-0.3-0.3-0.4-0.5c-0.1-0.2-0.3-0.3-0.5-0.4c-0.2-0.1-0.4-0.2-0.8-0.2c-0.3,0-0.6,0.1-0.8,0.2
				c-0.2,0.1-0.3,0.3-0.3,0.5c0,0.2,0.1,0.3,0.2,0.5c0.2,0.1,0.4,0.2,0.6,0.3c0.3,0.1,0.6,0.2,1.1,0.3c0.6,0.1,1,0.3,1.4,0.5
				c0.4,0.2,0.6,0.4,0.8,0.7C204.9,517.6,204.9,517.9,204.9,518.2z"/>
			<path class="st22" d="M206.8,512.4c-0.3,0-0.5-0.1-0.6-0.2c-0.2-0.2-0.3-0.4-0.3-0.7c0-0.3,0.1-0.5,0.3-0.6
				c0.2-0.2,0.4-0.2,0.6-0.2c0.2,0,0.4,0.1,0.6,0.2c0.2,0.2,0.3,0.4,0.3,0.7c0,0.3-0.1,0.5-0.3,0.7
				C207.2,512.3,207,512.4,206.8,512.4z M207.7,514.2v5.2c0,0.4-0.1,0.6-0.3,0.8c-0.2,0.2-0.4,0.3-0.7,0.3c-0.3,0-0.5-0.1-0.6-0.3
				c-0.2-0.2-0.2-0.5-0.2-0.8v-5.2c0-0.4,0.1-0.6,0.2-0.8c0.2-0.2,0.4-0.3,0.6-0.3c0.3,0,0.5,0.1,0.7,0.3
				C207.6,513.7,207.7,513.9,207.7,514.2z"/>
			<path class="st22" d="M215.6,514.5v5.3c0,0.6-0.1,1.1-0.2,1.5c-0.1,0.4-0.3,0.8-0.6,1.1c-0.3,0.3-0.7,0.5-1.1,0.6
				c-0.5,0.1-1,0.2-1.7,0.2c-0.6,0-1.2-0.1-1.7-0.3c-0.5-0.2-0.9-0.4-1.1-0.7c-0.3-0.3-0.4-0.6-0.4-0.9c0-0.2,0.1-0.4,0.2-0.5
				c0.1-0.1,0.3-0.2,0.5-0.2c0.3,0,0.5,0.1,0.7,0.3c0.1,0.1,0.2,0.2,0.3,0.4c0.1,0.1,0.2,0.2,0.3,0.3c0.1,0.1,0.3,0.1,0.5,0.2
				c0.2,0,0.4,0.1,0.6,0.1c0.5,0,0.8-0.1,1.1-0.2c0.3-0.1,0.4-0.3,0.5-0.5c0.1-0.2,0.2-0.5,0.2-0.8c0-0.3,0-0.7,0-1.3
				c-0.3,0.4-0.6,0.7-1,0.9c-0.4,0.2-0.8,0.3-1.3,0.3c-0.6,0-1.1-0.2-1.6-0.5c-0.5-0.3-0.8-0.7-1-1.3c-0.2-0.6-0.4-1.2-0.4-1.9
				c0-0.5,0.1-1,0.2-1.5c0.1-0.4,0.4-0.8,0.6-1.1c0.3-0.3,0.6-0.5,0.9-0.7c0.4-0.2,0.7-0.2,1.2-0.2c0.5,0,1,0.1,1.3,0.3
				c0.4,0.2,0.7,0.5,1,0.9v-0.2c0-0.3,0.1-0.6,0.2-0.7c0.2-0.2,0.4-0.3,0.6-0.3c0.3,0,0.6,0.1,0.7,0.3
				C215.6,513.8,215.6,514.1,215.6,514.5z M210.4,516.8c0,0.7,0.2,1.3,0.5,1.7c0.3,0.4,0.7,0.6,1.2,0.6c0.3,0,0.6-0.1,0.8-0.2
				c0.3-0.2,0.5-0.4,0.7-0.7c0.2-0.3,0.3-0.7,0.3-1.2c0-0.7-0.2-1.3-0.5-1.7c-0.3-0.4-0.8-0.6-1.3-0.6c-0.5,0-0.9,0.2-1.2,0.6
				C210.5,515.5,210.4,516.1,210.4,516.8z"/>
			<path class="st22" d="M218.5,514.2v0.2c0.3-0.4,0.7-0.7,1-0.9c0.4-0.2,0.8-0.3,1.3-0.3c0.5,0,0.9,0.1,1.3,0.3
				c0.4,0.2,0.7,0.5,0.8,0.9c0.1,0.2,0.2,0.5,0.2,0.7c0,0.3,0.1,0.6,0.1,1v3.4c0,0.4-0.1,0.6-0.2,0.8c-0.2,0.2-0.4,0.3-0.6,0.3
				c-0.3,0-0.5-0.1-0.7-0.3c-0.2-0.2-0.3-0.5-0.3-0.8v-3c0-0.6-0.1-1.1-0.2-1.4c-0.2-0.3-0.5-0.5-1-0.5c-0.3,0-0.6,0.1-0.9,0.3
				c-0.3,0.2-0.5,0.5-0.6,0.8c-0.1,0.3-0.1,0.8-0.1,1.5v2.3c0,0.4-0.1,0.6-0.3,0.8c-0.2,0.2-0.4,0.3-0.7,0.3c-0.3,0-0.5-0.1-0.6-0.3
				c-0.2-0.2-0.3-0.5-0.3-0.8v-5.2c0-0.3,0.1-0.6,0.2-0.8s0.4-0.3,0.6-0.3c0.2,0,0.3,0,0.4,0.1c0.1,0.1,0.2,0.2,0.3,0.3
				C218.4,513.8,218.5,514,218.5,514.2z"/>
			<path class="st22" d="M229.5,517.3H226c0,0.4,0.1,0.8,0.2,1.1c0.2,0.3,0.4,0.6,0.6,0.7c0.3,0.2,0.6,0.2,0.9,0.2
				c0.2,0,0.4,0,0.6-0.1c0.2-0.1,0.4-0.1,0.5-0.2c0.2-0.1,0.3-0.2,0.5-0.3c0.1-0.1,0.3-0.3,0.5-0.5c0.1-0.1,0.2-0.1,0.4-0.1
				c0.2,0,0.3,0.1,0.5,0.2c0.1,0.1,0.2,0.2,0.2,0.4c0,0.2-0.1,0.4-0.2,0.6c-0.1,0.2-0.3,0.4-0.6,0.6c-0.3,0.2-0.6,0.4-1,0.5
				c-0.4,0.1-0.8,0.2-1.3,0.2c-1.2,0-2.1-0.3-2.7-1c-0.6-0.7-1-1.6-1-2.7c0-0.5,0.1-1,0.2-1.5c0.2-0.5,0.4-0.8,0.7-1.2
				c0.3-0.3,0.7-0.6,1.1-0.8c0.4-0.2,0.9-0.3,1.5-0.3c0.7,0,1.3,0.1,1.8,0.4c0.5,0.3,0.9,0.7,1.1,1.2c0.3,0.5,0.4,1,0.4,1.4
				c0,0.5-0.1,0.7-0.4,0.9C230.3,517.3,230,517.3,229.5,517.3z M226,516.3h3.3c0-0.6-0.2-1.1-0.5-1.4c-0.3-0.3-0.7-0.5-1.1-0.5
				c-0.5,0-0.8,0.2-1.1,0.5C226.2,515.2,226,515.7,226,516.3z"/>
			<path class="st22" d="M236.9,519.5v-0.2c-0.2,0.3-0.5,0.5-0.7,0.7c-0.2,0.2-0.5,0.3-0.8,0.4c-0.3,0.1-0.6,0.1-0.9,0.1
				c-0.4,0-0.8-0.1-1.2-0.3c-0.4-0.2-0.7-0.4-1-0.8c-0.3-0.3-0.5-0.7-0.6-1.2s-0.2-1-0.2-1.5c0-1.1,0.3-2,0.8-2.6
				c0.6-0.6,1.3-0.9,2.2-0.9c0.5,0,1,0.1,1.3,0.3c0.4,0.2,0.7,0.5,1,0.8v-2.7c0-0.4,0.1-0.7,0.2-0.8c0.1-0.2,0.4-0.3,0.6-0.3
				c0.3,0,0.5,0.1,0.6,0.3c0.1,0.2,0.2,0.4,0.2,0.8v8c0,0.3-0.1,0.6-0.2,0.8c-0.2,0.2-0.4,0.3-0.6,0.3c-0.2,0-0.5-0.1-0.6-0.3
				C236.9,520.1,236.9,519.9,236.9,519.5z M233.3,516.9c0,0.5,0.1,0.9,0.2,1.3c0.2,0.3,0.4,0.6,0.6,0.8c0.3,0.2,0.6,0.3,0.9,0.3
				c0.3,0,0.6-0.1,0.9-0.2c0.3-0.2,0.5-0.4,0.6-0.8c0.2-0.3,0.2-0.8,0.2-1.3c0-0.5-0.1-0.9-0.2-1.2c-0.2-0.3-0.4-0.6-0.6-0.8
				c-0.3-0.2-0.6-0.3-0.9-0.3c-0.3,0-0.6,0.1-0.9,0.3c-0.3,0.2-0.5,0.5-0.6,0.8C233.4,516,233.3,516.4,233.3,516.9z"/>
			<path class="st22" d="M244.3,511.5v2.8c0.3-0.4,0.7-0.6,1-0.8c0.4-0.2,0.8-0.3,1.3-0.3c0.6,0,1.1,0.1,1.6,0.4
				c0.5,0.3,0.8,0.7,1.1,1.2c0.2,0.5,0.4,1.2,0.4,1.9c0,0.5-0.1,1-0.2,1.5c-0.1,0.5-0.3,0.9-0.6,1.2c-0.3,0.3-0.6,0.6-1,0.8
				c-0.4,0.2-0.8,0.3-1.2,0.3c-0.3,0-0.5,0-0.8-0.1c-0.2-0.1-0.5-0.2-0.6-0.3c-0.2-0.1-0.3-0.2-0.4-0.3c-0.1-0.1-0.3-0.3-0.5-0.5
				v0.2c0,0.3-0.1,0.6-0.2,0.8c-0.2,0.2-0.4,0.3-0.6,0.3c-0.3,0-0.5-0.1-0.6-0.3c-0.2-0.2-0.2-0.4-0.2-0.8v-7.9
				c0-0.4,0.1-0.6,0.2-0.8c0.1-0.2,0.4-0.3,0.6-0.3c0.3,0,0.5,0.1,0.6,0.3C244.2,511,244.3,511.2,244.3,511.5z M244.3,516.9
				c0,0.7,0.2,1.3,0.5,1.7c0.3,0.4,0.8,0.6,1.3,0.6c0.5,0,0.8-0.2,1.2-0.6c0.3-0.4,0.5-1,0.5-1.7c0-0.5-0.1-0.9-0.2-1.2
				c-0.1-0.3-0.3-0.6-0.6-0.8c-0.3-0.2-0.5-0.3-0.9-0.3c-0.3,0-0.7,0.1-0.9,0.3c-0.3,0.2-0.5,0.5-0.6,0.8
				C244.4,516,244.3,516.4,244.3,516.9z"/>
			<path class="st22" d="M252,520.8l0.2-0.4l-2.2-5.6c-0.1-0.3-0.2-0.6-0.2-0.7c0-0.2,0-0.3,0.1-0.4c0.1-0.1,0.2-0.2,0.3-0.3
				c0.1-0.1,0.3-0.1,0.4-0.1c0.3,0,0.5,0.1,0.6,0.2c0.1,0.2,0.2,0.4,0.4,0.7l1.5,4.5l1.4-4.1c0.1-0.3,0.2-0.6,0.3-0.8
				c0.1-0.2,0.2-0.3,0.3-0.4c0.1-0.1,0.3-0.1,0.4-0.1c0.1,0,0.3,0,0.4,0.1c0.1,0.1,0.2,0.2,0.3,0.3c0.1,0.1,0.1,0.3,0.1,0.4
				c0,0.1,0,0.2-0.1,0.4c0,0.2-0.1,0.3-0.1,0.5l-2.4,6.2c-0.2,0.5-0.4,1-0.6,1.3c-0.2,0.3-0.5,0.5-0.8,0.7c-0.3,0.2-0.8,0.2-1.3,0.2
				c-0.5,0-0.9-0.1-1.2-0.2c-0.3-0.1-0.4-0.3-0.4-0.6c0-0.2,0.1-0.4,0.2-0.5c0.1-0.1,0.3-0.2,0.6-0.2c0.1,0,0.2,0,0.3,0
				c0.1,0,0.2,0,0.3,0c0.2,0,0.4,0,0.5-0.1c0.1-0.1,0.2-0.2,0.3-0.3C251.7,521.3,251.8,521.1,252,520.8z"/>
		</g>
		<g class="st21">
			<path class="st22" d="M278.2,513.4h0.4v-0.5c0-0.6,0.1-1,0.2-1.4c0.1-0.3,0.4-0.6,0.7-0.7c0.3-0.2,0.8-0.2,1.4-0.2
				c1.1,0,1.6,0.3,1.6,0.8c0,0.2-0.1,0.3-0.2,0.4c-0.1,0.1-0.2,0.2-0.4,0.2c-0.1,0-0.2,0-0.4,0c-0.2,0-0.3,0-0.4,0
				c-0.3,0-0.5,0.1-0.6,0.3c-0.1,0.2-0.1,0.5-0.1,0.8v0.4h0.4c0.7,0,1,0.2,1,0.6c0,0.3-0.1,0.5-0.3,0.6c-0.2,0.1-0.4,0.1-0.8,0.1
				h-0.4v4.8c0,0.4-0.1,0.6-0.3,0.8c-0.2,0.2-0.4,0.3-0.7,0.3c-0.3,0-0.5-0.1-0.6-0.3c-0.2-0.2-0.3-0.5-0.3-0.8v-4.8h-0.5
				c-0.3,0-0.5-0.1-0.6-0.2c-0.1-0.1-0.2-0.3-0.2-0.5C277.2,513.6,277.5,513.4,278.2,513.4"/>
			<path class="st22" d="M284.1,517.9v1.5c0,0.4-0.1,0.6-0.3,0.8c-0.2,0.2-0.4,0.3-0.7,0.3c-0.3,0-0.5-0.1-0.6-0.3
				c-0.2-0.2-0.3-0.5-0.3-0.8v-5c0-0.8,0.3-1.2,0.9-1.2c0.3,0,0.5,0.1,0.7,0.3c0.1,0.2,0.2,0.5,0.2,0.8c0.2-0.4,0.4-0.7,0.7-0.8
				c0.2-0.2,0.5-0.3,0.9-0.3c0.4,0,0.7,0.1,1.1,0.3c0.4,0.2,0.5,0.4,0.5,0.8c0,0.2-0.1,0.4-0.2,0.5c-0.2,0.1-0.3,0.2-0.5,0.2
				c-0.1,0-0.2,0-0.5-0.1c-0.3-0.1-0.5-0.1-0.7-0.1c-0.3,0-0.5,0.1-0.6,0.2c-0.2,0.1-0.3,0.3-0.4,0.6c-0.1,0.3-0.2,0.6-0.2,1
				C284.1,516.9,284.1,517.4,284.1,517.9"/>
			<path class="st22" d="M292.4,517.3h-3.5c0,0.4,0.1,0.8,0.2,1.1c0.2,0.3,0.4,0.5,0.6,0.7c0.3,0.2,0.6,0.2,0.9,0.2
				c0.2,0,0.4,0,0.6-0.1c0.2,0,0.4-0.1,0.5-0.2c0.2-0.1,0.3-0.2,0.5-0.3c0.1-0.1,0.3-0.3,0.6-0.5c0.1-0.1,0.2-0.1,0.4-0.1
				c0.2,0,0.3,0.1,0.5,0.2c0.1,0.1,0.2,0.2,0.2,0.4c0,0.2-0.1,0.4-0.2,0.6c-0.1,0.2-0.3,0.4-0.6,0.6c-0.3,0.2-0.6,0.4-1,0.5
				c-0.4,0.1-0.8,0.2-1.3,0.2c-1.2,0-2.1-0.3-2.7-1c-0.6-0.7-1-1.6-1-2.7c0-0.5,0.1-1,0.2-1.5c0.2-0.5,0.4-0.8,0.7-1.2
				c0.3-0.3,0.7-0.6,1.1-0.8c0.4-0.2,0.9-0.3,1.5-0.3c0.7,0,1.3,0.1,1.8,0.5c0.5,0.3,0.9,0.7,1.1,1.2c0.3,0.5,0.4,1,0.4,1.4
				c0,0.5-0.1,0.7-0.4,0.9C293.2,517.3,292.9,517.3,292.4,517.3 M288.8,516.3h3.3c0-0.6-0.2-1.1-0.5-1.4c-0.3-0.3-0.7-0.5-1.1-0.5
				c-0.5,0-0.8,0.2-1.1,0.5C289.1,515.2,288.9,515.7,288.8,516.3"/>
			<path class="st22" d="M299.9,517.3h-3.5c0,0.4,0.1,0.8,0.2,1.1c0.2,0.3,0.4,0.5,0.6,0.7c0.3,0.2,0.6,0.2,0.9,0.2
				c0.2,0,0.4,0,0.6-0.1c0.2,0,0.4-0.1,0.5-0.2c0.2-0.1,0.3-0.2,0.5-0.3c0.1-0.1,0.3-0.3,0.5-0.5c0.1-0.1,0.2-0.1,0.4-0.1
				c0.2,0,0.3,0.1,0.5,0.2c0.1,0.1,0.2,0.2,0.2,0.4c0,0.2-0.1,0.4-0.2,0.6c-0.1,0.2-0.3,0.4-0.6,0.6c-0.3,0.2-0.6,0.4-1,0.5
				c-0.4,0.1-0.8,0.2-1.3,0.2c-1.2,0-2.1-0.3-2.7-1c-0.6-0.7-1-1.6-1-2.7c0-0.5,0.1-1,0.2-1.5c0.2-0.5,0.4-0.8,0.7-1.2
				c0.3-0.3,0.7-0.6,1.1-0.8c0.4-0.2,0.9-0.3,1.5-0.3c0.7,0,1.3,0.1,1.8,0.5c0.5,0.3,0.9,0.7,1.1,1.2c0.3,0.5,0.4,1,0.4,1.4
				c0,0.5-0.1,0.7-0.4,0.9C300.7,517.3,300.4,517.3,299.9,517.3 M296.4,516.3h3.3c0-0.6-0.2-1.1-0.5-1.4c-0.3-0.3-0.7-0.5-1.1-0.5
				c-0.5,0-0.8,0.2-1.1,0.5C296.6,515.2,296.4,515.7,296.4,516.3"/>
			<path class="st22" d="M303.9,514.2v0.2c0.3-0.4,0.7-0.7,1.1-0.9c0.4-0.2,0.8-0.3,1.2-0.3c0.6,0,1.1,0.1,1.5,0.4
				c0.5,0.3,0.8,0.7,1.1,1.3c0.3,0.6,0.4,1.2,0.4,2c0,0.6-0.1,1.1-0.2,1.5c-0.2,0.5-0.4,0.9-0.6,1.2c-0.3,0.3-0.6,0.6-1,0.7
				c-0.4,0.2-0.8,0.3-1.2,0.3c-0.5,0-0.9-0.1-1.3-0.3c-0.4-0.2-0.7-0.5-1-0.9v2.7c0,0.8-0.3,1.2-0.9,1.2c-0.3,0-0.6-0.1-0.7-0.3
				c-0.1-0.2-0.2-0.5-0.2-0.9v-7.8c0-0.3,0.1-0.6,0.2-0.8c0.1-0.2,0.4-0.3,0.6-0.3c0.3,0,0.5,0.1,0.6,0.3
				C303.8,513.6,303.9,513.9,303.9,514.2 M307.4,516.8c0-0.5-0.1-0.9-0.2-1.2c-0.1-0.3-0.3-0.6-0.6-0.8c-0.3-0.2-0.5-0.3-0.9-0.3
				c-0.5,0-0.9,0.2-1.3,0.6c-0.3,0.4-0.5,1-0.5,1.7c0,0.7,0.2,1.3,0.5,1.7c0.3,0.4,0.8,0.6,1.3,0.6c0.3,0,0.6-0.1,0.8-0.3
				c0.3-0.2,0.5-0.4,0.6-0.8C307.3,517.8,307.4,517.3,307.4,516.8"/>
			<path class="st22" d="M311.1,512.4c-0.3,0-0.5-0.1-0.6-0.2c-0.2-0.2-0.3-0.4-0.3-0.7c0-0.3,0.1-0.5,0.3-0.6
				c0.2-0.2,0.4-0.2,0.6-0.2c0.2,0,0.4,0.1,0.6,0.2c0.2,0.2,0.3,0.4,0.3,0.7c0,0.3-0.1,0.5-0.3,0.7
				C311.5,512.3,311.3,512.4,311.1,512.4 M312,514.2v5.2c0,0.4-0.1,0.6-0.3,0.8c-0.2,0.2-0.4,0.3-0.7,0.3c-0.3,0-0.5-0.1-0.6-0.3
				c-0.2-0.2-0.2-0.5-0.2-0.8v-5.2c0-0.4,0.1-0.6,0.2-0.8c0.2-0.2,0.4-0.3,0.6-0.3c0.3,0,0.5,0.1,0.7,0.3
				C311.9,513.7,312,513.9,312,514.2"/>
			<path class="st22" d="M317.8,519.7l-1.6-2.6l-1,0.9v1.4c0,0.3-0.1,0.6-0.3,0.8c-0.2,0.2-0.4,0.3-0.6,0.3c-0.3,0-0.5-0.1-0.7-0.3
				c-0.2-0.2-0.2-0.5-0.2-0.8v-7.7c0-0.4,0.1-0.7,0.2-0.9c0.2-0.2,0.4-0.3,0.7-0.3c0.3,0,0.5,0.1,0.7,0.3c0.2,0.2,0.2,0.5,0.2,0.8
				v4.4l2-2.1c0.3-0.3,0.4-0.4,0.6-0.5c0.1-0.1,0.3-0.1,0.5-0.1c0.2,0,0.4,0.1,0.6,0.2c0.1,0.1,0.2,0.3,0.2,0.5
				c0,0.3-0.2,0.6-0.7,1.1l-1,0.9l1.9,2.9c0.1,0.2,0.2,0.4,0.3,0.5c0.1,0.1,0.1,0.2,0.1,0.3c0,0.3-0.1,0.5-0.2,0.7
				c-0.2,0.2-0.4,0.2-0.6,0.2c-0.2,0-0.4-0.1-0.5-0.2C318.1,520.3,318,520,317.8,519.7"/>
			<path class="st22" d="M321.7,520.6c-0.3,0-0.5-0.1-0.7-0.3c-0.2-0.2-0.3-0.4-0.3-0.7c0-0.3,0.1-0.5,0.3-0.7
				c0.2-0.2,0.4-0.3,0.7-0.3c0.3,0,0.5,0.1,0.7,0.3c0.2,0.2,0.3,0.4,0.3,0.7c0,0.3-0.1,0.6-0.3,0.7
				C322.2,520.5,322,520.6,321.7,520.6"/>
			<path class="st22" d="M330.7,518.3c0,0.2-0.1,0.5-0.2,0.7c-0.1,0.3-0.3,0.5-0.6,0.7c-0.3,0.2-0.6,0.4-1,0.6
				c-0.4,0.1-0.9,0.2-1.4,0.2c-1.1,0-2-0.3-2.6-1c-0.6-0.7-0.9-1.5-0.9-2.6c0-0.7,0.1-1.4,0.4-2c0.3-0.6,0.7-1,1.2-1.3
				c0.5-0.3,1.2-0.5,1.9-0.5c0.5,0,0.9,0.1,1.3,0.2c0.4,0.1,0.7,0.3,1,0.5c0.3,0.2,0.5,0.4,0.6,0.7c0.1,0.2,0.2,0.5,0.2,0.7
				s-0.1,0.4-0.2,0.5c-0.2,0.1-0.4,0.2-0.6,0.2c-0.2,0-0.3,0-0.4-0.1c-0.1-0.1-0.2-0.2-0.3-0.4c-0.2-0.3-0.5-0.6-0.7-0.8
				c-0.2-0.2-0.5-0.3-0.9-0.3c-0.5,0-1,0.2-1.3,0.6c-0.3,0.4-0.5,1-0.5,1.7c0,0.3,0,0.7,0.1,0.9c0.1,0.3,0.2,0.5,0.4,0.7
				c0.2,0.2,0.4,0.4,0.6,0.5c0.2,0.1,0.5,0.2,0.7,0.2c0.4,0,0.7-0.1,0.9-0.3c0.3-0.2,0.5-0.4,0.7-0.8c0.1-0.2,0.2-0.4,0.4-0.5
				c0.1-0.1,0.3-0.2,0.5-0.2c0.2,0,0.4,0.1,0.5,0.3C330.6,517.9,330.7,518.1,330.7,518.3"/>
			<path class="st22" d="M338.5,516.9c0,0.5-0.1,1-0.2,1.5c-0.2,0.5-0.4,0.8-0.7,1.2c-0.3,0.3-0.7,0.6-1.1,0.8
				c-0.4,0.2-0.9,0.3-1.5,0.3c-0.5,0-1-0.1-1.5-0.3c-0.4-0.2-0.8-0.4-1.1-0.8c-0.3-0.3-0.6-0.7-0.7-1.2c-0.2-0.4-0.2-0.9-0.2-1.5
				c0-0.5,0.1-1.1,0.2-1.5c0.2-0.5,0.4-0.8,0.7-1.2c0.3-0.3,0.7-0.6,1.1-0.7c0.4-0.2,0.9-0.3,1.5-0.3c0.5,0,1,0.1,1.5,0.3
				c0.4,0.2,0.8,0.4,1.1,0.8c0.3,0.3,0.6,0.7,0.7,1.2C338.4,515.8,338.5,516.3,338.5,516.9 M336.7,516.9c0-0.7-0.2-1.3-0.5-1.7
				c-0.3-0.4-0.8-0.6-1.3-0.6c-0.4,0-0.7,0.1-0.9,0.3c-0.3,0.2-0.5,0.5-0.6,0.8c-0.1,0.4-0.2,0.8-0.2,1.3c0,0.5,0.1,0.9,0.2,1.2
				c0.1,0.4,0.4,0.6,0.6,0.8c0.3,0.2,0.6,0.3,0.9,0.3c0.5,0,1-0.2,1.3-0.6C336.5,518.2,336.7,517.6,336.7,516.9"/>
			<path class="st22" d="M345.4,517v2.4c0,0.4-0.1,0.7-0.3,0.9c-0.2,0.2-0.4,0.3-0.7,0.3c-0.3,0-0.5-0.1-0.7-0.3
				c-0.2-0.2-0.3-0.5-0.3-0.9v-2.9c0-0.5,0-0.8,0-1.1c0-0.2-0.1-0.5-0.3-0.6c-0.1-0.2-0.4-0.2-0.7-0.2c-0.6,0-1,0.2-1.2,0.6
				c-0.2,0.4-0.3,1-0.3,1.7v2.4c0,0.4-0.1,0.7-0.3,0.9c-0.2,0.2-0.4,0.3-0.7,0.3c-0.3,0-0.5-0.1-0.7-0.3c-0.2-0.2-0.3-0.5-0.3-0.9
				v-5.2c0-0.3,0.1-0.6,0.2-0.8c0.2-0.2,0.4-0.3,0.6-0.3c0.2,0,0.5,0.1,0.6,0.2c0.2,0.2,0.2,0.4,0.2,0.7v0.2c0.3-0.4,0.7-0.6,1-0.8
				c0.4-0.2,0.8-0.3,1.2-0.3c0.5,0,0.8,0.1,1.2,0.3c0.3,0.2,0.6,0.5,0.8,0.8c0.3-0.4,0.6-0.6,1-0.8c0.4-0.2,0.7-0.3,1.2-0.3
				c0.5,0,0.9,0.1,1.3,0.3c0.4,0.2,0.6,0.5,0.8,0.8c0.2,0.3,0.2,0.8,0.2,1.5v3.5c0,0.4-0.1,0.7-0.3,0.9c-0.2,0.2-0.4,0.3-0.7,0.3
				c-0.3,0-0.5-0.1-0.7-0.3c-0.2-0.2-0.3-0.5-0.3-0.9v-3c0-0.4,0-0.7,0-0.9c0-0.2-0.1-0.4-0.3-0.6c-0.1-0.2-0.4-0.2-0.7-0.2
				c-0.2,0-0.5,0.1-0.7,0.2c-0.2,0.1-0.4,0.3-0.5,0.6C345.5,515.7,345.4,516.2,345.4,517"/>
		</g>
		<g class="st21">
			<path class="st22" d="M261.2,516.4C261.2,516.4,261.2,516.4,261.2,516.4C261.2,516.4,261.2,516.4,261.2,516.4z"/>
			<path class="st22" d="M261.3,517C261.3,517,261.3,517,261.3,517c0-0.2-0.1-0.3-0.1-0.5C261.3,516.7,261.3,516.9,261.3,517z"/>
			<path class="st22" d="M261.9,518.7C261.9,518.7,261.9,518.7,261.9,518.7C261.9,518.7,261.9,518.7,261.9,518.7z"/>
			<path class="st22" d="M261.9,518.6C261.8,518.6,261.8,518.5,261.9,518.6C261.8,518.5,261.8,518.6,261.9,518.6z"/>
			<path class="st22" d="M261.5,517.7c0.1,0.3,0.2,0.6,0.3,0.8C261.7,518.2,261.6,517.9,261.5,517.7
				C261.5,517.7,261.5,517.7,261.5,517.7z"/>
			<path class="st22" d="M268.2,509.5c0.4,0,0.6,0,0.9,0.1l0.1-0.5c0,0-0.8-0.3-1.9-0.2l-0.1-0.3c0.3-0.1,0.6-0.4,0.6-0.7
				c0-0.4-0.3-0.7-0.7-0.7c-0.4,0-0.7,0.3-0.7,0.7c0,0.4,0.2,0.7,0.6,0.7l0.1,0.3c-1.1,0.2-2,0.6-2,0.6l0.2,0.5
				c0.7-0.2,1.3-0.4,1.8-0.4C267.5,509.5,267.9,509.5,268.2,509.5z"/>
			<path class="st22" d="M261.9,512.2L261.9,512.2c0,0,0.1-0.1,0.1-0.1l-0.2-0.2l-0.3-0.2c0,0-0.6,0.5-1,1.4c0,0,0-0.1-0.1-0.1
				c-0.1-0.1-0.3-0.2-0.5-0.2c0,0,0,0,0,0c-0.1,0-0.2,0-0.3-0.1c0.1-0.1,0.1-0.2,0.1-0.3c0-0.3-0.2-0.5-0.5-0.5
				c-0.3,0-0.5,0.2-0.5,0.5c0,0.3,0.2,0.5,0.5,0.5c0,0,0.1,0,0.1,0c0.1,0.1,0.3,0.2,0.6,0.2c0.1,0,0.2,0,0.3,0.1
				c0.1,0.1,0.1,0.2,0.1,0.3c0,0,0,0,0,0c-0.3,0.8-0.2,1.9-0.2,1.9l0.7,0c0-0.4,0.1-1,0.3-1.6C261.4,512.9,261.9,512.2,261.9,512.2z
				"/>
			<path class="st22" d="M274.6,510.1c-0.3,0-0.5,0.2-0.5,0.5c0,0,0,0.1,0,0.1c-0.1,0.1-0.2,0.3-0.2,0.6c0,0.1,0,0.2-0.1,0.3
				c-0.1,0.1-0.1,0.1-0.2,0.1c-0.5-0.8-1.2-1.2-1.2-1.2l-0.5,0.6c0.4,0.4,0.8,0.8,1.2,1.4c0.3,0.4,0.6,0.9,0.8,1.4l0.7-0.3
				c0,0-0.3-0.8-0.8-1.5c0.1,0,0.2-0.1,0.2-0.1c0.1-0.1,0.2-0.3,0.2-0.5c0-0.1,0-0.2,0.1-0.3c0.1,0.1,0.2,0.1,0.3,0.1
				c0.3,0,0.5-0.2,0.5-0.5C275.1,510.3,274.9,510.1,274.6,510.1z"/>
			<path class="st22" d="M272.8,516.5c-1,0.5-2.6,1.1-4.7,1.4c-0.8,0.1-1.6,0.2-2.4,0.2c-1,0-1.8-0.1-2.5-0.2
				c-0.8-0.1-1.3-0.2-1.7-0.3c0.1,0.3,0.2,0.5,0.3,0.8c0,0,0,0,0,0c0,0,0,0.1,0,0.1c0,0,0,0.1,0,0.1c0,0,0,0,0,0
				c0.2,0.4,0.5,0.8,0.8,1.1c1,1.1,2,1.3,2,1.3l0,0l0,0c0,0,0.9,0.3,2.3,0.3c1.4,0,2.7-0.3,4-0.8c0.9-0.5,1.8-1.2,2.3-1.9
				c0.3-0.5,0.6-1,0.7-1.6c0.1-0.3,0.1-0.8,0.1-1.3C273.8,516,273.4,516.3,272.8,516.5z"/>
			<path class="st22" d="M262.2,512.4c0,0-0.5,0.6-0.8,1.6c-0.3,0.7-0.2,1.7-0.2,1.7v0c0,0.2,0,0.5,0,0.7c0,0,0,0,0,0
				c0,0,0,0.1,0,0.1c0,0.2,0,0.3,0.1,0.5c0.5,0.1,3.4,0.8,6.7,0.3c2-0.3,3.6-0.9,4.5-1.3c0.8-0.4,1.3-0.7,1.5-0.9
				c-0.2-0.7-0.7-1.8-1.2-2.5c-1.4-2-2.9-2.5-3.7-2.6c-0.3,0-0.5-0.1-0.9-0.1c-0.3,0-0.7,0-1.2,0.1c-0.5,0.1-1.1,0.2-1.8,0.4
				c-0.9,0.3-1.8,0.8-2.5,1.4l0,0C262.7,511.9,262.5,512.1,262.2,512.4z M270.8,512c0.7,0,1.2,0.5,1.2,1.2c0,0.7-0.5,1.2-1.2,1.2
				c-0.7,0-1.2-0.5-1.2-1.2C269.6,512.5,270.1,512,270.8,512z M265,511.9c1.1,0,2,0.9,2,2c0,1.1-0.9,2-2,2c-1.1,0-2-0.9-2-2
				C263.1,512.8,263.9,511.9,265,511.9z"/>
		</g>
	</g>
</g>
</svg>
