<svg version="1.1" xmlns="http://www.w3.org/2000/svg" xmlns:xlink="http://www.w3.org/1999/xlink">

	<symbol id="icon_social_vk" viewBox="0 0 40 40">
		<path class="st0" d="M20,0C9,0,0,9,0,20s9,20,20,20s20-9,20-20S31,0,20,0z M30.1,22.2c0.9,0.9,1.9,1.8,2.8,2.8c0.4,0.4,0.7,0.9,1,1.4c0.4,0.7,0,1.5-0.6,1.6l-4.1,0c-1.1,0.1-1.9-0.3-2.6-1.1c-0.6-0.6-1.1-1.2-1.6-1.8c-0.2-0.2-0.5-0.5-0.7-0.7c-0.6-0.4-1-0.3-1.4,0.3c-0.3,0.6-0.4,1.3-0.4,1.9c0,1-0.3,1.2-1.3,1.3c-2.1,0.1-4-0.2-5.9-1.3c-1.6-0.9-2.9-2.2-3.9-3.7c-2.1-2.9-3.7-6-5.2-9.3C5.7,13,6,12.6,6.8,12.6c1.3,0,2.7,0,4,0c0.5,0,0.9,0.3,1.1,0.8c0.7,1.8,1.6,3.5,2.7,5c0.3,0.4,0.6,0.8,1,1.1c0.5,0.3,0.8,0.2,1.1-0.3c0.1-0.3,0.2-0.7,0.2-1.1c0.1-1.2,0.1-2.5-0.1-3.7c-0.1-0.8-0.5-1.3-1.3-1.4c-0.4-0.1-0.3-0.2-0.1-0.4c0.3-0.4,0.6-0.6,1.3-0.6l4.6,0c0.7,0.1,0.9,0.5,1,1.2l0,5.1c0,0.3,0.1,1.1,0.7,1.3c0.4,0.1,0.7-0.2,0.9-0.5c1.1-1.2,1.9-2.6,2.6-4c0.3-0.6,0.6-1.3,0.8-1.9c0.2-0.5,0.5-0.7,1-0.7l4.5,0c0.1,0,0.3,0,0.4,0c0.8,0.1,1,0.5,0.7,1.2c-0.4,1.2-1.1,2.1-1.8,3.1c-0.7,1-1.5,2-2.3,3.1C29.3,20.9,29.3,21.3,30.1,22.2z"/>
	</symbol>

	<symbol id="icon_social_fb" viewBox="0 0 40 40">
		<path class="st0" d="M20,0C9,0,0,9,0,20s9,20,20,20s20-9,20-20C40,9,31,0,20,0zM25.2,20l-3.3,0l0,12h-4.5V20h-3v-4.1l3,0l0-2.4c0-3.4,0.9-5.4,4.9-5.4h3.3v4.1h-2.1c-1.5,0-1.6,0.6-1.6,1.7l0,2.1h3.7L25.2,20z"/>
	</symbol>


	<symbol id="icon_social_inst" viewBox="0 0 40 40">
		<g>
			<path class="st0" d="M20,24c2.2,0,4-1.8,4-4c0-0.9-0.3-1.7-0.8-2.3c-0.7-1-1.9-1.7-3.2-1.7c-1.3,0-2.5,0.7-3.2,1.7
				C16.3,18.3,16,19.1,16,20C16,22.2,17.8,24,20,24z"/>
			<polygon class="st0" points="28.7,15.1 28.7,11.7 28.7,11.2 28.2,11.2 24.9,11.3 24.9,15.1 			"/>
			<path class="st0" d="M20,0C9,0,0,9,0,20c0,11,9,20,20,20c11,0,20-9,20-20C40,9,31,0,20,0z M31.4,17.7V27c0,2.4-2,4.4-4.4,4.4H13
				c-2.4,0-4.4-2-4.4-4.4v-9.3V13c0-2.4,2-4.4,4.4-4.4h14c2.4,0,4.4,2,4.4,4.4V17.7z"/>
			<path class="st0" d="M26.2,20c0,3.4-2.8,6.2-6.2,6.2s-6.2-2.8-6.2-6.2c0-0.8,0.2-1.6,0.5-2.3h-3.4V27c0,1.2,1,2.2,2.2,2.2h14
				c1.2,0,2.2-1,2.2-2.2v-9.3h-3.4C26.1,18.4,26.2,19.2,26.2,20z"/>
		</g>
	</symbol>


<symbol id="icon_contacts_location" viewBox="0 0 20 20">
	<path class="st0" d="M10,0C4.5,0,0,4.5,0,10s4.5,10,10,10s10-4.5,10-10S15.5,0,10,0z M15.2,10.3c-1.4,3.1-4.1,6.4-4.9,7.3
	c-0.1,0.1-0.1,0.1-0.2,0.1s-0.2,0-0.2-0.1c-0.8-0.9-3.5-4.2-4.9-7.3C4.5,9.6,4.3,8.8,4.3,8c0-3.1,2.5-5.7,5.7-5.7s5.7,2.5,5.7,5.7
	C15.7,8.8,15.5,9.6,15.2,10.3z"/>
	<path class="st0" d="M10,5C8.4,5,7,6.3,7,8c0,1.6,1.3,3,3,3c1.6,0,3-1.3,3-3S11.6,5,10,5z"/>
</symbol>

<symbol id="icon_contacts_phone" viewBox="0 0 512 512">
	<path class="st0" d="M256,0C114.6,0,0,114.6,0,256c0,141.4,114.6,256,256,256s256-114.6,256-256C512,114.6,397.4,0,256,0z
		 M391.2,373.5L370.7,394c-3.7,3.7-14.4,5.9-14.7,5.9c-64.8,0.6-127.3-24.9-173.2-70.8c-46-46-71.5-108.7-70.8-173.7
		c0,0,2.3-10.4,6-14.1l20.5-20.5c7.5-7.5,21.9-10.9,32-7.6l4.3,1.4c10.1,3.4,20.6,14.5,23.4,24.8l10.3,37.8
		c2.8,10.3-1,24.9-8.5,32.4l-13.7,13.7c13.4,49.7,52.5,88.8,102.2,102.3l13.7-13.7c7.5-7.5,22.2-11.3,32.4-8.5l37.8,10.3
		c10.3,2.8,21.4,13.3,24.8,23.4l1.4,4.4C402.1,351.7,398.7,366.1,391.2,373.5z"/>
</symbol>

<symbol id="icon_contacts_email" viewBox="0 0 512 512">
<path class="st0" d="M256,512c-23.6,0-46.3-3.1-68.1-9.2c-21.8-6.1-42.2-14.8-61.2-25.9S90.5,452.5,75,437
	c-15.5-15.5-28.8-32.8-39.9-51.7C24,366.3,15.4,345.9,9.2,324.1C3.1,302.3,0,279.6,0,256s3.1-46.3,9.2-68.1s14.8-42.2,25.9-61.2
	S59.5,90.5,75,75s32.8-28.8,51.7-39.9s39.3-19.7,61.2-25.9S232.4,0,256,0c35.2,0,68.4,6.7,99.6,20.2S414,52,437,75
	c23,23,41.3,50.2,54.8,81.4S512,220.8,512,256c0,23.6-3.1,46.3-9.2,68.1c-6.1,21.8-14.8,42.2-25.9,61.2
	c-11.1,18.9-24.4,36.2-39.9,51.7c-15.5,15.5-32.8,28.8-51.7,39.9c-18.9,11.1-39.3,19.7-61.2,25.9C302.3,508.9,279.6,512,256,512z
	 M379.4,150.5H136.7c-2.4,0-4.4,0.8-6.1,2.3c-1.7,1.5-2.6,3.7-2.6,6.4v27.1c0,1.4,0.5,2,1.5,2L257,261.1l1,0.5
	c0.7,0,1.2-0.2,1.5-0.5L383,188.4c0.7-0.3,1.2-0.5,1.5-0.5c0.3,0,0.9-0.2,1.5-0.5c1.4,0,2-0.7,2-2v-26.1c0-2.7-0.9-4.9-2.6-6.4
	C383.8,151.3,381.8,150.5,379.4,150.5z M205.3,259.6c0.3-0.3,0.5-0.9,0.5-1.5c0-1-0.3-1.5-1-1.5l-73.2-42c-1-0.3-1.9-0.3-2.6,0
	c-0.7,0-1,0.5-1,1.5v110.1c0,1,0.5,1.7,1.5,2h1c0.7,0,1-0.2,1-0.5L205.3,259.6z M294.4,267.8c-0.3-1-1.2-1.2-2.6-0.5l-28.2,16.4
	c-3.4,2-7,2-10.8,0l-24.6-13.8c-1-0.7-1.9-0.7-2.6,0l-93.7,87c-0.3,0.3-0.5,1-0.5,2c0,0.3,0.3,0.9,1,1.5c2,0.7,3.4,1,4.1,1h240.1
	c0.7,0,1.4-0.3,2-1c0-1.4-0.2-2.2-0.5-2.6L294.4,267.8z M386.6,212.5h-2L314.9,254c-0.7,0-1,0.5-1,1.5c-0.3,0.3-0.2,0.9,0.5,1.5
	l69.6,75.3c0.7,0.7,1.2,1,1.5,1h1c1-1,1.5-1.7,1.5-2V214.5C388.1,213.8,387.6,213.2,386.6,212.5z"/>
</symbol>



<symbol id="icon_social_twitter" viewBox="0 0 40 40">
	<path d="M20,0C9,0,0,9,0,20c0,11,9,20,20,20c11,0,20-9,20-20C40,9,31,0,20,0z M28.9,15.4c0,0.2,0,0.4,0,0.6
			c0,6.1-4.6,13.1-13.1,13.1c-2.6,0-5-0.8-7.1-2.1c0.4,0,0.7,0.1,1.1,0.1c2.2,0,4.1-0.7,5.7-2c-2,0-3.7-1.4-4.3-3.2
			c0.3,0.1,0.6,0.1,0.9,0.1c0.4,0,0.8-0.1,1.2-0.2c-2.1-0.4-3.7-2.3-3.7-4.5c0,0,0,0,0-0.1c0.6,0.3,1.3,0.6,2.1,0.6
			c-1.2-0.8-2-2.2-2-3.8c0-0.8,0.2-1.6,0.6-2.3c2.3,2.8,5.7,4.6,9.5,4.8c-0.1-0.3-0.1-0.7-0.1-1c0-2.5,2.1-4.6,4.6-4.6
			c1.3,0,2.5,0.6,3.4,1.5c1-0.2,2-0.6,2.9-1.1c-0.3,1.1-1.1,2-2,2.5c0.9-0.1,1.8-0.4,2.6-0.7C30.6,14,29.8,14.8,28.9,15.4z"/>
</symbol>

<symbol id="icon_social_ok" viewBox="0 0 40 40">
	<path d="M20,16.6c1.9,0,3.4-1.5,3.4-3.5c0-1.9-1.5-3.4-3.4-3.4c-1.9,0-3.5,1.5-3.5,3.5C16.6,15.1,18.1,16.6,20,16.6z"/>
		<path d="M20,0C9,0,0,9,0,20s9,20,20,20s20-9,20-20S31,0,20,0z M20,6.1c3.9,0,7,3.2,7,7.1c0,3.8-3.2,7-7.1,7c-3.8,0-7-3.2-7-7.1
			C13,9.2,16.1,6.1,20,6.1z M27.9,22.9c-0.9,0.9-1.9,1.5-3,2c-1.1,0.4-2.3,0.6-3.5,0.8c0.2,0.2,0.3,0.3,0.4,0.4
			c1.6,1.6,3.2,3.2,4.8,4.8c0.5,0.6,0.7,1.2,0.4,1.9c-0.3,0.7-1.1,1.2-1.8,1.1c-0.5,0-0.8-0.3-1.1-0.6c-1.2-1.2-2.4-2.4-3.6-3.7
			c-0.3-0.4-0.5-0.3-0.8,0c-1.2,1.3-2.5,2.5-3.7,3.7c-0.6,0.6-1.2,0.7-1.9,0.3c-0.7-0.3-1.1-1-1.1-1.7c0-0.5,0.3-0.8,0.6-1.2
			c1.6-1.6,3.2-3.2,4.8-4.8c0.1-0.1,0.2-0.2,0.4-0.4c-2.2-0.2-4.1-0.8-5.8-2.1c-0.2-0.2-0.4-0.3-0.6-0.5c-0.7-0.7-0.8-1.5-0.2-2.3
			c0.5-0.7,1.3-0.9,2.2-0.5c0.2,0.1,0.3,0.2,0.5,0.3c3.1,2.1,7.4,2.2,10.5,0.1c0.3-0.2,0.6-0.4,1-0.5c0.7-0.2,1.4,0.1,1.8,0.7
			C28.5,21.6,28.5,22.4,27.9,22.9z"/>
</symbol>

<symbol id="icon_social_gplus" viewBox="0 0 40 40">
	<path d="M20,0C9,0,0,9,0,20c0,11,9,20,20,20s20-9,20-20C40,9,31,0,20,0z M21.4,26.3c-2,2.6-5.8,3.4-8.9,2.4
	c-3.3-1.1-5.6-4.4-5.6-7.8c-0.2-4.3,3.6-8.2,7.8-8.2c2.2-0.2,4.3,0.7,5.9,2c-0.7,0.7-1.4,1.5-2.1,2.2c-1.4-0.9-3.2-1.5-4.9-1
	c-2.7,0.8-4.4,4-3.4,6.7c0.8,2.8,4.2,4.3,6.9,3.1c1.4-0.5,2.3-1.8,2.7-3.1c-1.6,0-3.1,0-4.7-0.1c0-0.9,0-1.9,0-2.8
	c2.6,0,5.3,0,7.9,0C23.2,22,22.9,24.5,21.4,26.3z M32.9,22.1c-0.8,0-1.6,0-2.4,0c0,0.8,0,1.6,0,2.4c-0.8,0-1.6,0-2.3,0
	c0-0.8,0-1.6,0-2.4c-0.8,0-1.6,0-2.4,0c0-0.8,0-1.6,0-2.3c0.8,0,1.6,0,2.4,0c0-0.8,0-1.6,0-2.4c0.8,0,1.6,0,2.3,0c0,0.8,0,1.6,0,2.4
	c0.8,0,1.6,0,2.4,0C32.9,20.5,32.9,21.3,32.9,22.1z"/>
</symbol>

<symbol id="icon_modal_close" viewBox="0 0 28 28">
	<path fill="#FFFFFF" d="M22.8,28H5.2C2.3,28,0,25.7,0,22.8V5.2C0,2.3,2.3,0,5.2,0h17.6C25.7,0,28,2.3,28,5.2v17.6
		C28,25.7,25.7,28,22.8,28z"/>
	<path fill="#FF6C6C" d="M21.1,2.5H6.8c-2.4,0-4.3,2-4.3,4.3v14.4c0,2.4,2,4.3,4.3,4.3h14.4c2.4,0,4.3-2,4.3-4.3V6.8
		C25.4,4.5,23.5,2.5,21.1,2.5z M19,17.8L17.8,19c-0.2,0.2-0.6,0.2-0.8,0l-3-3l-3,3c-0.2,0.2-0.6,0.2-0.8,0l-1.3-1.2
		c-0.2-0.2-0.2-0.6,0-0.8l3-3l-3-3c-0.2-0.2-0.2-0.6,0-0.8L10.1,9c0.2-0.2,0.6-0.2,0.8,0l3,3l3-3c0.2-0.2,0.6-0.2,0.8,0l1.2,1.2
	c0.2,0.2,0.2,0.6,0,0.8l-3,3l3,3C19.3,17.2,19.3,17.6,19,17.8z"/>
</symbol>

<symbol id="icon_advantages" viewBox="0 0 16 16">
	<path d="M14.9,4c-0.7-1.2-1.7-2.2-2.9-2.9C10.8,0.4,9.5,0,8,0C6.5,0,5.2,0.4,4,1.1C2.8,1.8,1.8,2.8,1.1,4C0.4,5.2,0,6.5,0,8
	c0,1.5,0.4,2.8,1.1,4c0.7,1.2,1.7,2.2,2.9,2.9C5.2,15.6,6.5,16,8,16s2.8-0.4,4-1.1c1.2-0.7,2.2-1.7,2.9-2.9c0.7-1.2,1.1-2.6,1.1-4
	C16,6.5,15.6,5.2,14.9,4z M12.2,8.5l-4.7,4.7c-0.1,0.1-0.3,0.2-0.5,0.2c-0.2,0-0.3-0.1-0.5-0.2l-1.1-1.1c-0.1-0.1-0.2-0.3-0.2-0.5
	c0-0.2,0.1-0.3,0.2-0.5L8.7,8L5.5,4.8C5.3,4.7,5.3,4.5,5.3,4.3c0-0.2,0.1-0.3,0.2-0.5l1.1-1.1C6.7,2.7,6.8,2.6,7,2.6
	c0.2,0,0.3,0.1,0.5,0.2l4.7,4.7c0.1,0.1,0.2,0.3,0.2,0.5C12.4,8.2,12.3,8.3,12.2,8.5z"/>
</symbol>








</svg>